{"glyphs":{"0":{"ha":813,"x_min":51,"x_max":760,"o":"m 413 -21 q 226 13 297 -21 q 117 108 156 47 q 65 252 78 168 q 51 436 51 336 q 64 622 51 539 q 115 764 76 706 q 224 854 153 822 q 413 886 296 886 q 600 855 531 886 q 705 766 669 824 q 750 626 740 708 q 760 440 760 543 q 749 258 760 343 q 701 112 738 174 q 597 15 665 50 q 413 -21 528 -21 m 286 411 q 289 334 286 378 q 303 251 292 290 q 341 184 315 211 q 413 157 367 157 q 481 189 457 157 q 515 265 504 221 q 528 356 526 310 q 531 433 531 403 q 530 517 531 468 q 518 610 529 565 q 481 688 507 656 q 406 719 456 719 q 338 694 363 719 q 303 634 314 669 q 289 558 292 599 q 286 488 286 518 l 286 411 z "},"1":{"ha":588,"x_min":38,"x_max":565,"o":"m 203 721 q 168 713 192 714 q 131 713 144 713 q 62 733 86 713 q 38 803 38 754 q 47 838 38 818 q 71 864 56 858 q 138 879 99 874 q 219 887 176 885 q 301 890 261 889 q 371 890 342 890 q 418 878 394 890 q 442 840 442 867 l 442 174 q 481 172 460 172 q 522 166 503 171 q 553 149 540 161 q 565 111 565 136 q 563 67 565 88 q 550 31 560 46 q 524 6 540 15 q 479 -3 507 -3 l 131 -1 q 74 19 99 -1 q 49 72 49 40 q 57 119 49 101 q 81 147 65 138 q 118 160 97 157 q 164 163 139 163 l 201 163 l 203 721 z "},"2":{"ha":750,"x_min":26,"x_max":696,"o":"m 310 169 q 420 174 365 171 q 532 181 475 178 q 539 225 535 203 q 552 265 543 247 q 578 293 561 282 q 622 304 594 304 q 672 290 647 304 q 696 249 696 276 q 682 173 696 211 q 663 97 668 135 q 659 65 661 81 q 651 36 657 49 q 633 15 644 24 q 597 7 621 7 l 117 4 q 56 26 76 4 q 36 86 36 47 l 36 114 q 65 169 36 136 q 136 244 93 203 q 230 334 179 286 q 324 432 281 382 q 395 533 367 482 q 424 632 424 583 q 413 674 424 657 q 386 701 403 690 q 349 715 369 711 q 307 719 328 719 q 233 704 267 719 q 181 651 200 689 q 183 599 182 625 q 185 546 185 574 q 176 515 185 529 q 154 491 168 501 q 124 474 140 481 q 92 468 108 468 q 45 480 64 468 q 26 524 26 492 q 27 578 26 551 q 29 633 28 606 q 56 752 32 703 q 122 833 81 801 q 219 878 163 864 q 339 893 275 893 q 460 879 403 893 q 562 834 518 865 q 631 753 606 803 q 657 632 657 703 q 622 492 657 558 q 535 368 588 426 q 423 260 483 310 q 310 169 363 211 z "},"3":{"ha":707,"x_min":36,"x_max":675,"o":"m 140 240 q 183 234 168 240 q 206 217 197 228 q 222 196 215 207 q 239 174 228 185 q 270 158 250 164 q 325 151 290 151 q 369 157 346 151 q 410 174 392 163 q 440 203 428 185 q 451 246 451 221 q 435 314 451 292 q 393 347 418 336 q 339 360 368 357 q 285 367 310 363 q 243 385 260 372 q 226 426 226 397 q 252 489 226 468 q 318 510 278 510 q 362 522 340 510 q 400 555 383 535 q 426 598 417 575 q 436 642 436 621 q 404 700 436 681 q 339 719 372 719 q 256 697 293 719 q 190 642 219 674 q 193 607 192 624 q 194 572 194 590 q 186 542 194 556 q 164 517 178 528 q 134 501 150 507 q 101 494 118 494 q 55 506 74 494 q 36 550 36 518 q 37 590 36 569 q 39 629 38 610 q 65 750 42 700 q 130 832 89 800 q 226 878 171 864 q 349 893 282 893 q 460 880 406 893 q 559 838 515 867 q 630 765 603 810 q 657 654 657 719 q 510 443 657 500 q 630 369 585 425 q 675 236 675 314 q 642 119 675 167 q 558 43 610 72 q 445 1 507 14 q 325 -11 383 -11 q 244 -2 293 -11 q 150 27 196 7 q 71 77 104 47 q 38 149 38 107 q 68 217 38 193 q 140 240 99 240 z "},"4":{"ha":747,"x_min":25,"x_max":728,"o":"m 108 164 q 44 182 64 164 q 25 246 25 200 q 33 279 25 263 q 50 310 40 296 l 353 763 q 422 834 379 803 q 515 865 465 865 q 551 863 529 865 q 593 853 572 860 q 628 833 614 846 q 643 801 643 821 l 644 333 q 702 313 676 331 q 728 260 728 296 q 710 195 728 219 q 650 168 693 171 q 651 138 651 153 q 651 108 651 124 q 707 42 707 96 q 681 -6 707 10 q 628 -21 656 -22 l 421 -19 q 349 53 349 -19 q 369 93 349 81 q 414 110 390 106 q 413 138 413 124 q 413 165 413 151 l 108 164 m 418 331 l 418 543 l 281 324 l 418 331 z "},"5":{"ha":722,"x_min":25,"x_max":675,"o":"m 272 549 q 320 565 296 558 q 369 571 344 571 q 490 553 435 571 q 587 500 546 535 q 651 413 628 465 q 675 293 675 361 q 647 165 675 221 q 570 72 618 110 q 460 13 522 33 q 332 -7 399 -7 q 255 -1 294 -7 q 178 19 215 6 q 106 53 140 32 q 47 101 72 74 q 32 120 39 110 q 25 142 25 131 q 37 190 25 169 q 67 226 49 211 q 110 248 86 240 q 158 256 133 256 q 206 241 186 256 q 243 210 225 226 q 282 178 261 193 q 333 164 303 164 q 380 175 361 164 q 410 205 399 186 q 425 247 421 224 q 429 293 429 269 q 413 366 429 340 q 346 392 397 392 q 290 385 317 392 q 235 369 263 378 q 181 354 208 361 q 125 347 154 347 q 99 351 113 347 q 73 362 85 354 q 54 381 61 369 q 47 407 47 392 l 61 797 q 88 842 63 828 q 140 858 113 857 l 546 861 q 592 845 574 861 q 618 801 611 829 q 636 741 625 775 q 647 679 647 707 q 623 638 647 651 q 575 624 599 624 q 524 640 547 624 q 494 685 501 657 q 388 687 442 688 q 282 688 335 686 l 272 549 z "},"6":{"ha":814,"x_min":49,"x_max":754,"o":"m 411 703 q 343 681 369 703 q 301 627 317 660 q 278 556 285 594 q 271 486 272 518 q 363 539 313 518 q 467 560 413 560 q 574 542 522 560 q 666 490 626 524 q 730 410 706 457 q 754 303 754 363 q 728 175 754 233 q 658 74 703 117 q 553 7 613 31 q 425 -17 493 -17 q 244 19 317 -17 q 128 117 172 56 q 67 263 85 179 q 49 443 49 347 q 71 605 49 529 q 138 738 93 681 q 251 829 182 796 q 413 863 319 863 q 483 856 442 863 q 565 836 525 850 q 638 800 606 822 q 678 744 669 778 q 697 683 685 717 q 708 621 708 649 q 683 580 708 593 q 635 567 658 567 q 570 597 588 567 q 546 667 553 628 q 481 696 511 689 q 411 703 451 703 m 421 156 q 467 168 447 156 q 502 201 488 181 q 524 245 517 221 q 532 292 532 269 q 506 368 532 336 q 433 400 479 400 q 341 369 375 400 q 307 279 307 339 q 336 191 307 226 q 421 156 365 156 z "},"7":{"ha":665,"x_min":7,"x_max":643,"o":"m 144 54 q 156 108 144 67 q 185 205 167 149 q 224 325 203 261 q 266 447 246 389 q 302 549 286 504 q 325 614 318 594 q 354 689 338 651 q 357 694 354 692 q 352 703 357 701 q 344 704 347 704 q 253 703 299 704 q 164 703 208 703 q 138 646 157 668 q 81 624 118 624 q 32 638 57 624 q 7 679 7 651 q 18 740 7 706 q 36 801 29 775 q 65 850 44 829 q 117 871 86 871 l 568 879 q 625 857 607 879 q 643 799 643 835 q 632 758 643 793 q 603 670 621 724 q 561 550 585 617 q 513 414 538 483 q 463 278 488 344 q 419 157 439 211 q 384 67 399 103 q 365 24 369 31 l 364 22 q 316 -8 344 -1 q 257 -15 288 -15 q 222 -12 242 -15 q 185 -1 203 -8 q 156 20 168 7 q 144 54 144 33 z "},"8":{"ha":775,"x_min":36,"x_max":746,"o":"m 36 242 q 48 307 36 275 q 80 367 60 339 q 127 417 100 396 q 185 450 154 439 q 138 488 160 469 q 101 528 117 507 q 77 574 86 549 q 68 635 68 600 q 95 761 68 713 q 167 837 122 810 q 272 874 213 864 q 397 885 332 885 q 524 874 465 885 q 625 835 582 864 q 693 758 668 807 q 718 632 718 710 q 710 571 718 594 q 689 528 703 547 q 656 492 675 510 q 617 450 638 475 q 667 408 644 429 q 708 363 690 388 q 736 310 726 339 q 746 244 746 282 q 715 112 746 163 q 635 33 685 61 q 520 -6 585 4 q 388 -15 456 -15 q 256 -6 319 -15 q 143 31 192 3 q 65 109 94 58 q 36 242 36 160 m 403 517 q 444 526 426 517 q 475 553 463 536 q 494 590 488 569 q 500 632 500 611 q 472 699 500 676 q 401 722 444 722 q 327 695 360 722 q 294 624 294 668 q 327 549 294 581 q 403 517 360 517 m 390 156 q 432 162 411 156 q 469 181 453 168 q 497 211 486 193 q 507 251 507 229 q 497 294 507 275 q 472 328 488 314 q 435 350 456 342 q 393 358 415 358 q 351 349 372 358 q 315 323 331 339 q 289 287 299 307 q 279 246 279 267 q 290 208 279 225 q 316 179 300 190 q 351 162 332 168 q 390 156 371 156 z "},"9":{"ha":775,"x_min":38,"x_max":743,"o":"m 382 143 q 449 165 424 143 q 491 219 475 186 q 513 290 507 251 q 521 360 519 328 q 429 306 479 326 q 325 285 379 285 q 217 303 269 285 q 126 354 165 321 q 62 435 86 388 q 38 543 38 483 q 63 671 38 613 q 134 772 89 729 q 239 839 179 815 q 367 863 299 863 q 547 826 475 863 q 663 728 619 790 q 725 583 707 667 q 743 403 743 499 q 721 242 743 318 q 654 108 699 165 q 541 17 610 50 q 379 -17 472 -17 q 308 -10 350 -17 q 226 10 267 -4 q 154 46 186 24 q 114 101 122 68 q 95 163 107 129 q 83 225 83 197 q 108 266 83 253 q 157 279 133 279 q 197 271 181 279 q 222 249 213 263 q 237 217 232 235 q 246 179 242 199 q 310 150 281 157 q 382 143 340 143 m 371 690 q 324 678 344 690 q 290 645 304 665 q 267 601 275 625 q 260 553 260 576 q 286 478 260 510 q 358 446 313 446 q 451 476 417 446 q 485 567 485 506 q 456 655 485 619 q 371 690 426 690 z "},"\u0000":{"ha":0,"x_min":0,"x_max":0,"o":""},"\r":{"ha":347,"x_min":0,"x_max":0,"o":""}," ":{"ha":347,"x_min":0,"x_max":0,"o":""},"!":{"ha":463,"x_min":54,"x_max":353,"o":"m 183 889 q 231 888 203 889 q 287 878 260 886 q 333 856 314 871 q 353 813 353 840 l 353 800 l 276 226 q 242 181 271 193 q 185 169 214 169 q 127 182 154 169 q 97 231 100 194 l 56 813 q 68 846 54 832 q 103 869 82 860 q 147 884 124 879 q 183 889 169 889 m 81 69 q 91 106 81 90 q 117 131 101 121 q 151 147 132 142 q 188 151 169 151 q 224 147 206 151 q 259 131 243 142 q 285 106 275 121 q 294 69 294 90 q 285 33 294 49 q 259 8 275 18 q 224 -8 243 -3 q 188 -12 206 -12 q 151 -8 169 -12 q 117 8 132 -3 q 91 33 101 18 q 81 69 81 49 z "},"\"":{"ha":571,"x_min":43,"x_max":525,"o":"m 525 836 q 517 747 525 793 q 496 660 510 700 q 458 620 485 632 q 404 608 432 608 q 345 617 369 608 q 311 665 321 626 q 295 748 303 706 q 288 831 288 790 q 301 864 288 850 q 333 887 314 878 q 372 900 351 896 q 408 904 393 904 q 449 903 428 904 q 486 895 469 901 q 514 875 503 889 q 525 836 525 861 m 279 836 q 272 747 279 793 q 250 660 265 700 q 214 620 240 632 q 160 608 188 608 q 100 617 125 608 q 67 665 75 626 q 50 748 57 706 q 43 831 43 790 q 56 864 43 850 q 88 887 69 878 q 128 900 107 896 q 164 904 149 904 q 203 903 183 904 q 240 895 224 901 q 268 875 257 889 q 279 836 279 861 z "},"#":{"ha":861,"x_min":24,"x_max":803,"o":"m 192 485 q 138 483 165 483 q 88 492 110 483 q 51 519 65 500 q 38 575 38 539 q 57 631 38 607 q 110 654 76 654 q 161 653 136 654 q 211 651 186 653 l 231 797 q 243 830 233 818 q 266 848 253 842 q 296 856 279 854 q 329 857 313 857 q 406 831 388 857 q 424 749 424 806 q 422 699 424 724 q 413 650 419 674 l 504 650 l 525 789 q 557 838 532 826 q 614 849 582 849 q 681 833 656 849 q 707 769 707 818 q 705 742 707 760 q 700 707 703 725 q 694 673 697 689 q 686 647 690 657 q 729 644 708 647 q 767 631 750 640 q 793 604 783 621 q 803 560 803 588 q 785 502 803 526 q 731 478 767 478 q 695 478 713 478 q 661 479 678 478 l 643 369 q 695 366 672 369 q 733 352 718 363 q 757 321 749 342 q 765 267 765 300 q 757 223 765 239 q 734 199 749 207 q 699 188 719 190 q 656 186 679 186 l 613 186 q 606 129 610 163 q 594 66 603 96 q 566 15 585 36 q 514 -6 547 -6 q 474 3 489 -6 q 451 27 460 13 q 440 60 443 42 q 438 100 438 79 q 440 140 438 119 q 444 181 442 161 l 336 182 q 333 137 333 163 q 326 88 332 111 q 307 49 321 65 q 265 33 293 33 q 183 52 219 33 q 147 125 147 71 q 149 156 147 140 q 154 188 150 172 q 101 191 125 188 q 59 205 76 194 q 33 236 42 215 q 24 292 24 257 q 52 355 24 340 q 122 369 81 369 q 149 369 136 369 q 175 368 163 368 l 192 485 m 469 368 l 486 481 l 386 481 l 368 368 l 469 368 z "},"$":{"ha":829,"x_min":74,"x_max":760,"o":"m 293 13 q 210 51 250 26 q 140 111 171 76 q 92 188 110 146 q 74 278 74 231 q 105 342 74 318 q 174 365 136 365 q 242 351 218 365 q 279 317 265 338 q 301 271 293 296 q 322 225 310 246 q 357 190 335 204 q 419 176 379 176 q 454 180 436 176 q 488 191 472 183 q 515 212 504 199 q 525 246 525 225 q 493 288 525 268 q 413 328 461 307 q 308 376 364 350 q 203 437 251 401 q 122 519 154 472 q 90 631 90 567 q 114 728 90 686 q 176 799 138 769 q 263 844 214 828 q 360 865 311 860 q 375 938 360 910 q 442 965 390 965 q 478 964 457 965 q 519 958 500 963 q 553 941 539 953 q 568 908 568 929 q 563 876 568 892 q 550 847 557 861 q 625 807 592 832 q 642 869 626 842 q 697 896 657 896 q 743 874 726 896 q 760 824 760 851 q 752 719 760 775 q 739 613 744 663 q 698 547 733 565 q 619 529 663 529 q 561 542 581 529 q 532 575 542 556 q 517 618 522 594 q 501 661 511 642 q 469 694 490 681 q 408 707 449 707 q 351 683 372 707 q 329 622 329 658 q 360 576 329 596 q 439 534 392 556 q 541 489 486 513 q 643 433 596 465 q 722 356 690 400 q 753 249 753 311 q 730 153 753 196 q 669 81 707 111 q 585 31 632 50 q 492 4 539 13 l 482 3 q 486 -51 486 -25 q 464 -108 486 -92 q 403 -124 442 -124 q 365 -122 386 -124 q 326 -115 344 -121 q 294 -97 307 -110 q 281 -61 281 -85 q 285 -24 281 -42 q 293 13 289 -7 z "},"%":{"ha":1042,"x_min":61,"x_max":1024,"o":"m 774 199 q 780 167 774 183 q 804 151 786 151 q 822 161 815 151 q 830 183 828 171 q 832 209 832 196 q 832 231 832 222 q 831 251 832 239 q 828 274 831 263 q 819 294 825 286 q 801 303 813 303 q 778 287 782 303 q 774 256 774 271 l 774 199 m 256 624 q 263 592 256 608 q 289 576 269 576 q 306 585 300 576 q 315 607 313 594 q 317 633 317 619 q 317 654 317 646 q 316 674 317 663 q 313 698 315 686 q 303 718 310 710 q 285 726 297 726 q 261 711 267 726 q 256 681 256 696 l 256 624 m 285 408 q 114 472 167 408 q 61 650 61 536 q 112 826 61 768 q 285 883 163 883 q 453 822 399 883 q 508 650 508 761 q 494 554 508 599 q 451 478 479 510 q 381 427 422 446 q 285 408 339 408 m 864 815 q 860 796 864 804 q 850 778 857 788 q 630 428 742 601 q 421 72 518 256 l 400 35 q 353 -12 383 3 q 286 -26 322 -26 q 258 -21 272 -26 q 231 -6 243 -15 q 212 16 219 3 q 204 44 204 29 q 212 78 204 60 q 231 114 219 96 q 254 149 242 132 q 275 178 267 165 q 450 441 367 307 q 608 714 533 575 q 640 773 625 743 q 676 827 656 803 q 723 867 696 851 q 789 882 750 882 q 840 864 817 882 q 864 815 864 846 m 578 226 q 593 319 578 276 q 638 393 608 363 q 708 441 667 424 q 801 458 750 458 q 971 399 918 458 q 1024 226 1024 340 q 971 49 1024 114 q 801 -15 918 -15 q 631 49 683 -15 q 578 226 578 114 z "},"&":{"ha":858,"x_min":46,"x_max":829,"o":"m 507 85 q 472 75 501 83 q 410 58 443 67 q 349 41 376 49 q 322 33 322 33 q 213 47 264 33 q 125 90 163 61 q 67 165 88 119 q 46 274 46 211 q 58 338 46 308 q 88 394 69 368 q 131 444 107 421 q 178 489 154 468 q 132 574 154 526 q 110 667 110 622 q 131 760 110 721 q 189 824 153 799 q 271 860 225 849 q 365 872 317 872 q 460 858 413 872 q 547 815 508 843 q 608 747 585 788 q 632 654 632 707 q 614 591 632 625 q 569 526 596 557 q 510 471 542 494 q 453 436 479 447 q 507 373 481 404 q 560 310 533 342 q 584 333 574 319 q 603 361 594 346 q 554 380 569 363 q 539 429 539 397 q 549 465 539 451 q 574 484 558 478 q 608 492 589 490 q 643 494 626 494 q 696 495 664 494 q 757 491 728 496 q 808 472 786 486 q 829 429 829 458 q 814 383 829 403 q 771 360 799 363 q 740 270 764 315 q 683 193 715 225 q 702 174 690 186 q 725 150 714 163 q 744 125 736 138 q 751 101 751 113 q 715 24 751 49 q 631 0 678 0 q 597 9 615 0 q 563 31 579 18 q 531 59 546 44 q 507 85 517 74 m 361 560 q 388 578 374 567 q 415 603 403 589 q 437 632 428 617 q 446 663 446 647 q 419 710 446 694 q 365 726 393 726 q 327 712 349 726 q 306 678 306 697 q 324 615 306 647 q 361 560 342 582 m 365 203 q 403 208 386 203 q 341 281 372 246 q 281 354 310 317 q 267 321 272 339 q 261 285 261 303 q 293 222 261 240 q 365 203 325 203 z "},"'":{"ha":328,"x_min":43,"x_max":279,"o":"m 279 836 q 272 747 279 793 q 250 660 265 700 q 214 620 240 632 q 160 608 188 608 q 100 617 125 608 q 67 665 75 626 q 50 748 57 706 q 43 831 43 790 q 56 864 43 850 q 88 887 69 878 q 128 900 107 896 q 164 904 149 904 q 203 903 183 904 q 240 895 224 901 q 268 875 257 889 q 279 836 279 861 z "},"(":{"ha":518,"x_min":67,"x_max":479,"o":"m 293 404 q 324 217 293 300 q 418 54 354 135 q 442 24 426 43 q 460 -7 457 6 l 460 -11 q 448 -47 460 -32 q 419 -74 436 -62 q 381 -90 401 -85 q 343 -96 360 -96 q 274 -74 311 -96 q 214 -29 238 -51 q 140 60 168 11 q 95 162 111 108 q 73 273 79 215 q 67 389 67 331 q 80 522 67 450 q 119 665 93 594 q 184 795 144 735 q 275 893 224 856 q 324 919 299 910 q 378 929 349 929 q 413 924 394 929 q 445 908 431 918 q 469 883 460 897 q 479 849 479 868 q 450 797 479 831 q 386 709 421 763 q 322 580 351 656 q 293 404 293 504 z "},")":{"ha":506,"x_min":36,"x_max":449,"o":"m 222 429 q 201 586 222 513 q 135 728 179 660 q 117 751 131 735 q 90 786 104 768 q 65 821 76 804 q 54 843 54 838 q 66 881 54 864 q 95 908 78 897 q 133 924 113 918 q 171 929 153 929 q 241 907 204 929 q 301 864 278 885 q 376 775 347 824 q 420 672 404 726 q 442 561 436 618 q 449 446 449 504 q 435 311 449 383 q 397 169 422 239 q 332 40 371 100 q 240 -58 293 -21 q 191 -85 217 -75 q 138 -96 165 -96 q 72 -76 106 -96 q 36 -21 39 -56 l 36 -17 q 65 35 36 1 q 129 124 94 69 q 193 253 164 178 q 222 429 222 329 z "},"*":{"ha":590,"x_min":65,"x_max":533,"o":"m 376 679 q 352 689 363 679 q 334 713 342 699 q 322 742 326 726 q 315 768 318 757 q 301 742 310 757 q 281 713 292 726 q 258 689 271 699 q 231 679 246 679 q 203 683 218 679 q 176 694 189 686 q 153 712 163 701 q 144 736 144 722 q 156 756 144 744 q 180 778 167 767 q 206 799 193 789 q 221 817 218 810 q 173 813 197 817 q 125 808 149 808 q 83 817 101 808 q 65 853 65 825 q 89 894 65 881 q 138 908 113 908 l 201 908 q 183 921 197 913 q 153 938 168 929 q 127 955 139 947 q 115 967 115 963 q 124 994 115 982 q 147 1013 133 1006 q 175 1025 160 1021 q 203 1029 190 1029 q 224 1022 211 1029 q 251 1003 238 1014 q 278 982 265 993 q 296 965 290 971 q 308 985 300 974 q 324 1007 315 996 q 342 1026 332 1018 q 363 1033 353 1033 q 392 1031 376 1033 q 422 1022 408 1028 q 443 1004 435 1015 q 451 975 451 993 q 444 963 451 969 q 428 949 438 956 q 409 935 418 942 q 397 922 400 928 q 441 924 419 924 q 486 925 463 925 q 519 910 506 925 q 533 876 533 896 q 481 825 533 825 q 441 826 461 825 q 401 825 421 828 q 419 812 408 821 q 442 792 431 803 q 460 769 453 781 q 468 750 468 758 q 459 722 468 735 q 436 699 450 708 q 406 685 422 690 q 376 679 390 679 z "},"+":{"ha":646,"x_min":61,"x_max":560,"o":"m 206 381 q 161 378 186 379 q 114 381 136 376 q 76 400 92 386 q 61 443 61 414 q 76 510 61 489 q 140 531 90 531 q 175 530 158 531 q 210 529 192 529 q 214 591 213 563 q 224 642 215 619 q 253 676 232 664 q 317 689 274 689 q 418 589 418 689 q 417 560 418 574 q 414 531 417 546 q 457 531 432 531 q 505 526 482 532 q 544 508 528 521 q 560 469 560 496 q 553 422 560 440 q 534 394 547 404 q 501 382 521 385 q 456 379 482 379 l 404 379 q 401 324 403 354 q 392 267 400 294 q 365 222 383 240 q 313 204 346 204 q 253 215 275 204 q 221 246 232 226 q 207 291 210 265 q 204 347 204 317 q 204 364 204 356 q 206 381 204 372 z "},",":{"ha":476,"x_min":65,"x_max":344,"o":"m 171 -118 q 138 -112 156 -118 q 103 -97 119 -107 q 77 -74 88 -87 q 65 -43 67 -60 l 65 -40 q 76 59 65 8 q 101 156 86 110 q 130 201 111 185 q 181 218 149 218 q 231 213 203 218 q 285 197 260 208 q 327 168 310 186 q 344 122 344 150 q 332 78 344 107 q 301 19 319 50 q 266 -40 283 -12 q 238 -82 249 -68 q 209 -109 224 -100 q 171 -118 194 -118 z "},"-":{"ha":632,"x_min":99,"x_max":546,"o":"m 546 426 q 522 375 546 392 q 467 358 497 358 l 203 360 q 170 362 189 360 q 136 371 151 364 q 110 390 121 378 q 99 419 99 401 l 99 444 q 108 480 99 467 q 133 501 118 493 q 167 511 149 508 q 203 514 185 514 q 335 512 269 514 q 468 508 401 510 q 521 494 496 507 q 546 449 546 481 l 546 426 z "},".":{"ha":417,"x_min":56,"x_max":360,"o":"m 208 -39 q 151 -31 179 -39 q 102 -6 124 -22 q 68 36 81 11 q 56 93 56 61 q 69 149 56 125 q 103 190 82 174 q 151 214 124 206 q 208 222 179 222 q 265 214 238 222 q 313 189 292 206 q 347 149 333 172 q 360 93 360 125 q 347 36 360 61 q 314 -6 335 11 q 265 -31 293 -22 q 208 -39 238 -39 z "},"/":{"ha":610,"x_min":60,"x_max":568,"o":"m 568 886 q 556 840 568 881 q 525 734 544 799 q 480 590 506 669 q 428 426 454 510 q 375 262 401 342 q 328 118 349 182 q 292 13 307 54 q 275 -32 278 -28 q 254 -58 263 -49 q 237 -73 246 -68 q 217 -78 228 -78 q 186 -79 206 -79 q 151 -78 172 -79 q 110 -71 129 -76 q 76 -53 90 -65 q 60 -22 61 -42 l 60 -18 q 72 28 60 -14 q 106 135 85 69 q 153 282 126 200 q 207 449 179 364 q 262 616 235 535 q 310 762 289 697 q 347 867 332 826 q 363 910 361 907 q 381 932 374 924 q 397 945 389 940 q 417 951 406 950 q 447 953 429 953 q 481 949 461 953 q 521 938 501 946 q 554 917 540 929 q 568 886 568 904 z "},":":{"ha":519,"x_min":78,"x_max":357,"o":"m 215 565 q 164 573 189 565 q 120 595 139 581 q 90 633 101 610 q 78 685 78 656 q 90 736 78 714 q 120 773 101 758 q 164 795 139 788 q 215 803 189 803 q 268 795 243 803 q 313 773 293 788 q 345 736 333 758 q 357 685 357 714 q 345 633 357 656 q 313 595 333 610 q 268 573 293 581 q 215 565 243 565 m 215 -7 q 164 1 189 -7 q 120 24 139 8 q 90 61 101 39 q 78 113 78 83 q 90 164 78 142 q 120 201 101 186 q 164 223 139 215 q 215 231 189 231 q 268 223 243 231 q 313 201 293 215 q 345 164 333 186 q 357 113 357 142 q 345 60 357 83 q 314 23 333 38 q 269 1 294 8 q 215 -7 243 -7 z "},";":{"ha":492,"x_min":51,"x_max":331,"o":"m 197 574 q 105 605 143 574 q 67 693 67 636 q 106 783 67 751 q 197 814 144 814 q 291 783 251 814 q 331 693 331 751 q 291 604 331 635 q 197 574 251 574 m 144 -118 q 115 -113 131 -118 q 85 -99 99 -108 q 61 -78 71 -90 q 51 -50 51 -65 q 61 35 51 -8 q 83 119 71 79 q 109 159 93 144 q 153 174 125 174 q 197 169 172 174 q 243 156 221 165 q 281 130 265 146 q 296 90 296 114 q 285 52 296 76 q 258 1 274 28 q 227 -50 243 -26 q 203 -86 211 -74 q 177 -110 190 -101 q 144 -118 164 -118 z "},"<":{"ha":508,"x_min":46,"x_max":454,"o":"m 246 419 q 291 396 260 411 q 355 363 322 381 q 412 326 388 344 q 436 290 436 307 q 426 258 436 274 q 402 231 417 243 q 370 211 388 218 q 338 204 353 204 q 284 221 318 204 q 215 259 250 238 q 147 303 179 281 q 97 339 114 326 q 73 356 83 349 q 57 372 63 364 q 49 392 51 381 q 46 422 46 404 q 56 454 46 442 q 81 478 67 467 q 136 523 97 493 q 218 583 175 553 q 301 635 261 613 q 360 658 340 658 q 389 653 372 658 q 420 640 406 649 q 444 617 435 631 q 454 589 454 604 q 427 547 454 571 q 365 497 400 522 q 295 451 329 472 q 246 419 261 431 z "},"=":{"ha":578,"x_min":79,"x_max":511,"o":"m 511 539 q 498 485 511 510 q 451 461 485 461 l 218 461 q 178 463 201 461 q 133 470 154 464 q 95 489 111 476 q 79 525 79 501 q 98 589 79 569 q 145 615 117 608 q 208 619 174 621 q 274 617 243 617 q 338 618 297 617 q 417 614 378 619 q 483 592 456 608 q 511 539 511 575 m 79 357 q 104 418 79 397 q 168 440 129 439 l 439 442 q 488 422 465 442 q 511 374 511 401 q 486 308 511 329 q 418 286 461 286 l 214 286 q 172 288 196 286 q 128 297 149 289 q 93 318 107 304 q 79 357 79 332 z "},">":{"ha":497,"x_min":46,"x_max":454,"o":"m 256 443 q 210 467 242 451 q 147 500 179 482 q 89 538 114 518 q 64 572 64 557 q 74 604 64 589 q 98 632 83 619 q 131 651 113 644 q 164 658 149 658 q 217 642 183 658 q 286 604 250 626 q 354 560 322 582 q 404 525 386 538 q 428 508 419 515 q 444 491 438 500 q 452 471 450 482 q 454 440 454 460 q 444 408 454 421 q 421 385 433 396 q 365 340 403 371 q 283 280 326 310 q 201 227 240 250 q 142 204 161 204 q 113 209 129 204 q 81 223 96 214 q 56 245 67 232 q 46 274 46 258 q 73 316 46 292 q 135 365 100 340 q 206 412 171 390 q 256 443 240 433 z "},"?":{"ha":706,"x_min":33,"x_max":665,"o":"m 665 667 q 642 581 665 617 q 583 517 618 546 q 511 462 549 488 q 446 404 474 436 q 419 355 424 381 q 411 297 414 329 q 406 252 410 272 q 393 217 403 232 q 366 193 383 201 q 319 185 349 185 q 286 187 304 185 q 253 195 268 189 q 227 214 238 201 q 217 246 217 226 l 217 324 q 247 435 217 388 q 314 517 278 482 q 381 580 350 553 q 411 629 411 607 q 395 677 411 658 q 349 696 379 696 q 276 670 299 696 q 240 614 254 644 q 210 558 226 583 q 153 532 193 532 q 105 535 126 532 q 67 549 83 539 q 43 578 51 560 q 35 626 35 596 q 34 730 35 679 q 33 833 33 781 q 49 887 33 861 q 96 913 64 913 q 149 889 131 913 q 168 833 168 865 l 167 799 q 260 853 210 832 q 364 874 310 874 q 471 865 417 874 q 568 835 525 857 q 638 772 611 813 q 665 667 665 732 m 308 -15 q 269 -10 289 -15 q 234 5 250 -6 q 208 31 218 15 q 199 69 199 47 q 209 106 199 90 q 235 133 219 122 q 270 149 250 143 q 308 154 290 154 q 346 149 326 154 q 381 133 365 143 q 408 106 397 122 q 418 69 418 90 q 408 31 418 47 q 383 5 399 15 q 347 -10 367 -6 q 308 -15 328 -15 z "},"@":{"ha":979,"x_min":43,"x_max":943,"o":"m 556 367 q 513 273 546 313 q 419 233 479 233 q 356 247 383 233 q 310 283 328 260 q 283 336 292 306 q 274 400 274 367 q 286 473 274 436 q 322 539 299 510 q 376 587 344 568 q 447 606 408 606 q 488 601 468 606 q 525 585 508 596 q 586 611 551 611 q 620 602 603 611 q 651 579 638 593 q 674 548 665 565 q 683 514 683 531 q 683 485 683 506 q 683 442 682 464 q 690 402 685 419 q 704 385 694 385 q 738 401 725 385 q 758 440 750 417 q 768 486 765 463 q 771 524 771 510 q 749 617 771 579 q 692 678 728 656 q 612 712 657 701 q 518 722 567 722 q 399 694 454 722 q 301 621 343 667 q 236 516 260 575 q 213 396 213 457 q 238 280 213 331 q 304 195 263 229 q 401 143 346 161 q 517 125 456 125 q 860 254 717 125 q 876 261 869 261 q 901 254 889 261 q 922 236 913 247 q 937 213 931 225 q 943 189 943 200 q 940 174 943 181 q 935 160 938 167 l 931 153 q 849 73 899 106 q 743 22 800 40 q 626 -6 686 3 q 511 -14 565 -14 q 328 13 414 -14 q 179 91 243 39 q 79 221 115 143 q 43 403 43 299 q 82 586 43 503 q 186 731 121 669 q 338 826 251 792 q 522 860 425 860 q 682 843 607 860 q 813 787 757 826 q 901 682 868 747 q 933 521 933 617 q 915 419 933 471 q 864 324 897 367 q 785 255 831 282 q 685 228 739 228 q 584 258 613 228 q 556 360 556 289 l 556 367 m 450 374 q 467 385 458 374 q 484 413 476 397 q 497 443 492 428 q 501 465 501 458 q 494 481 501 474 q 479 488 488 488 q 458 481 469 488 q 438 463 447 474 q 424 441 429 453 q 418 419 418 429 q 426 390 418 406 q 450 374 435 374 z "},"A":{"ha":843,"x_min":24,"x_max":821,"o":"m 314 200 q 303 156 308 178 q 292 111 299 133 q 320 104 306 110 q 347 89 335 99 q 367 67 360 79 q 375 42 375 56 q 349 -6 375 10 q 296 -21 324 -22 l 89 -19 q 38 -1 53 -19 q 24 53 24 18 q 40 94 24 81 q 83 110 57 108 q 92 141 88 125 q 103 172 97 157 q 185 457 147 315 q 264 742 224 599 q 207 758 224 742 q 190 815 190 775 q 208 857 190 844 q 253 872 225 869 q 423 875 338 875 q 593 875 508 875 q 649 857 625 875 q 672 804 672 839 q 650 760 672 775 q 601 743 628 744 q 684 428 644 585 q 760 111 724 271 q 803 88 786 107 q 821 42 821 69 q 795 -6 821 10 q 742 -21 769 -21 q 638 -21 689 -21 q 535 -19 586 -21 q 483 -1 497 -19 q 469 53 469 18 q 510 107 469 96 l 485 199 l 314 200 m 456 343 l 404 599 l 356 346 l 456 343 z "},"B":{"ha":728,"x_min":1,"x_max":708,"o":"m 690 643 q 658 523 690 574 q 560 449 626 472 q 556 448 557 449 q 553 447 554 447 q 538 449 542 447 q 599 415 568 435 q 653 371 629 396 q 693 315 678 346 q 708 247 708 285 q 665 111 708 164 q 556 29 621 58 q 415 -10 490 0 q 274 -21 339 -21 l 67 -19 q 16 0 31 -19 q 1 53 1 19 q 9 83 1 72 q 28 101 17 94 q 56 108 40 107 q 86 110 71 110 l 86 743 q 22 756 43 740 q 1 817 1 771 q 21 858 1 844 q 68 875 40 871 q 125 878 96 879 q 174 876 154 876 q 283 875 228 876 q 392 874 338 874 q 495 860 442 874 q 592 817 549 846 q 663 744 635 788 q 690 643 690 701 m 310 547 q 327 540 314 543 q 357 534 340 536 q 388 531 374 532 q 408 529 403 529 q 433 538 424 529 q 449 558 443 546 q 456 585 454 571 q 457 613 457 600 q 433 676 457 649 q 372 704 408 704 q 342 703 363 704 q 314 703 322 703 l 310 547 m 303 146 l 306 146 q 363 153 333 146 q 416 174 392 160 q 456 211 440 189 q 472 264 472 233 q 453 308 472 286 q 406 347 433 329 q 351 376 379 364 q 303 393 322 389 l 303 146 z "},"C":{"ha":699,"x_min":31,"x_max":668,"o":"m 376 144 q 413 156 400 144 q 432 185 425 168 q 440 224 439 203 q 442 261 442 244 q 442 321 442 297 q 453 360 443 344 q 484 381 463 375 q 547 388 506 388 q 585 385 564 388 q 624 374 606 382 q 656 351 643 365 q 668 317 668 338 q 649 182 668 244 q 592 74 631 119 q 497 3 554 29 q 361 -22 439 -22 q 196 15 260 -22 q 95 114 132 53 q 44 256 58 175 q 31 421 31 336 q 45 590 31 506 q 97 740 60 674 q 200 849 135 807 q 367 890 265 890 q 453 871 411 890 q 528 819 496 851 q 543 884 528 856 q 600 913 558 913 q 647 887 632 913 q 663 833 663 861 q 661 730 661 781 q 661 626 661 679 q 647 590 661 606 q 615 565 633 575 q 574 551 596 556 q 535 546 551 546 l 511 546 q 469 574 482 546 q 444 638 456 603 q 417 701 433 672 q 365 729 401 729 q 328 709 343 729 q 303 657 313 689 q 288 587 293 625 q 281 512 283 549 q 278 445 278 475 q 278 400 278 415 q 278 331 278 374 q 288 246 279 288 q 317 174 297 204 q 376 144 338 144 z "},"D":{"ha":775,"x_min":14,"x_max":736,"o":"m 286 -21 q 182 -21 233 -21 q 79 -19 131 -21 q 28 0 43 -19 q 14 53 14 19 q 33 97 14 83 q 79 110 51 110 q 75 426 76 269 q 74 743 74 583 q 26 765 39 744 q 14 817 14 785 q 31 858 14 844 q 75 872 49 871 q 176 877 125 875 q 276 879 226 879 l 357 879 q 522 856 451 879 q 641 782 593 833 q 713 647 689 731 q 736 442 736 564 q 713 260 736 344 q 637 113 690 175 q 497 15 583 50 q 286 -21 411 -21 m 318 142 q 331 140 325 140 q 344 140 338 140 q 432 173 401 140 q 476 253 463 206 q 491 353 489 300 q 493 449 493 407 q 490 528 493 483 q 473 613 486 574 q 434 680 460 653 q 363 707 408 707 l 324 707 l 318 142 z "},"E":{"ha":699,"x_min":1,"x_max":669,"o":"m 311 383 q 311 341 311 374 q 310 272 311 308 q 309 206 310 236 q 306 169 308 176 q 390 172 349 171 q 465 175 426 174 q 531 176 503 176 q 535 205 533 192 q 542 228 536 218 q 558 242 547 238 q 588 247 568 247 q 613 245 600 247 q 638 238 626 243 q 657 222 650 232 q 664 196 664 211 q 657 115 664 157 q 643 33 650 72 q 623 -3 640 10 q 583 -17 606 -17 q 372 -19 476 -17 q 160 -22 267 -21 q 113 -22 136 -22 q 67 -19 90 -21 q 16 -1 31 -19 q 1 53 1 18 q 19 96 1 83 q 65 110 38 108 l 64 743 q 15 764 28 744 q 1 817 1 783 q 19 858 1 844 q 63 872 36 871 q 178 874 121 875 q 293 874 235 874 l 571 876 q 619 868 594 876 q 650 832 644 860 q 663 762 657 800 q 669 690 669 724 q 662 668 669 676 q 642 655 654 660 q 618 649 631 650 q 594 647 606 647 q 552 660 561 647 q 538 703 543 674 l 311 697 l 308 551 q 388 556 349 554 q 465 560 426 558 q 488 602 465 592 q 538 613 510 613 q 596 564 590 613 q 600 479 599 522 q 601 394 601 436 q 581 347 601 364 q 532 331 561 331 q 469 381 481 331 q 390 382 429 381 q 311 383 351 383 z "},"F":{"ha":656,"x_min":6,"x_max":638,"o":"m 442 292 q 418 292 436 292 q 381 294 400 293 q 347 297 363 296 q 326 301 331 299 q 325 221 325 261 q 325 140 325 181 l 325 113 q 367 112 344 113 q 409 105 390 111 q 440 84 428 99 q 453 42 453 69 q 427 -6 453 10 q 374 -21 401 -22 l 71 -19 q 20 -1 35 -19 q 6 53 6 18 q 24 96 6 83 q 69 110 42 108 l 68 743 q 19 764 32 744 q 6 817 6 783 q 23 858 6 844 q 67 872 40 871 q 172 875 119 875 q 276 875 224 875 q 407 874 342 875 q 539 874 472 874 q 588 868 564 874 q 618 832 611 863 q 631 762 625 800 q 638 690 638 724 q 630 668 638 676 q 610 655 622 660 q 586 649 599 650 q 563 647 574 647 q 518 661 526 647 q 506 706 510 675 q 412 712 458 708 q 317 715 365 715 l 326 474 l 438 478 q 461 517 439 508 q 510 526 483 526 q 567 478 563 526 q 572 393 571 436 q 574 308 574 350 q 553 261 574 278 q 504 244 532 244 q 442 292 453 244 z "},"G":{"ha":724,"x_min":28,"x_max":678,"o":"m 458 279 q 458 301 458 289 q 446 313 458 313 q 413 308 429 313 q 378 304 396 304 q 326 327 340 304 q 313 385 313 350 q 337 458 313 442 q 413 475 361 475 l 536 475 q 577 474 553 475 q 624 466 601 472 q 662 447 646 460 q 678 411 678 435 l 678 308 q 600 72 678 158 q 368 -14 522 -14 q 206 23 271 -14 q 101 121 140 60 q 44 260 61 182 q 28 422 28 339 q 47 601 28 517 q 111 750 67 686 q 228 852 156 814 q 406 890 300 890 q 474 873 442 890 q 533 832 507 856 q 551 888 533 864 q 606 913 569 913 q 653 887 638 913 q 668 833 668 861 l 665 624 q 666 615 665 619 q 667 606 667 610 q 653 567 665 581 q 622 546 640 553 q 581 538 603 539 q 540 536 560 536 q 488 549 504 536 q 466 582 472 563 q 459 624 460 601 q 452 667 458 647 q 430 699 446 686 q 378 713 414 713 q 330 672 349 713 q 301 578 311 632 q 286 474 290 525 q 282 400 282 422 q 283 334 282 375 q 294 253 285 293 q 324 183 304 213 q 378 154 343 154 q 419 167 403 154 q 443 198 435 179 q 455 238 451 217 q 458 279 458 260 z "},"H":{"ha":732,"x_min":1,"x_max":732,"o":"m 314 104 q 353 42 353 85 q 327 -6 353 10 q 274 -21 301 -22 l 67 -19 q 16 -1 31 -19 q 1 53 1 18 q 21 97 1 85 q 68 110 40 108 l 54 744 q 12 767 22 747 q 1 817 1 788 q 19 858 1 844 q 63 872 36 871 q 168 875 115 875 q 274 875 221 875 q 329 856 306 875 q 353 804 353 838 q 342 772 353 785 q 315 751 332 758 l 311 544 l 422 540 q 422 643 421 592 q 425 746 424 694 q 389 773 397 753 q 381 817 381 793 q 398 858 381 846 q 442 874 415 871 q 547 876 494 876 q 653 876 600 876 q 708 858 685 876 q 732 806 732 839 q 719 769 732 783 q 686 749 706 756 l 676 110 q 717 85 701 103 q 732 42 732 68 q 706 -6 732 10 q 653 -21 681 -21 l 446 -19 q 395 0 410 -19 q 381 54 381 19 q 396 94 381 81 q 436 110 411 107 l 439 363 l 301 358 l 314 104 z "},"I":{"ha":549,"x_min":19,"x_max":531,"o":"m 158 718 q 119 719 142 718 q 78 725 97 719 q 44 743 58 731 q 31 779 31 756 q 49 844 31 825 q 113 863 67 863 l 447 864 q 511 844 492 864 q 531 781 531 825 q 516 747 531 758 q 481 728 501 735 q 438 721 460 722 q 400 718 415 719 l 393 129 q 435 126 411 129 q 479 116 458 124 q 514 94 500 108 q 528 54 528 79 q 510 -6 528 8 q 449 -19 493 -19 l 103 -19 q 40 -5 60 -19 q 19 54 19 10 q 32 92 19 78 q 63 113 44 106 q 104 123 82 121 q 144 125 126 125 l 151 124 l 158 718 z "},"J":{"ha":626,"x_min":7,"x_max":613,"o":"m 306 732 q 247 731 276 731 q 188 732 217 732 q 150 734 169 732 q 114 744 131 736 q 87 765 97 751 q 76 803 76 779 q 97 856 76 844 q 157 868 118 868 l 532 872 q 587 854 561 874 q 613 803 613 835 q 608 770 613 782 q 595 751 604 758 q 573 741 586 744 q 542 735 560 738 q 551 496 546 614 q 557 258 557 378 q 535 130 557 185 q 472 39 513 75 q 375 -15 432 3 q 247 -33 318 -33 q 133 -8 179 -33 q 59 61 88 18 q 19 160 31 104 q 7 275 7 215 q 37 372 7 339 q 133 404 67 404 q 201 385 175 404 q 226 321 226 365 q 225 281 226 311 q 226 217 224 250 q 235 160 228 185 q 260 135 242 135 q 291 147 279 135 q 309 178 303 160 q 318 215 315 196 q 321 249 321 235 q 318 490 321 371 q 306 732 315 610 z "},"K":{"ha":792,"x_min":7,"x_max":781,"o":"m 306 231 l 300 110 q 342 86 325 104 q 358 42 358 68 q 333 -6 358 10 q 279 -21 307 -22 l 72 -19 q 22 0 36 -19 q 7 53 7 19 q 56 108 7 100 l 51 746 q 15 772 24 751 q 7 817 7 792 q 24 858 7 846 q 68 872 42 869 q 135 876 101 875 q 203 876 169 876 q 251 877 224 876 q 302 872 278 878 q 342 851 326 867 q 358 804 358 836 q 344 767 358 782 q 310 746 329 753 l 301 496 l 436 747 q 407 775 414 756 q 400 817 400 794 q 417 858 400 846 q 463 872 435 869 q 529 876 496 875 q 597 876 563 876 q 645 877 618 876 q 696 872 672 878 q 736 851 719 867 q 753 804 753 836 q 737 765 753 781 q 699 744 721 750 q 666 678 690 721 q 613 588 642 635 q 554 499 583 542 q 508 436 525 457 q 619 278 564 358 q 718 111 675 197 q 763 88 744 107 q 781 42 781 69 q 754 -6 781 10 q 700 -21 728 -22 l 493 -19 q 442 0 457 -19 q 428 53 428 19 q 449 97 428 83 l 346 281 l 306 231 z "},"L":{"ha":593,"x_min":7,"x_max":581,"o":"m 443 179 q 448 211 446 196 q 456 238 450 226 q 472 256 461 249 q 504 263 483 263 q 556 252 531 263 q 581 210 581 242 q 574 128 581 169 q 560 49 567 88 q 538 11 556 24 q 496 -1 519 -1 q 313 -3 404 -1 q 129 -7 221 -6 q 76 8 101 -8 q 50 56 50 25 l 49 746 q 15 773 24 753 q 7 817 7 793 q 24 858 7 846 q 68 872 42 869 q 135 876 101 875 q 203 876 169 876 q 251 877 224 876 q 302 872 278 878 q 342 851 326 867 q 358 804 358 836 q 342 765 358 779 q 301 744 325 750 l 306 182 l 443 179 z "},"M":{"ha":992,"x_min":6,"x_max":986,"o":"m 308 107 q 344 83 331 100 q 357 42 357 65 q 331 -6 357 10 q 278 -21 306 -22 l 71 -19 q 20 0 35 -19 q 6 53 6 19 q 23 94 6 81 q 67 110 40 107 l 61 743 q 17 767 29 746 q 6 817 6 788 q 19 851 6 839 q 53 869 33 863 q 94 876 72 875 q 131 878 115 878 q 181 877 156 878 q 231 872 207 876 q 276 854 256 867 q 310 817 296 842 l 500 486 l 693 822 q 727 856 706 844 q 774 872 749 867 q 824 876 799 876 q 872 876 850 876 q 912 874 892 876 q 949 865 932 872 q 976 844 965 858 q 986 804 986 829 q 971 766 986 781 q 935 746 956 751 q 938 526 935 636 q 940 307 940 417 q 936 108 940 208 q 973 83 960 101 q 986 42 986 65 q 960 -6 986 10 q 907 -21 935 -22 l 700 -19 q 649 0 664 -19 q 635 53 635 19 q 651 94 635 81 q 692 110 667 107 l 701 474 q 644 345 672 411 q 579 218 615 279 q 548 192 568 200 q 508 185 528 185 q 459 190 488 185 q 419 217 431 196 l 300 453 l 308 107 z "},"N":{"ha":800,"x_min":8,"x_max":792,"o":"m 297 110 q 343 88 326 104 q 360 42 360 72 q 334 -6 360 10 q 281 -21 308 -22 l 74 -19 q 23 0 38 -19 q 8 53 8 19 q 26 92 8 81 q 68 110 44 104 l 74 743 q 23 763 38 743 q 8 817 8 782 q 23 854 8 842 q 59 872 38 867 q 104 876 81 876 q 146 876 128 876 q 194 876 168 876 q 244 870 219 875 q 291 853 269 865 q 325 818 313 842 l 507 489 l 503 746 q 458 761 475 747 q 440 803 440 775 q 455 856 440 838 q 506 876 469 875 l 713 878 q 766 863 740 878 q 792 815 792 847 q 775 769 792 788 q 732 746 758 751 l 724 114 q 771 95 750 111 q 792 51 792 79 q 777 6 792 21 q 741 -15 763 -8 q 694 -21 719 -21 q 649 -21 669 -21 q 624 -20 636 -21 q 599 -19 611 -19 q 552 6 564 -17 q 528 51 540 28 l 294 465 l 297 110 z "},"O":{"ha":836,"x_min":36,"x_max":801,"o":"m 406 -22 q 215 13 288 -22 q 102 112 142 49 q 49 262 63 175 q 36 451 36 349 q 52 633 36 553 q 110 770 68 714 q 224 856 151 826 q 407 886 296 886 q 595 855 519 886 q 717 765 671 824 q 782 624 763 707 q 801 436 801 540 q 785 238 801 324 q 726 95 769 153 q 605 8 682 38 q 406 -22 528 -22 m 419 719 q 344 689 371 719 q 306 615 318 658 q 291 525 293 572 q 289 443 289 478 q 291 354 289 406 q 307 255 293 303 q 349 174 321 207 q 431 140 378 140 q 503 177 478 140 q 541 265 529 214 q 555 368 553 315 q 557 454 557 421 q 554 536 557 490 q 538 623 551 582 q 497 692 525 664 q 419 719 469 719 z "},"P":{"ha":750,"x_min":-1,"x_max":724,"o":"m 71 -19 q -1 53 -1 -19 q 21 94 -1 82 q 67 111 43 107 l 56 744 q 13 768 26 749 q -1 817 -1 788 q 10 850 -1 838 q 38 868 21 863 q 74 875 54 874 q 108 876 93 876 q 187 879 149 876 q 265 882 225 882 q 321 881 293 882 q 376 881 349 881 q 512 858 449 881 q 622 792 575 835 q 697 690 669 750 q 724 556 724 629 q 709 436 724 497 q 663 325 694 375 q 583 243 632 275 q 468 211 535 211 q 383 224 424 211 q 301 250 342 236 l 303 108 q 357 42 357 96 q 331 -6 357 10 q 278 -21 306 -22 l 71 -19 m 301 426 q 356 397 322 411 q 417 382 390 382 q 458 401 444 382 q 476 446 471 419 q 482 501 482 472 q 482 547 482 529 q 479 603 482 575 q 467 654 476 631 q 437 692 457 678 q 381 707 417 707 q 299 696 340 707 l 301 426 z "},"Q":{"ha":836,"x_min":36,"x_max":801,"o":"m 342 -19 q 175 34 236 -7 q 83 138 114 75 q 44 280 53 200 q 36 451 36 360 q 51 638 36 557 q 106 774 65 719 q 219 858 147 829 q 407 886 292 886 q 600 856 524 886 q 721 769 676 826 q 783 628 765 713 q 801 436 801 544 q 797 298 801 360 q 772 186 793 236 q 708 97 751 136 q 589 24 665 57 q 610 14 596 21 q 640 -3 625 7 q 665 -22 654 -12 q 675 -42 675 -32 q 664 -76 675 -58 q 637 -107 653 -93 q 602 -130 621 -121 q 567 -139 583 -139 q 519 -124 550 -139 q 453 -90 488 -110 q 389 -50 419 -69 q 342 -19 358 -31 m 419 719 q 344 690 371 719 q 306 617 318 660 q 291 526 293 574 q 289 444 289 479 q 291 355 289 407 q 306 255 293 303 q 349 174 319 207 q 431 140 378 140 q 503 177 478 140 q 541 264 529 214 q 555 367 553 314 q 557 451 557 419 q 554 534 557 488 q 538 622 551 581 q 497 691 525 663 q 419 719 469 719 z "},"R":{"ha":781,"x_min":-8,"x_max":774,"o":"m 64 -19 q -8 53 -8 -19 q 11 93 -8 81 q 54 110 31 106 l 44 746 q 4 770 17 751 q -8 817 -8 789 q 8 854 -8 842 q 46 872 24 867 q 92 876 68 876 q 133 876 117 876 q 153 878 144 876 q 174 879 163 879 q 222 876 197 879 q 272 874 247 874 q 426 858 349 874 q 567 805 504 842 q 671 707 631 768 q 711 556 711 646 q 701 456 711 506 q 668 365 690 407 q 610 292 646 324 q 521 247 574 261 l 689 113 q 748 95 722 113 q 774 42 774 78 q 763 8 774 21 q 735 -12 751 -6 q 697 -22 718 -19 q 654 -24 675 -24 q 486 -19 569 -24 q 435 -1 450 -19 q 421 53 421 18 q 444 99 421 85 q 418 134 438 108 q 376 187 399 160 q 331 235 353 214 q 299 256 310 256 q 290 248 292 256 q 289 235 289 240 q 290 172 289 203 q 290 110 292 142 q 334 87 318 103 q 350 42 350 71 q 324 -6 350 10 q 271 -21 299 -22 l 64 -19 m 289 426 q 344 397 311 411 q 406 382 378 382 q 447 401 433 382 q 465 446 460 419 q 469 501 469 472 q 469 547 469 529 q 467 603 469 575 q 455 654 465 631 q 425 692 444 678 q 369 707 406 707 q 288 696 329 707 l 289 426 z "},"S":{"ha":740,"x_min":25,"x_max":719,"o":"m 375 -12 q 253 7 315 -12 q 141 63 192 26 q 58 153 90 100 q 25 272 25 206 q 56 340 25 315 q 128 364 88 364 q 197 349 172 364 q 235 313 221 335 q 257 267 249 292 q 278 220 265 242 q 313 184 290 199 q 378 169 336 169 q 414 173 394 169 q 449 185 433 176 q 476 207 465 193 q 488 242 488 221 q 454 285 488 265 q 372 327 421 306 q 265 375 322 349 q 158 438 207 401 q 75 522 108 474 q 42 635 42 569 q 72 747 42 700 q 151 822 103 793 q 259 865 200 851 q 374 879 318 879 q 476 858 425 879 q 569 807 528 838 q 572 845 569 826 q 581 878 574 864 q 603 903 589 893 q 642 913 617 913 q 690 887 674 913 q 704 833 706 861 q 699 721 701 776 q 692 608 696 665 q 681 573 690 588 q 656 549 671 558 q 622 536 640 540 q 585 532 604 532 q 526 546 546 532 q 497 580 507 560 q 481 624 486 600 q 467 667 476 647 q 440 701 458 688 q 385 715 422 715 q 315 693 343 715 q 286 626 286 671 q 318 578 286 600 q 399 536 350 557 q 503 490 447 515 q 607 432 558 465 q 688 353 656 399 q 719 244 719 307 q 687 129 719 178 q 604 49 654 81 q 493 3 554 18 q 375 -12 432 -12 z "},"T":{"ha":668,"x_min":-1,"x_max":676,"o":"m 203 686 q 192 694 203 693 q 176 694 181 694 q 154 694 165 694 q 132 692 143 693 q 119 647 126 661 q 75 633 111 633 q 51 635 64 633 q 26 641 38 636 q 6 655 14 646 q -1 678 -1 664 q 4 728 -1 703 q 13 778 10 754 q 19 818 15 803 q 32 842 22 833 q 58 856 42 851 q 99 860 74 860 l 579 861 q 626 853 603 861 q 656 818 650 846 q 669 748 663 785 q 676 678 676 711 q 669 655 676 664 q 650 641 661 646 q 625 635 639 636 q 600 633 611 633 q 556 648 564 633 q 543 693 549 663 q 510 697 526 694 q 476 700 493 700 q 467 699 474 700 q 461 694 461 699 l 460 107 q 511 42 511 94 q 485 -6 511 10 q 432 -21 460 -22 l 225 -19 q 153 53 153 -19 q 169 89 153 76 q 206 107 185 101 l 203 686 z "},"U":{"ha":821,"x_min":7,"x_max":807,"o":"m 658 -14 q 599 7 629 -14 q 560 58 568 28 q 559 75 558 67 q 558 92 560 83 q 554 88 556 92 q 551 83 553 85 q 474 8 521 31 q 364 -15 426 -15 q 135 69 217 -15 q 53 300 53 153 q 56 522 53 411 q 60 744 58 632 q 17 768 28 747 q 7 817 7 789 q 24 858 7 846 q 68 872 42 871 q 174 876 121 876 q 279 875 226 875 q 335 856 311 875 q 358 804 358 838 q 348 771 358 785 q 321 750 338 757 q 316 537 319 643 q 313 324 313 431 q 316 281 313 306 q 328 233 319 256 q 353 193 338 210 q 393 176 369 176 q 435 190 414 176 q 474 225 457 204 q 501 270 490 246 q 513 314 513 294 l 522 744 q 471 763 486 744 q 456 817 456 782 q 473 858 456 846 q 517 874 490 871 q 622 876 569 876 q 728 876 675 876 q 783 858 760 876 q 807 806 807 839 q 797 772 807 786 q 769 751 786 758 l 768 93 q 658 -14 768 -14 z "},"V":{"ha":853,"x_min":6,"x_max":838,"o":"m 421 196 q 425 199 425 194 q 440 244 435 219 q 449 290 444 268 q 478 461 465 376 q 510 632 492 546 q 522 689 517 660 q 533 746 526 718 q 496 772 506 751 q 486 817 486 792 q 499 851 486 839 q 532 870 513 864 q 573 878 551 876 q 610 879 594 879 q 647 878 629 879 q 683 876 664 876 q 731 877 704 876 q 782 872 758 878 q 822 852 806 867 q 838 806 838 838 q 822 767 838 782 q 785 746 806 751 q 708 515 749 629 q 626 286 667 401 q 607 227 618 261 q 583 158 596 193 q 558 90 571 122 q 535 36 546 57 q 509 2 524 14 q 476 -16 494 -10 q 438 -24 458 -22 q 396 -25 418 -25 q 323 -17 353 -25 q 271 31 293 -10 q 250 82 261 50 q 228 149 239 114 q 208 219 217 185 q 192 275 199 253 q 121 510 156 393 q 56 744 86 626 q 16 769 26 749 q 6 817 6 790 q 20 851 6 839 q 56 869 35 864 q 99 876 76 875 q 138 878 122 878 q 176 877 157 878 q 214 876 194 876 q 262 877 235 876 q 313 872 289 878 q 352 851 336 865 q 368 804 368 836 q 353 766 368 781 q 315 747 338 751 q 355 531 336 639 q 394 315 374 424 q 403 269 399 292 q 414 224 408 247 q 417 210 415 217 q 421 196 418 203 z "},"W":{"ha":1079,"x_min":6,"x_max":1067,"o":"m 399 340 q 407 397 399 356 q 425 486 415 439 q 445 576 435 533 q 460 635 456 618 q 499 678 469 664 q 557 693 528 693 q 622 676 592 693 q 660 624 651 660 q 676 515 672 575 q 688 403 681 454 q 690 390 688 400 q 694 370 692 381 q 698 351 696 360 q 703 343 700 343 q 710 355 706 343 q 717 383 714 367 q 724 413 721 399 q 728 431 726 426 q 756 588 743 510 q 783 744 768 665 q 731 764 747 744 q 715 817 715 783 q 728 851 715 839 q 761 870 742 864 q 802 878 781 876 q 839 879 824 879 q 876 878 858 879 q 913 876 894 876 q 960 877 933 876 q 1011 872 988 878 q 1051 852 1035 867 q 1067 806 1067 838 q 1050 765 1067 781 q 1010 744 1033 750 l 811 29 q 792 3 807 13 q 760 -11 778 -7 q 723 -16 742 -15 q 690 -17 704 -17 q 645 -7 667 -17 q 614 26 624 3 q 604 60 607 42 q 599 93 601 78 q 578 187 588 139 q 550 279 568 235 q 547 289 550 282 q 540 296 543 296 q 533 289 536 296 q 529 279 531 282 q 513 217 519 250 q 503 151 507 185 q 494 87 499 118 q 482 31 490 56 q 435 -15 469 -6 q 367 -24 400 -24 q 315 -13 344 -24 q 274 19 285 -3 q 255 66 265 36 q 235 129 244 96 q 217 194 225 163 q 203 244 208 225 q 129 493 165 369 q 63 743 93 617 q 18 767 31 746 q 6 817 6 788 q 20 851 6 839 q 56 869 35 864 q 99 876 76 875 q 139 878 122 878 q 176 877 158 878 q 214 876 194 876 q 262 877 235 876 q 313 872 289 878 q 352 851 336 865 q 368 804 368 836 q 347 761 368 776 q 301 743 326 746 l 399 340 z "},"X":{"ha":818,"x_min":6,"x_max":783,"o":"m 317 111 q 368 44 368 99 q 342 -3 368 13 q 289 -18 317 -18 l 71 -17 q 20 3 35 -17 q 6 57 6 24 q 30 99 6 86 q 78 114 54 111 q 120 196 97 153 q 168 283 143 239 q 218 369 193 326 q 265 449 243 411 q 221 525 244 489 q 174 597 197 561 q 126 668 150 632 q 78 743 101 704 q 26 763 42 743 q 10 817 10 782 q 24 851 10 839 q 60 869 39 864 q 103 876 81 875 q 142 878 126 878 q 180 877 161 878 q 218 876 199 876 q 266 877 239 876 q 317 872 293 878 q 356 851 340 865 q 372 804 372 836 q 362 772 372 785 q 335 751 351 758 l 418 603 l 478 746 q 440 772 450 751 q 431 817 431 792 q 444 851 431 839 q 476 870 457 864 q 517 878 496 876 q 556 879 539 879 q 597 878 576 879 q 638 876 617 878 q 684 876 658 876 q 731 871 710 876 q 768 851 753 865 q 783 806 783 836 q 760 760 783 775 q 710 743 736 744 q 625 583 669 661 q 536 426 581 506 q 631 269 583 347 q 721 110 679 192 q 768 46 768 96 q 742 -2 768 14 q 689 -17 717 -18 l 482 -15 q 431 4 446 -15 q 417 57 417 24 q 428 89 417 76 q 457 108 439 101 l 375 294 l 317 111 z "},"Y":{"ha":792,"x_min":-6,"x_max":790,"o":"m 308 -19 q 236 53 236 -19 q 250 88 236 75 q 283 106 264 100 q 281 217 279 161 q 281 328 283 272 q 169 533 224 431 q 68 743 115 636 q 11 760 28 743 q -6 817 -6 778 q 9 851 -6 839 q 44 869 24 864 q 88 876 65 875 q 126 878 111 878 q 165 877 146 878 q 203 876 183 876 q 251 877 224 876 q 301 872 278 878 q 341 851 325 865 q 357 804 357 836 q 344 769 357 783 q 314 749 332 756 l 422 519 l 501 753 q 481 781 486 764 q 475 817 475 799 q 488 851 475 839 q 521 870 501 864 q 562 878 540 876 q 599 879 583 879 q 635 878 618 879 q 672 876 653 876 q 717 876 696 876 q 754 870 738 876 q 781 849 771 864 q 790 803 790 833 q 770 757 790 772 q 722 743 750 742 q 624 542 671 643 q 529 342 578 442 l 529 111 q 576 90 558 106 q 594 42 594 74 q 569 -6 594 10 q 515 -21 543 -22 l 308 -19 z "},"Z":{"ha":726,"x_min":31,"x_max":704,"o":"m 567 175 q 585 222 572 207 q 635 238 599 238 q 681 225 658 238 q 704 185 704 213 q 697 133 704 161 q 685 79 689 104 q 665 13 679 38 q 600 -11 650 -11 q 415 -9 507 -11 q 231 -7 324 -7 q 172 -8 207 -7 q 106 -1 138 -8 q 53 24 75 6 q 31 79 31 42 q 40 141 31 111 q 67 197 50 171 l 385 689 q 280 690 332 690 q 175 692 228 689 q 170 662 172 675 q 163 640 168 649 q 147 627 157 632 q 117 622 136 622 q 93 624 107 622 q 68 630 79 625 q 49 643 57 635 q 40 665 40 651 q 47 736 40 697 q 60 807 53 775 q 92 847 67 835 q 143 861 118 860 l 582 868 q 635 854 610 869 q 661 807 661 839 l 661 718 q 640 670 661 710 q 585 576 618 631 q 513 458 553 521 q 437 337 474 394 q 372 235 400 279 q 332 175 343 192 l 567 175 z "},"[":{"ha":446,"x_min":83,"x_max":421,"o":"m 263 781 q 269 431 263 604 q 275 79 275 257 q 340 80 313 79 q 386 71 368 81 q 413 39 404 61 q 421 -29 421 17 q 394 -76 421 -61 q 340 -90 368 -90 l 150 -90 q 110 -76 122 -90 q 92 -36 97 -61 q 90 -28 90 -33 q 90 117 89 44 q 89 263 90 189 q 85 567 86 415 q 83 874 83 719 q 143 935 83 935 l 335 935 q 367 926 351 935 q 393 905 382 918 q 410 876 404 892 q 417 843 417 860 q 354 781 417 781 q 308 782 331 781 q 263 781 286 783 z "},"\\":{"ha":654,"x_min":60,"x_max":568,"o":"m 442 -79 q 412 -78 424 -79 q 391 -73 400 -78 q 374 -58 382 -68 q 353 -32 365 -49 q 335 13 350 -28 q 300 118 321 54 q 253 262 279 182 q 200 426 226 342 q 148 590 174 510 q 103 734 122 669 q 72 840 83 799 q 60 886 60 881 q 74 917 60 904 q 107 938 88 929 q 147 949 126 946 q 181 953 167 953 q 211 951 200 953 q 231 945 222 950 q 247 932 239 940 q 265 910 254 924 q 281 867 268 907 q 316 765 294 828 q 364 622 338 701 q 418 458 390 542 q 472 292 446 374 q 519 145 499 211 q 553 35 540 79 q 568 -17 567 -8 l 568 -18 q 554 -51 568 -39 q 521 -70 540 -64 q 479 -78 501 -76 q 442 -79 457 -79 z "},"]":{"ha":428,"x_min":42,"x_max":379,"o":"m 185 782 q 140 780 164 782 q 94 781 115 778 q 58 799 72 785 q 44 843 44 813 q 51 876 44 860 q 68 905 57 892 q 94 926 79 918 q 126 935 110 935 l 318 935 q 379 874 379 935 q 377 424 379 647 q 372 -26 375 200 l 371 -32 q 353 -75 365 -60 q 311 -90 342 -90 l 122 -90 q 69 -75 97 -90 q 42 -31 42 -60 q 44 5 42 -14 q 52 40 46 24 q 72 68 58 57 q 106 79 85 79 l 186 79 q 192 431 186 257 q 199 781 199 604 l 185 782 z "},"^":{"ha":533,"x_min":78,"x_max":475,"o":"m 269 856 q 251 814 264 843 q 222 756 238 785 q 190 703 207 726 q 160 681 174 681 q 133 686 147 681 q 106 701 118 692 q 86 722 94 710 q 78 749 78 735 q 81 765 78 757 q 88 781 85 774 l 179 958 q 220 991 193 983 q 271 999 247 999 q 317 990 296 999 q 353 963 338 982 q 381 925 361 953 q 422 866 401 897 q 459 807 443 835 q 475 768 475 779 q 464 740 475 753 q 437 717 453 726 q 403 701 421 707 q 372 696 386 696 q 344 717 360 696 q 314 765 329 738 q 287 818 299 792 q 269 856 275 844 z "},"_":{"ha":606,"x_min":32,"x_max":583,"o":"m 583 -69 q 558 -119 583 -101 q 503 -136 532 -136 l 111 -135 q 58 -120 85 -135 q 32 -75 32 -106 l 32 -51 q 55 1 32 -17 q 111 18 78 19 l 504 13 q 558 -1 532 13 q 583 -47 583 -15 l 583 -69 z "},"`":{"ha":364,"x_min":67,"x_max":321,"o":"m 321 928 q 311 903 321 913 q 287 887 301 893 q 257 878 272 881 q 231 876 242 876 q 183 894 211 876 q 128 935 154 911 q 85 987 103 960 q 67 1033 67 1014 q 80 1063 67 1051 q 111 1079 93 1074 q 149 1087 129 1085 q 181 1089 168 1089 q 250 1053 222 1089 q 267 1027 256 1044 q 291 990 279 1010 q 312 953 303 971 q 321 928 321 936 z "},"a":{"ha":688,"x_min":19,"x_max":688,"o":"m 611 -21 q 556 -21 583 -21 q 501 -19 529 -21 q 451 -1 465 -19 q 436 53 436 18 l 438 64 q 360 3 401 29 q 267 -22 318 -22 q 88 39 156 -22 q 19 214 19 100 q 57 349 19 296 q 153 433 94 401 q 281 480 211 465 q 417 501 351 494 q 417 515 417 508 q 418 528 418 521 q 414 579 418 553 q 399 627 410 606 q 369 663 389 649 q 318 676 350 676 q 256 660 286 676 q 200 625 225 644 q 200 579 201 603 q 190 538 199 556 q 165 508 182 519 q 117 496 147 496 q 70 508 89 496 q 51 551 51 519 q 51 589 51 568 q 51 632 50 610 q 56 674 53 654 q 68 707 60 693 q 118 766 89 742 q 182 806 147 790 q 255 829 217 822 q 332 836 293 836 q 441 821 389 836 q 533 774 493 806 q 599 697 574 743 q 625 589 624 650 l 638 110 q 674 84 661 103 q 688 40 688 65 q 663 -6 688 8 q 611 -21 639 -21 m 425 394 q 395 386 411 388 q 364 382 379 385 q 233 217 233 350 q 235 184 233 201 q 244 153 238 167 q 264 130 251 139 q 296 121 276 121 q 333 129 311 121 q 376 151 356 138 q 410 181 396 164 q 425 217 425 199 l 425 394 z "},"b":{"ha":733,"x_min":8,"x_max":704,"o":"m 294 826 q 349 833 322 832 q 403 835 375 835 q 547 799 489 835 q 640 704 604 763 q 690 574 675 646 q 704 428 704 501 q 692 246 704 328 q 649 106 681 164 q 560 17 617 49 q 413 -14 503 -14 q 338 6 372 -14 q 281 56 304 25 q 260 -3 278 17 q 199 -21 243 -22 l 90 -19 q 40 -1 54 -19 q 25 53 25 18 q 38 91 25 76 q 75 108 51 106 l 74 897 q 23 916 38 897 q 8 969 8 935 q 19 1001 8 989 q 46 1020 29 1014 q 83 1028 63 1026 q 124 1031 103 1031 q 156 1030 140 1031 q 183 1029 172 1029 q 223 1024 203 1029 q 259 1006 243 1018 q 285 978 275 994 q 296 939 296 961 q 295 883 296 911 q 294 826 294 854 m 290 203 q 302 178 290 189 q 330 158 314 167 q 363 146 346 150 q 392 142 381 142 q 435 162 417 142 q 465 217 453 182 q 482 299 476 251 q 488 400 488 346 q 482 506 488 454 q 462 597 476 557 q 420 660 447 636 q 349 683 393 683 q 322 681 335 683 q 294 678 308 679 q 293 440 296 558 q 290 203 290 322 z "},"c":{"ha":621,"x_min":31,"x_max":601,"o":"m 351 131 q 384 148 371 131 q 406 190 397 165 q 419 238 415 214 q 424 276 424 263 q 449 335 424 313 q 511 358 475 358 q 575 347 549 358 q 601 290 601 335 q 585 172 601 229 q 534 72 568 115 q 450 2 500 28 q 333 -24 400 -24 q 185 13 243 -24 q 92 109 126 50 q 44 243 57 168 q 31 393 31 318 q 44 546 31 467 q 92 690 58 625 q 185 799 126 756 q 335 842 244 842 q 426 826 381 842 q 508 781 471 810 q 569 712 544 751 q 597 625 593 672 q 601 563 600 593 q 601 500 601 532 q 583 456 601 468 q 536 443 564 443 q 504 449 521 443 q 474 465 488 454 q 451 490 460 475 q 442 521 442 504 l 442 564 q 442 588 442 576 q 443 613 443 600 q 411 653 429 636 q 364 671 393 671 q 305 643 326 671 q 272 576 283 615 q 256 495 260 536 q 253 426 253 454 q 253 383 253 411 q 258 322 254 354 q 267 255 261 289 q 285 193 274 221 q 313 148 296 165 q 351 131 329 131 z "},"d":{"ha":697,"x_min":22,"x_max":697,"o":"m 617 -21 q 562 -21 589 -21 q 507 -19 535 -21 q 470 -12 483 -19 q 451 6 457 -6 q 444 34 444 18 q 443 68 443 50 q 387 19 419 38 q 314 0 354 0 q 172 38 228 0 q 82 134 115 75 q 35 266 49 193 q 22 410 22 339 q 37 558 22 482 q 86 694 51 633 q 178 795 121 756 q 322 835 236 835 q 376 830 350 835 q 431 825 403 825 q 428 860 429 843 q 428 897 428 878 q 380 918 393 899 q 367 969 367 938 q 377 1001 367 989 q 404 1020 388 1014 q 442 1028 421 1026 q 483 1031 463 1031 q 516 1030 500 1031 q 543 1029 532 1029 q 616 1006 582 1029 q 650 939 650 982 l 650 107 q 697 42 697 89 q 671 -6 697 10 q 617 -21 644 -21 m 435 217 q 433 415 435 317 q 431 611 431 513 l 431 678 q 403 681 417 679 q 376 683 390 683 q 306 648 333 683 q 264 564 279 613 q 243 465 249 515 q 238 382 238 414 q 243 325 238 363 q 260 250 249 288 q 290 184 271 213 q 333 156 308 156 q 362 160 344 156 q 395 172 379 164 q 423 192 411 181 q 435 217 435 203 z "},"e":{"ha":650,"x_min":31,"x_max":628,"o":"m 235 379 q 231 365 232 372 q 231 351 231 358 q 238 290 231 328 q 260 217 246 253 q 298 156 275 182 q 351 131 321 131 q 388 139 369 131 q 419 160 406 147 q 442 192 433 174 q 451 228 451 210 q 454 269 451 249 q 465 306 457 289 q 490 332 474 322 q 531 342 506 342 q 601 323 574 342 q 628 256 628 304 q 606 140 628 192 q 544 51 583 88 q 450 -4 504 15 q 333 -24 396 -24 q 178 17 238 -24 q 86 124 119 58 q 42 269 53 189 q 31 425 31 349 q 42 579 31 504 q 88 713 54 654 q 181 806 121 771 q 335 842 240 842 q 436 822 386 842 q 525 769 486 803 q 588 690 564 736 q 613 589 613 643 q 583 485 613 526 q 509 419 554 444 q 409 384 464 394 q 303 374 354 374 q 268 375 285 374 q 235 379 251 376 m 228 513 q 290 499 256 499 q 333 504 311 499 q 373 521 356 510 q 402 549 390 532 q 414 590 414 567 q 397 645 414 619 q 347 671 379 671 q 294 656 317 671 q 258 617 272 640 q 235 567 243 594 q 228 513 228 539 z "},"f":{"ha":574,"x_min":13,"x_max":560,"o":"m 128 478 q 77 478 99 478 q 41 487 56 479 q 19 512 26 494 q 13 564 13 529 q 20 615 13 597 q 42 642 28 633 q 79 651 57 650 q 129 651 101 651 l 143 651 q 69 722 100 678 q 39 818 39 767 q 64 914 39 875 q 128 978 89 953 q 217 1014 168 1003 q 314 1025 265 1025 q 385 1015 350 1025 q 450 985 419 1004 q 503 939 481 967 q 539 875 526 911 q 547 844 543 865 q 553 801 550 824 q 558 758 556 779 q 560 726 560 738 q 551 706 560 714 q 531 694 543 699 q 506 689 519 690 q 483 688 493 688 q 449 694 464 688 q 431 721 435 700 q 422 771 426 746 q 414 819 418 796 q 376 849 397 838 q 331 861 354 861 q 304 853 318 861 q 278 831 290 844 q 260 803 267 818 q 253 776 253 789 q 270 733 253 754 q 311 696 288 713 q 362 667 335 679 q 407 653 389 656 q 449 643 432 647 q 475 631 465 639 q 489 606 485 622 q 493 563 493 590 q 482 517 493 533 q 453 491 471 500 q 414 480 436 482 q 368 478 392 478 l 342 478 q 342 296 342 386 q 343 114 343 206 q 378 110 361 113 q 410 99 396 107 q 432 77 424 90 q 440 42 440 64 q 415 -6 440 10 q 361 -21 389 -22 l 154 -19 q 82 53 82 -19 q 96 88 82 75 q 129 106 110 100 q 128 292 129 200 q 128 478 128 385 z "},"g":{"ha":731,"x_min":31,"x_max":721,"o":"m 196 8 q 236 -7 219 8 q 270 -41 253 -22 q 308 -75 288 -60 q 358 -90 328 -90 q 410 -72 392 -90 q 439 -26 429 -53 q 451 32 449 1 q 454 88 454 63 q 398 47 432 60 q 329 33 364 33 q 194 65 250 33 q 101 148 138 96 q 47 266 64 200 q 31 403 31 332 q 46 544 31 469 q 96 681 61 618 q 185 784 131 743 q 321 825 240 825 q 402 803 363 825 q 463 744 442 782 q 472 795 464 776 q 494 824 479 814 q 530 836 508 833 q 582 839 551 839 q 627 838 603 839 q 672 831 651 838 q 707 810 693 825 q 721 765 721 794 q 702 724 721 739 q 660 704 683 708 l 653 -4 q 627 -110 653 -65 q 560 -187 601 -156 q 467 -233 519 -218 q 360 -249 415 -249 q 209 -213 281 -249 q 101 -104 138 -178 q 96 -81 96 -94 q 105 -44 96 -61 q 128 -16 114 -28 q 160 2 142 -4 q 196 8 178 8 m 244 396 q 249 332 244 369 q 264 260 253 294 q 297 200 275 225 q 354 175 319 175 q 378 177 363 175 q 408 184 393 179 q 433 197 422 189 q 444 217 444 206 q 449 406 444 313 q 454 596 454 500 q 444 625 454 611 q 421 651 435 639 q 391 669 407 663 q 361 676 375 676 q 305 642 328 676 q 269 561 282 607 q 250 468 256 515 q 244 396 244 421 z "},"h":{"ha":710,"x_min":29,"x_max":696,"o":"m 350 682 q 335 680 344 682 q 315 674 325 678 q 297 665 304 671 q 289 653 289 660 l 286 113 q 329 91 317 108 q 342 44 342 74 q 329 -3 342 17 q 286 -21 317 -22 l 81 -19 q 41 1 53 -19 q 29 44 29 21 q 67 103 29 85 l 67 900 q 36 928 43 908 q 29 969 29 947 q 42 1005 29 993 q 73 1023 54 1017 q 113 1030 92 1029 q 150 1031 133 1031 q 197 1029 172 1031 q 242 1019 221 1028 q 276 994 263 1011 q 289 947 289 978 q 288 899 289 924 q 286 850 286 874 q 286 841 286 849 q 287 825 286 833 q 289 810 288 817 q 294 804 290 804 q 315 809 303 804 q 342 819 326 814 q 373 828 357 824 q 406 833 389 833 q 531 799 482 833 q 606 713 579 765 q 644 595 633 660 q 654 469 654 531 q 654 289 654 378 q 651 110 654 200 q 686 85 676 103 q 696 44 696 68 q 684 -3 696 17 q 640 -21 672 -22 l 435 -19 q 395 1 407 -19 q 383 44 383 21 q 397 83 383 68 q 431 106 410 99 q 435 267 432 188 q 439 428 439 347 q 437 492 439 450 q 426 577 435 535 q 400 651 418 619 q 350 682 382 682 z "},"i":{"ha":342,"x_min":14,"x_max":326,"o":"m 50 906 q 62 954 50 935 q 93 985 74 974 q 136 1003 113 997 q 185 1008 160 1008 q 231 1002 208 1008 q 272 983 254 996 q 302 950 290 969 q 314 906 314 931 q 301 860 314 879 q 270 831 289 842 q 228 815 251 819 q 182 810 204 810 q 136 815 160 810 q 94 831 113 819 q 63 861 75 843 q 50 906 50 879 m 161 -21 q 112 -23 138 -21 q 64 -21 86 -25 q 28 -3 42 -17 q 14 44 14 11 q 28 86 14 71 q 67 108 43 101 l 74 668 q 35 693 44 674 q 25 739 25 713 q 38 773 25 761 q 67 791 50 785 q 105 799 85 797 q 140 800 125 800 q 190 799 163 800 q 240 792 217 799 q 278 769 263 785 q 293 721 293 753 l 285 110 q 317 85 308 103 q 326 44 326 68 q 315 -2 326 17 q 271 -21 303 -21 l 161 -21 z "},"j":{"ha":343,"x_min":-56,"x_max":311,"o":"m 47 921 q 60 965 47 947 q 92 993 72 982 q 134 1009 111 1004 q 179 1014 157 1014 q 224 1009 200 1014 q 267 993 247 1004 q 299 964 286 982 q 311 921 311 946 q 299 876 311 894 q 267 846 286 857 q 225 830 249 835 q 179 825 201 825 q 133 830 157 825 q 91 847 110 835 q 60 876 72 858 q 47 921 47 894 m 307 736 q 305 558 307 647 q 303 381 303 469 q 303 261 303 322 q 299 141 304 200 q 280 28 294 82 q 234 -67 265 -25 q 152 -136 203 -108 q 24 -172 101 -164 l 17 -172 q -40 -149 -25 -172 q -56 -87 -56 -125 q -49 -63 -56 -74 q -33 -46 -43 -53 q -10 -33 -22 -39 q 11 -22 1 -28 q 51 11 36 -10 q 73 57 65 32 q 82 109 81 82 q 83 161 83 136 l 83 400 q 82 542 83 471 q 81 683 81 613 q 43 709 53 689 q 33 754 33 729 q 46 788 33 776 q 76 806 58 800 q 115 814 94 813 q 151 815 136 815 q 199 814 172 815 q 249 805 225 813 q 290 781 274 797 q 307 736 307 765 z "},"k":{"ha":758,"x_min":7,"x_max":753,"o":"m 293 242 l 293 236 q 295 173 293 204 q 299 111 297 142 q 342 86 325 104 q 358 42 358 68 q 333 -6 358 10 q 279 -21 307 -22 l 72 -19 q 22 0 36 -19 q 7 53 7 19 q 53 108 7 100 l 49 900 q 16 926 24 907 q 8 969 8 946 q 28 1010 8 997 q 75 1028 47 1024 q 133 1031 103 1032 q 183 1029 163 1029 q 218 1026 200 1029 q 252 1014 236 1022 q 278 992 268 1006 q 288 957 288 978 l 282 514 l 404 700 q 383 728 388 711 q 378 764 378 746 q 401 806 378 793 q 455 823 424 819 q 519 825 486 826 q 574 824 553 824 q 622 824 597 824 q 668 820 647 825 q 703 800 689 815 q 717 751 717 785 q 697 705 717 721 q 649 689 676 689 l 482 488 q 589 301 535 394 q 692 113 643 208 q 738 95 724 113 q 753 47 753 78 q 739 -1 753 19 q 694 -21 725 -22 l 488 -19 q 442 -1 451 -19 q 432 50 432 18 q 437 81 432 65 q 457 103 442 96 l 368 343 l 293 242 z "},"l":{"ha":378,"x_min":11,"x_max":364,"o":"m 51 900 q 19 926 26 907 q 11 969 11 946 q 27 1008 11 996 q 66 1026 43 1021 q 114 1030 89 1031 q 157 1029 139 1029 q 192 1027 172 1029 q 231 1018 213 1025 q 260 999 249 1011 q 272 965 272 986 q 274 581 272 771 q 276 196 276 390 q 290 141 276 153 q 320 125 304 129 q 350 112 336 121 q 364 64 364 103 q 342 -21 364 6 q 258 -47 319 -47 q 148 -33 189 -47 q 86 13 107 -18 q 59 89 65 43 q 53 197 53 135 l 51 900 z "},"m":{"ha":1010,"x_min":11,"x_max":1000,"o":"m 615 621 q 618 513 615 567 q 621 406 621 458 q 619 256 621 331 q 617 107 618 182 q 646 80 636 99 q 656 42 656 61 q 638 -4 656 14 q 592 -21 619 -22 l 425 -19 q 383 3 393 -19 q 372 53 372 25 q 379 84 372 69 q 401 106 386 99 q 405 315 403 211 q 407 525 407 419 q 406 563 407 539 q 399 612 404 588 q 383 653 394 636 q 351 671 372 671 q 306 653 329 671 q 282 613 282 636 l 281 110 q 318 85 304 104 q 332 42 332 65 q 310 -5 332 13 q 261 -21 289 -22 l 78 -19 q 31 1 43 -19 q 19 53 19 22 q 61 108 19 99 l 61 701 q 21 726 31 706 q 11 774 11 746 q 21 806 11 794 q 47 824 31 818 q 82 833 63 831 q 119 835 101 835 q 168 833 142 835 q 218 824 194 832 q 258 801 242 817 q 276 756 275 785 q 333 810 296 788 q 408 833 371 833 q 504 811 463 833 q 569 739 546 789 q 640 806 599 779 q 733 833 682 833 q 857 797 813 833 q 923 706 901 761 q 949 583 944 650 q 954 457 954 517 l 954 111 q 990 89 981 107 q 1000 47 1000 71 q 985 -1 1000 19 q 940 -21 969 -22 l 757 -19 q 710 1 721 -19 q 699 53 699 22 q 744 108 699 103 l 744 440 q 744 499 744 460 q 736 580 743 539 q 715 651 729 621 q 672 682 700 682 q 632 662 649 682 q 615 621 615 642 z "},"n":{"ha":707,"x_min":17,"x_max":706,"o":"m 365 682 q 338 673 353 682 q 313 651 324 664 q 294 624 301 639 q 286 596 286 608 l 283 111 q 324 86 310 106 q 338 42 338 67 q 316 -5 338 13 q 267 -21 294 -22 l 83 -19 q 37 1 49 -19 q 25 53 25 22 q 35 88 25 74 q 64 107 44 103 l 64 701 q 26 726 36 707 q 17 774 17 746 q 36 814 17 801 q 83 831 56 826 q 141 833 111 835 q 192 832 171 832 q 220 826 206 832 q 247 810 235 819 q 268 787 260 800 q 278 760 276 774 q 339 815 297 797 q 421 833 381 833 q 549 798 503 833 q 617 707 594 763 q 646 585 640 651 q 651 457 651 519 l 651 111 q 691 85 676 104 q 706 42 706 67 q 684 -5 706 13 q 635 -21 663 -22 l 450 -19 q 403 1 415 -19 q 392 53 392 22 q 403 91 392 76 q 438 108 414 106 l 438 428 q 437 488 438 446 q 429 574 436 531 q 408 649 422 617 q 365 682 393 682 z "},"o":{"ha":776,"x_min":32,"x_max":744,"o":"m 375 -11 q 199 27 267 -11 q 94 128 132 65 q 44 269 57 190 q 32 431 32 349 q 49 589 32 514 q 105 719 65 664 q 213 808 144 775 q 382 840 281 840 q 562 808 492 840 q 673 718 632 775 q 729 583 714 661 q 744 415 744 506 q 729 244 744 322 q 674 108 714 165 q 561 20 633 51 q 375 -11 489 -11 m 254 415 q 258 331 254 378 q 276 242 261 283 q 319 173 290 201 q 400 144 349 144 q 476 178 450 144 q 515 260 503 213 q 528 360 526 308 q 531 446 531 411 q 527 523 531 482 q 510 599 524 564 q 470 658 497 635 q 394 681 443 681 q 316 653 344 681 q 274 585 288 625 q 258 498 261 544 q 254 415 254 451 z "},"p":{"ha":711,"x_min":6,"x_max":688,"o":"m 279 39 q 282 -3 281 18 q 283 -44 283 -24 q 283 -59 283 -51 q 282 -74 282 -67 q 310 -101 301 -83 q 319 -137 319 -118 q 298 -185 319 -168 q 249 -200 276 -201 l 65 -199 q 19 -178 31 -199 q 7 -126 7 -157 q 60 -69 7 -74 l 60 715 q 17 738 28 718 q 6 788 6 758 q 26 828 6 815 q 74 846 46 842 q 131 849 101 850 q 181 847 161 847 q 263 764 263 847 q 321 817 286 796 q 396 838 356 838 q 538 800 482 838 q 628 703 594 763 q 674 571 661 644 q 688 426 688 497 q 674 285 688 360 q 629 148 661 211 q 542 44 597 85 q 406 3 488 3 q 339 10 375 3 q 279 39 303 18 m 275 621 q 277 444 275 532 q 279 268 279 357 l 279 176 q 310 160 294 167 q 344 153 326 153 q 409 190 385 153 q 448 276 433 226 q 467 376 463 325 q 472 456 472 426 q 467 513 472 475 q 450 588 461 550 q 420 653 439 625 q 376 682 401 682 q 348 678 365 682 q 315 665 331 674 q 287 646 299 657 q 275 621 275 635 z "},"q":{"ha":718,"x_min":31,"x_max":706,"o":"m 440 28 q 393 10 418 14 q 343 4 368 6 l 332 4 q 188 38 246 4 q 95 128 131 72 q 45 256 60 185 q 31 401 31 328 q 38 494 31 444 q 59 592 44 543 q 97 685 74 640 q 153 764 121 729 q 227 819 185 799 q 322 839 269 839 q 394 820 361 839 q 451 772 428 801 q 474 828 451 808 q 531 847 496 847 q 581 849 551 847 q 639 846 611 850 q 686 828 667 842 q 706 788 706 815 q 697 742 706 761 q 660 717 688 722 l 660 -71 q 692 -97 681 -79 q 704 -137 704 -115 q 682 -185 704 -168 q 632 -200 660 -201 l 449 -199 q 402 -178 414 -199 q 390 -126 390 -157 q 439 -71 390 -78 l 440 28 m 443 622 q 431 647 443 636 q 403 667 419 658 q 370 679 388 675 q 342 683 353 683 q 299 651 317 683 q 269 576 281 618 q 251 492 257 533 q 246 431 246 450 q 251 351 246 399 q 272 260 257 304 q 315 186 288 217 q 386 156 343 156 q 413 158 400 156 q 440 161 426 160 q 441 391 439 276 q 443 622 443 506 z "},"r":{"ha":486,"x_min":17,"x_max":481,"o":"m 481 724 q 451 663 481 676 q 382 650 422 650 q 351 644 368 650 q 319 629 333 639 q 296 606 306 619 q 286 576 286 593 q 285 349 286 463 q 283 121 283 235 q 326 97 311 117 q 342 50 342 78 q 320 4 342 21 q 271 -12 299 -12 l 88 -11 q 40 11 51 -10 q 29 63 29 32 q 38 96 29 82 q 64 115 46 110 l 64 715 q 24 738 32 718 q 17 785 17 757 q 72 843 17 842 q 185 847 129 847 q 241 828 217 847 q 265 776 265 810 q 265 770 265 774 q 264 764 264 767 q 288 790 272 776 q 321 815 303 804 q 358 833 339 826 q 393 840 376 840 q 435 831 418 840 q 463 804 453 821 q 476 767 472 788 q 481 724 481 746 z "},"s":{"ha":686,"x_min":31,"x_max":664,"o":"m 349 -7 q 230 13 288 -7 q 128 71 172 33 q 57 161 83 108 q 31 278 31 214 q 31 318 31 299 q 36 352 31 338 q 56 376 42 367 q 97 385 69 385 q 172 352 153 385 q 190 269 192 319 l 190 258 q 259 190 221 214 q 353 165 297 165 q 386 168 368 165 q 419 178 404 171 q 445 199 435 186 q 456 232 456 213 q 425 260 456 246 q 349 295 394 275 q 250 342 303 315 q 151 405 197 368 q 75 490 106 442 q 44 603 44 539 q 72 706 44 664 q 142 776 99 749 q 240 815 186 803 q 347 828 293 828 q 466 815 411 828 q 562 774 521 803 q 626 697 603 744 q 649 578 649 649 q 649 536 649 556 q 644 502 649 517 q 625 479 639 488 q 582 471 611 471 q 506 504 525 471 q 488 586 488 538 q 476 617 488 603 q 447 640 465 631 q 406 653 429 649 q 360 658 383 658 q 326 653 343 658 q 294 641 308 649 q 272 624 281 633 q 263 603 263 614 q 292 565 263 583 q 367 526 322 547 q 463 480 411 506 q 560 420 515 454 q 634 341 604 386 q 664 235 664 296 q 635 126 664 172 q 561 51 607 81 q 459 8 515 22 q 349 -7 403 -7 z "},"t":{"ha":579,"x_min":10,"x_max":561,"o":"m 306 -19 q 208 3 250 -19 q 137 65 165 26 q 94 151 108 103 q 81 251 81 200 l 81 675 q 49 684 63 675 q 27 706 36 693 q 14 736 18 719 q 10 768 10 753 q 31 825 10 792 q 82 890 51 858 q 145 944 113 922 q 200 967 178 967 q 282 940 261 967 q 303 854 303 913 l 303 831 l 444 831 q 500 809 476 831 q 524 756 524 788 q 503 697 524 718 q 444 675 482 675 q 391 679 417 675 q 338 683 365 683 q 315 681 329 683 q 300 665 300 679 q 295 443 300 553 q 290 221 290 333 q 297 174 290 199 q 332 150 304 150 q 361 159 350 150 q 378 182 372 168 q 388 213 385 196 q 390 243 390 229 q 383 297 390 271 q 375 350 375 322 q 403 402 375 389 q 464 415 432 415 q 539 387 517 415 q 561 308 561 358 q 553 178 561 238 q 517 74 544 118 q 440 6 490 31 q 306 -19 389 -19 z "},"u":{"ha":740,"x_min":8,"x_max":729,"o":"m 494 85 q 424 14 468 42 q 326 -14 379 -14 q 203 8 257 -14 q 112 69 149 29 q 56 164 75 108 q 38 288 38 219 q 40 493 38 392 q 44 699 43 594 q 17 724 25 706 q 8 761 8 742 q 19 796 8 782 q 45 817 29 810 q 81 828 61 825 q 117 831 100 831 q 154 830 136 831 q 192 829 172 829 q 237 830 214 829 q 278 826 260 831 q 309 806 297 821 q 321 760 321 792 q 311 717 321 736 q 274 694 301 697 q 270 503 272 599 q 268 311 268 407 q 272 267 268 292 q 286 220 276 242 q 313 184 296 199 q 354 169 329 169 q 394 183 375 169 q 429 216 414 196 q 453 259 444 236 q 463 301 463 282 l 471 696 q 424 713 439 694 q 410 761 410 732 q 420 796 410 782 q 447 817 431 810 q 483 828 464 825 q 519 831 503 831 q 557 830 539 831 q 594 829 575 829 q 640 830 617 829 q 681 826 663 831 q 712 806 700 821 q 724 760 724 792 q 716 722 724 740 q 688 697 708 704 l 686 113 q 729 63 728 101 l 729 58 q 703 -5 729 8 q 642 -18 678 -18 q 611 -17 626 -18 q 581 -17 596 -17 q 517 15 538 -17 q 494 85 497 47 z "},"v":{"ha":732,"x_min":-6,"x_max":732,"o":"m 358 194 q 401 386 381 290 q 446 578 422 482 q 459 637 453 607 q 472 696 465 667 q 431 717 444 696 q 418 761 418 738 q 428 796 418 782 q 456 817 439 810 q 492 828 472 825 q 528 831 511 831 q 565 830 547 831 q 603 829 583 829 q 648 830 625 829 q 690 826 671 831 q 720 806 708 821 q 732 760 732 792 q 720 715 732 735 q 679 696 708 696 q 620 485 651 589 q 554 276 589 381 q 522 170 539 228 q 481 67 504 113 q 349 -15 440 -15 q 270 6 301 -15 q 218 68 239 28 q 197 117 207 89 q 179 174 188 144 q 163 233 171 204 q 149 285 156 263 q 88 490 118 388 q 33 697 57 593 q 3 722 11 703 q -6 761 -6 742 q 5 796 -6 782 q 31 817 15 810 q 67 828 47 825 q 103 831 86 831 q 140 830 122 831 q 178 829 158 829 q 223 830 200 829 q 265 826 246 831 q 295 806 283 821 q 307 760 307 792 q 299 722 307 740 q 265 703 290 703 q 315 450 289 576 q 358 194 342 324 z "},"w":{"ha":932,"x_min":7,"x_max":926,"o":"m 393 692 q 428 746 401 728 q 489 764 454 764 q 551 744 525 764 q 586 688 578 724 l 667 343 l 706 696 q 649 708 669 694 q 628 761 628 721 q 657 817 628 803 q 722 831 686 831 q 760 830 742 831 q 797 829 778 829 q 842 830 819 829 q 884 826 865 831 q 915 806 903 821 q 926 760 926 792 q 918 720 926 739 q 886 696 910 701 q 859 537 871 619 q 835 372 847 454 q 806 211 822 289 q 765 65 790 133 q 674 0 742 0 q 627 6 643 0 q 601 26 611 13 q 585 58 592 39 q 567 101 578 76 q 515 236 539 165 q 472 381 492 307 q 431 214 460 299 q 371 51 401 129 q 331 8 358 19 q 272 -4 304 -4 q 224 5 244 -4 q 190 42 203 14 q 162 126 172 82 q 140 215 151 171 q 94 454 111 335 q 57 696 76 574 q 19 717 31 697 q 7 761 7 738 q 17 796 7 782 q 44 817 28 810 q 80 828 61 825 q 115 831 99 831 q 172 832 138 831 q 240 828 207 833 q 297 807 274 822 q 321 760 321 792 q 310 717 321 736 q 271 694 299 697 l 301 324 l 393 692 z "},"x":{"ha":718,"x_min":8,"x_max":710,"o":"m 268 108 q 309 86 297 104 q 321 40 321 68 q 309 -7 321 13 q 267 -26 297 -26 l 60 -24 q 8 31 8 -24 q 26 76 8 58 q 68 103 44 94 q 155 258 108 182 q 247 410 201 333 q 162 551 207 482 q 81 696 117 621 q 40 716 54 696 q 26 761 26 736 q 53 811 26 796 q 118 831 81 826 q 193 834 156 836 q 251 832 231 832 q 315 819 290 832 q 339 760 339 806 q 333 724 339 742 q 307 699 326 706 q 341 622 322 660 q 375 544 360 585 l 447 696 q 401 713 415 694 q 386 761 386 732 q 397 796 386 782 q 424 817 407 810 q 460 828 440 825 q 496 831 479 831 q 533 830 515 831 q 571 829 551 829 q 616 830 593 829 q 658 826 639 831 q 688 806 676 821 q 700 760 700 792 q 688 713 700 732 q 644 694 675 694 l 631 694 q 551 553 593 622 q 469 411 508 483 q 560 262 514 336 q 644 108 606 188 q 710 40 710 104 q 697 -7 710 13 q 654 -26 685 -26 l 449 -24 q 408 -3 421 -24 q 396 40 396 17 q 425 92 396 75 l 343 272 l 268 108 z "},"y":{"ha":690,"x_min":13,"x_max":686,"o":"m 333 193 q 364 201 347 193 q 396 223 381 210 q 422 252 411 236 q 432 282 432 268 l 440 696 q 372 761 372 693 q 383 796 372 782 q 410 817 393 810 q 446 828 426 825 q 482 831 465 831 q 519 830 501 831 q 557 829 538 829 q 602 830 579 829 q 644 826 625 831 q 674 806 663 821 q 686 760 686 792 q 680 724 686 742 q 656 699 674 707 q 650 407 654 551 q 642 115 646 263 l 638 3 q 610 -105 636 -58 q 542 -182 583 -151 q 447 -228 500 -212 q 339 -243 394 -243 q 263 -235 303 -243 q 188 -208 224 -226 q 124 -165 153 -190 q 82 -103 96 -139 q 77 -87 79 -96 q 75 -71 75 -78 q 106 -12 75 -31 q 171 7 136 7 q 212 -7 194 7 q 247 -38 229 -21 q 285 -69 264 -56 q 336 -83 306 -83 q 389 -67 369 -83 q 419 -24 408 -50 q 433 31 429 1 q 436 85 436 60 q 435 99 436 92 q 436 113 435 106 q 370 61 408 81 q 289 42 332 42 q 169 78 215 42 q 95 171 122 115 q 58 292 68 226 q 49 417 49 358 q 49 558 49 488 q 50 699 49 628 q 21 723 29 704 q 13 761 13 742 q 40 811 13 796 q 103 831 67 826 q 178 834 140 836 q 238 832 217 832 q 301 819 276 832 q 325 760 325 806 q 312 713 325 732 q 268 694 299 694 q 265 598 267 646 q 263 501 263 550 q 263 461 263 489 q 265 399 263 433 q 271 328 267 364 q 283 262 275 292 q 303 213 292 232 q 333 193 315 193 z "},"z":{"ha":626,"x_min":11,"x_max":615,"o":"m 271 149 q 322 153 300 151 q 364 155 343 154 q 406 157 385 156 q 456 158 428 158 q 479 228 463 199 q 543 257 496 257 q 592 243 568 257 q 615 201 615 229 q 604 132 615 172 q 586 61 593 92 q 568 9 579 28 q 517 -11 557 -10 l 247 -11 q 186 -12 224 -11 q 113 -8 149 -14 q 51 14 76 -3 q 25 67 25 31 q 38 130 25 100 q 68 188 50 160 l 364 660 l 322 660 q 279 659 297 660 q 244 658 261 658 q 210 658 228 658 q 167 657 192 657 q 139 605 160 625 q 83 585 118 585 q 35 599 60 585 q 11 640 11 613 q 21 697 11 667 q 38 754 31 728 q 63 806 47 789 q 118 822 78 822 l 496 825 q 523 820 508 825 q 550 806 538 815 q 570 784 563 796 q 578 757 578 772 q 574 709 578 733 q 557 663 569 685 l 271 149 z "},"{":{"ha":476,"x_min":69,"x_max":442,"o":"m 358 -97 q 264 -80 307 -97 q 190 -31 221 -62 q 142 43 160 0 q 125 138 125 86 q 137 228 125 183 q 149 318 149 272 q 136 348 149 336 q 109 370 124 360 q 82 391 94 381 q 69 415 69 401 q 79 435 69 426 q 101 456 89 444 q 124 485 114 468 q 133 526 133 501 q 131 558 133 543 q 122 589 128 574 l 113 619 q 105 651 108 635 q 101 682 101 667 q 171 874 101 808 q 364 940 240 940 q 419 926 396 940 q 442 875 442 911 q 431 829 442 842 q 403 812 419 817 q 366 806 386 807 q 329 797 346 806 q 301 765 313 788 q 290 693 290 742 q 305 599 290 644 q 319 506 319 554 q 310 476 319 492 q 288 448 301 461 q 260 425 275 435 q 231 413 244 415 q 267 408 247 414 q 303 390 286 401 q 331 363 319 379 q 342 328 342 347 q 330 245 342 286 q 318 160 318 204 q 326 79 318 107 q 348 38 335 51 q 376 21 361 25 q 405 12 392 17 q 426 -4 418 7 q 435 -43 435 -15 q 427 -67 435 -57 q 408 -84 419 -78 q 383 -94 397 -90 q 358 -97 369 -97 z "},"|":{"ha":406,"x_min":99,"x_max":315,"o":"m 99 897 q 108 937 99 919 q 133 967 118 954 q 168 985 149 979 q 208 992 188 992 q 284 967 253 992 q 315 894 315 942 l 311 -57 q 281 -128 311 -107 q 206 -150 251 -150 q 132 -128 165 -150 q 99 -60 99 -106 l 99 897 z "},"}":{"ha":490,"x_min":69,"x_max":442,"o":"m 153 940 q 247 923 204 940 q 321 874 290 906 q 369 800 351 843 q 386 706 386 757 q 374 615 386 660 q 363 525 363 571 q 375 495 363 507 q 402 473 388 483 q 429 452 417 463 q 442 428 442 442 q 432 408 442 418 q 410 387 422 399 q 388 358 397 375 q 378 317 378 342 q 383 276 378 296 q 394 238 388 257 q 405 200 400 219 q 410 160 410 181 q 340 -31 410 35 q 147 -97 271 -97 q 94 -83 118 -97 q 69 -33 69 -68 q 81 12 69 -1 q 108 30 92 25 q 145 35 125 35 q 182 46 165 36 q 210 79 199 56 q 221 150 221 103 q 206 244 221 199 q 192 338 192 289 q 201 367 192 353 q 223 395 210 382 q 251 418 236 408 q 281 431 267 428 q 244 435 264 429 q 208 453 225 442 q 181 480 192 464 q 169 514 169 496 q 181 598 169 557 q 193 683 193 639 q 185 764 193 736 q 163 805 176 792 q 135 822 150 818 q 106 831 119 826 q 85 847 93 836 q 76 885 76 858 q 84 909 76 899 q 103 926 92 919 q 128 937 115 933 q 153 940 142 940 z "},"~":{"ha":754,"x_min":38,"x_max":694,"o":"m 279 376 q 239 363 256 376 q 208 335 222 350 q 177 306 193 319 q 139 293 161 293 q 68 315 99 293 q 38 382 38 338 q 61 447 38 415 q 119 502 85 478 q 192 540 153 526 q 261 554 231 554 q 335 543 306 554 q 389 518 365 532 q 433 493 413 504 q 479 482 454 482 q 508 495 493 482 q 538 524 522 508 q 569 553 553 540 q 601 567 585 567 q 665 547 635 567 q 694 490 694 526 q 674 425 694 460 q 624 361 654 390 q 559 313 594 332 q 493 294 524 294 q 424 307 450 294 q 376 335 397 319 q 334 364 356 351 q 279 376 313 376 z "},"":{"ha":432,"x_min":51,"x_max":350,"o":"m 324 654 q 314 618 324 633 q 288 592 304 603 q 253 577 272 582 q 217 572 235 572 q 180 577 199 572 q 145 592 161 582 q 119 618 129 603 q 110 654 110 633 q 119 690 110 675 q 145 716 129 706 q 180 731 161 726 q 217 736 199 736 q 253 731 235 736 q 288 716 272 726 q 314 690 304 706 q 324 654 324 675 m 221 -165 q 173 -163 201 -165 q 117 -153 144 -161 q 71 -131 90 -146 q 51 -87 51 -115 l 51 -76 l 128 497 q 162 542 133 531 q 219 554 190 554 q 277 542 250 554 q 307 494 304 531 l 349 -87 q 336 -122 350 -107 q 301 -146 322 -136 q 258 -160 281 -156 q 221 -165 236 -165 z "},"":{"ha":664,"x_min":31,"x_max":622,"o":"m 331 -76 q 300 -75 317 -76 q 268 -67 283 -74 q 242 -51 253 -61 q 232 -21 232 -40 q 233 -7 232 -14 q 235 7 233 0 l 235 14 q 135 85 175 40 q 72 185 96 129 q 40 301 49 240 q 31 422 31 363 q 40 563 31 489 q 78 700 50 638 q 159 805 107 763 q 294 850 211 847 q 319 938 286 913 q 408 964 353 964 q 467 951 440 964 q 493 900 493 938 q 490 872 493 886 q 485 844 488 858 q 561 783 533 814 q 603 717 589 753 q 619 639 617 682 q 622 542 622 596 q 603 497 622 510 q 557 485 585 485 q 525 491 542 485 q 494 508 508 497 q 472 532 481 518 q 463 563 463 546 q 462 585 463 575 q 458 606 461 594 q 447 633 456 617 q 426 665 438 650 q 401 691 415 681 q 374 701 388 701 q 319 671 340 701 q 284 599 297 640 q 265 516 271 558 q 260 449 260 474 q 262 406 260 433 q 268 347 264 379 q 280 283 272 315 q 299 223 288 250 q 325 178 310 196 q 361 161 340 161 q 392 180 378 161 q 417 224 407 199 q 434 274 428 249 q 440 313 440 300 q 463 379 440 350 q 525 408 486 408 q 594 387 567 408 q 622 321 622 365 q 612 226 622 274 q 578 136 601 178 q 519 65 556 94 q 432 26 483 36 q 415 -56 440 -35 q 331 -76 389 -76 z "},"":{"ha":785,"x_min":25,"x_max":743,"o":"m 90 28 q 97 69 90 49 q 110 110 103 90 q 123 150 117 129 q 129 192 129 171 q 127 243 129 218 q 124 294 125 268 q 50 313 75 296 q 25 382 25 329 q 33 413 25 400 q 56 433 42 425 q 85 445 69 442 q 117 450 101 449 q 126 616 115 536 q 170 757 136 696 q 267 854 204 818 q 433 890 329 890 q 528 872 483 890 q 608 822 574 854 q 665 747 643 790 q 688 653 686 703 q 690 597 689 625 q 690 542 690 569 q 672 497 690 510 q 625 485 653 485 q 593 491 610 485 q 563 508 576 497 q 540 532 549 518 q 531 563 531 546 l 531 606 q 531 635 531 621 q 532 665 532 650 q 483 699 514 690 q 424 707 453 707 q 382 685 397 707 q 360 632 367 663 q 353 570 354 601 q 351 521 351 539 l 351 453 q 399 455 369 453 q 456 453 428 457 q 505 435 485 449 q 525 392 525 421 q 510 332 525 351 q 470 306 494 313 q 416 300 446 299 q 357 301 386 301 q 360 267 358 285 q 361 233 361 250 q 349 146 361 188 q 490 153 419 151 q 631 156 560 156 q 670 154 650 156 q 706 145 690 153 q 733 124 722 138 q 743 85 743 110 q 728 11 743 39 q 661 -17 714 -17 q 431 -19 546 -17 q 201 -22 317 -22 q 169 -22 188 -22 q 133 -17 150 -21 q 103 -2 115 -12 q 90 28 90 8 z "},"":{"ha":944,"x_min":88,"x_max":858,"o":"m 161 221 q 103 328 119 269 q 88 450 88 386 q 113 566 88 511 q 179 664 138 621 q 162 676 172 668 q 142 695 151 685 q 125 716 132 706 q 118 735 118 726 q 130 769 118 754 q 158 793 142 783 q 194 808 175 803 q 231 813 214 813 q 285 795 263 813 q 325 754 307 778 q 397 772 361 767 q 471 778 433 778 q 537 773 504 778 q 601 756 569 768 q 614 776 603 767 q 640 794 625 786 q 669 808 654 803 q 694 813 685 813 q 730 807 710 813 q 767 792 750 801 q 797 767 785 782 q 808 735 808 753 q 788 699 808 715 q 753 671 768 682 q 828 567 799 626 q 858 443 858 508 q 840 317 858 378 q 776 208 821 257 q 803 186 788 200 q 818 156 818 172 q 807 121 818 136 q 778 96 796 106 q 742 81 761 86 q 706 76 722 76 q 665 87 682 76 q 629 113 647 97 q 475 89 551 89 q 388 96 431 89 q 304 121 344 103 q 267 90 289 103 q 222 78 246 78 q 185 83 204 78 q 152 100 167 89 q 128 127 138 111 q 118 163 118 143 q 133 195 118 179 q 161 221 149 211 m 476 236 q 619 294 571 236 q 667 443 667 353 q 616 578 667 532 q 478 624 565 624 q 335 575 386 624 q 285 433 285 526 q 336 291 285 346 q 476 236 388 236 z "},"":{"ha":774,"x_min":6,"x_max":760,"o":"m 657 356 q 639 313 657 326 q 595 293 621 299 q 542 288 569 288 q 496 288 515 288 q 507 286 500 286 q 547 285 522 286 q 597 279 572 285 q 639 262 621 274 q 657 228 657 250 q 642 190 657 204 q 605 167 626 175 q 560 155 583 158 q 518 151 536 151 q 506 152 511 151 q 496 153 501 153 q 497 111 496 132 q 499 69 499 90 q 491 28 499 43 q 469 6 483 14 q 436 -3 456 -1 q 394 -4 417 -4 q 344 3 363 -4 q 317 24 326 10 q 306 58 308 38 q 304 107 304 79 q 303 130 304 118 q 301 153 303 142 q 257 153 286 153 q 199 160 228 154 q 149 178 171 165 q 128 213 128 190 q 147 260 128 244 q 194 281 167 275 q 252 285 222 286 q 303 286 282 285 q 260 288 289 286 q 201 294 231 289 q 150 312 172 300 q 128 343 128 324 q 156 404 128 388 q 224 422 183 421 q 144 581 183 501 q 72 743 106 660 q 21 763 36 743 q 6 817 6 782 q 38 858 6 844 q 113 875 71 871 q 197 878 156 879 q 257 876 239 876 q 296 874 276 876 q 331 865 315 872 q 358 843 347 857 q 368 804 368 829 q 351 765 368 779 q 311 744 335 750 l 390 522 l 486 747 q 453 774 461 754 q 444 817 444 793 q 458 851 444 839 q 490 870 471 864 q 531 878 510 876 q 568 879 553 879 q 605 878 588 879 q 642 876 622 876 q 686 876 665 876 q 724 870 707 876 q 750 849 740 864 q 760 803 760 833 q 749 768 760 783 q 719 746 739 753 q 638 583 679 664 q 558 418 597 501 q 590 415 572 418 q 622 404 607 411 q 647 385 636 397 q 657 356 657 374 z "},"":{"ha":393,"x_min":92,"x_max":308,"o":"m 106 929 q 132 975 107 961 q 185 989 157 989 l 219 989 q 251 987 235 989 q 279 978 267 985 q 300 960 292 972 q 308 928 308 947 l 300 578 q 284 523 300 547 q 235 499 268 499 l 183 499 q 126 523 153 499 q 100 578 100 547 l 106 929 m 97 321 q 122 378 97 351 q 178 406 146 406 l 229 406 q 257 397 244 406 q 278 376 269 389 q 292 349 288 364 q 297 321 297 333 l 290 -90 q 225 -151 289 -151 l 174 -151 q 119 -137 146 -151 q 92 -89 92 -122 l 97 321 z "},"":{"ha":829,"x_min":49,"x_max":799,"o":"m 407 -94 q 349 -91 383 -94 q 276 -80 314 -87 q 199 -60 238 -72 q 129 -29 160 -47 q 80 14 99 -11 q 61 71 61 39 q 73 106 61 90 q 101 131 85 121 q 138 147 118 142 q 174 153 157 153 q 229 138 207 153 q 276 105 251 122 q 336 72 301 88 q 429 57 371 57 q 456 59 440 57 q 488 66 472 61 q 514 81 503 71 q 525 106 525 90 q 490 141 525 125 q 401 173 454 157 q 287 208 349 189 q 172 251 225 226 q 84 308 119 275 q 49 388 49 342 q 63 438 49 415 q 100 478 78 460 q 149 510 122 497 q 197 532 175 524 q 150 551 175 539 q 103 582 125 564 q 68 622 82 600 q 54 669 54 643 q 95 774 54 733 q 194 838 136 815 q 317 870 253 861 q 431 879 382 879 q 538 868 485 879 q 639 832 590 857 q 657 888 639 864 q 711 913 675 913 q 759 887 743 913 q 774 833 775 861 q 769 757 771 794 q 764 681 767 719 q 747 644 763 658 q 711 624 732 631 q 667 614 690 617 q 628 611 644 611 q 566 620 586 611 q 537 643 546 629 q 524 674 528 657 q 512 704 521 690 q 483 727 503 718 q 422 736 464 736 q 393 733 408 736 q 365 724 378 731 q 343 707 351 718 q 335 679 335 696 q 369 648 335 663 q 455 618 403 633 q 567 585 507 603 q 678 542 626 567 q 765 485 731 518 q 799 408 799 453 q 785 356 799 381 q 751 312 772 332 q 706 276 731 292 q 658 251 682 261 q 701 231 676 243 q 747 202 725 218 q 783 166 768 186 q 799 122 799 146 q 778 47 799 79 q 726 -10 758 14 q 653 -51 694 -35 q 567 -76 611 -67 q 482 -90 524 -86 q 407 -94 440 -94 m 335 393 q 344 374 335 383 q 368 358 354 365 q 396 348 382 351 q 418 344 410 344 q 451 347 431 344 q 490 356 471 350 q 522 374 508 363 q 535 401 535 385 q 517 419 535 410 q 477 437 500 429 q 433 450 454 444 q 403 456 411 456 q 356 438 376 456 q 335 393 335 419 z "},"":{"ha":643,"x_min":82,"x_max":564,"o":"m 82 989 q 92 1029 82 1013 q 119 1057 103 1046 q 156 1074 136 1068 q 197 1079 176 1079 q 238 1074 217 1079 q 275 1057 258 1068 q 302 1029 292 1046 q 313 989 313 1013 q 302 949 313 967 q 275 921 292 932 q 238 904 258 910 q 197 899 217 899 q 157 904 178 899 q 119 922 136 910 q 92 950 103 933 q 82 989 82 967 m 333 989 q 344 1029 333 1013 q 371 1057 354 1046 q 408 1074 388 1068 q 449 1079 428 1079 q 490 1074 469 1079 q 526 1057 510 1068 q 553 1029 543 1046 q 564 989 564 1013 q 553 949 564 967 q 526 921 543 932 q 490 904 510 910 q 449 899 469 899 q 408 904 429 899 q 371 922 388 910 q 344 950 354 933 q 333 989 333 967 z "},"":{"ha":1028,"x_min":51,"x_max":968,"o":"m 511 -29 q 167 88 283 -29 q 51 433 51 204 q 87 613 51 531 q 183 756 122 696 q 328 851 244 817 q 508 886 411 886 q 688 853 604 886 q 835 762 772 821 q 933 621 897 703 q 968 440 968 539 q 938 244 968 332 q 851 97 908 157 q 708 3 793 36 q 511 -29 622 -29 m 514 92 q 647 119 588 92 q 749 195 707 147 q 815 306 792 243 q 838 440 838 369 q 813 572 838 513 q 742 676 788 632 q 636 744 697 719 q 504 768 575 768 q 371 742 429 768 q 273 672 313 717 q 213 565 233 626 q 192 431 192 503 q 214 296 192 358 q 278 188 236 233 q 379 117 319 143 q 514 92 439 92 m 513 261 q 550 279 543 261 q 560 319 557 297 q 574 358 564 340 q 622 376 585 376 q 680 363 654 376 q 706 313 706 350 q 690 235 706 267 q 648 185 675 204 q 585 159 621 167 q 507 151 549 151 q 401 172 443 151 q 332 227 358 192 q 294 311 306 263 q 283 418 283 360 q 294 527 283 474 q 332 622 306 581 q 402 690 358 664 q 511 715 446 715 q 574 705 542 715 q 635 676 607 694 q 681 630 663 657 q 699 568 699 603 q 676 510 699 524 q 613 496 653 496 q 574 503 588 496 q 556 521 561 510 q 549 544 550 532 q 545 568 547 557 q 537 586 543 579 q 514 593 531 593 q 483 567 494 593 q 467 508 472 542 q 460 442 461 475 q 458 396 458 410 q 459 359 458 382 q 465 315 460 336 q 481 277 471 293 q 513 261 492 261 z "},"":{"ha":456,"x_min":53,"x_max":401,"o":"m 276 756 q 247 735 265 743 q 213 726 229 726 q 153 735 182 726 q 101 760 124 743 q 66 803 79 778 q 53 861 53 828 q 67 919 53 894 q 103 962 81 944 q 153 988 125 979 q 213 996 182 996 q 247 988 231 996 q 276 969 264 981 q 290 989 276 985 q 315 993 304 993 q 373 983 350 993 q 396 932 396 974 l 396 786 q 376 739 396 751 q 325 726 357 726 q 293 731 310 726 q 276 756 276 736 m 176 860 q 187 833 176 846 q 213 821 197 821 q 238 833 228 821 q 247 860 247 846 q 237 886 247 874 q 213 899 226 899 q 187 887 197 899 q 176 860 176 875 m 72 660 q 94 704 72 689 q 143 719 115 719 l 335 719 q 382 703 363 719 q 401 660 401 688 q 382 615 401 632 q 335 599 363 599 l 143 599 q 94 614 115 599 q 72 660 72 629 z "},"":{"ha":728,"x_min":90,"x_max":669,"o":"m 521 406 q 550 387 529 397 q 592 365 571 376 q 628 340 613 353 q 644 314 644 326 q 636 285 644 300 q 615 259 628 271 q 585 240 601 247 q 556 233 569 233 q 526 238 540 233 q 500 251 511 242 l 385 346 q 367 368 374 356 q 360 396 360 381 q 364 431 360 415 q 385 460 368 447 l 529 569 q 583 586 553 586 q 611 581 596 586 q 639 568 626 576 q 660 548 651 560 q 669 521 669 536 q 650 492 669 508 q 606 459 631 475 q 556 429 581 443 q 521 406 532 415 m 251 399 q 280 380 260 390 q 321 357 300 369 q 358 332 342 344 q 374 307 374 319 q 365 278 374 293 q 344 252 357 264 q 315 233 331 240 q 286 226 300 226 q 256 231 271 226 q 231 244 242 235 l 115 339 q 90 389 90 360 q 94 424 90 408 q 115 453 99 439 l 260 563 q 285 574 271 571 q 314 578 299 578 q 341 574 326 578 q 369 561 356 569 q 391 541 382 553 q 400 514 400 529 q 381 485 400 501 q 336 452 361 468 q 287 422 311 436 q 251 399 263 408 z "},"":{"ha":703,"x_min":49,"x_max":644,"o":"m 461 447 q 462 458 461 451 q 462 473 463 465 q 458 486 461 481 q 450 492 456 492 l 125 492 q 72 510 96 492 q 49 561 49 529 q 65 624 49 604 q 125 644 81 644 l 560 640 q 608 632 592 640 q 631 610 624 624 q 640 575 639 596 q 642 529 642 554 q 644 478 643 504 q 644 428 644 453 q 634 394 644 407 q 608 376 624 382 q 574 367 592 369 q 539 365 556 365 q 478 386 496 365 q 461 447 461 407 z "},"":{"ha":661,"x_min":40,"x_max":614,"o":"m 318 475 q 205 492 256 475 q 117 542 154 508 q 60 624 81 575 q 40 736 40 672 q 61 854 40 801 q 120 944 82 907 q 211 1001 158 981 q 328 1021 264 1021 q 442 1001 390 1021 q 533 945 494 982 q 592 857 571 908 q 614 743 614 806 q 591 626 614 676 q 528 542 568 575 q 435 492 489 508 q 318 475 381 475 m 326 549 q 412 560 372 549 q 481 597 451 572 q 526 658 510 621 q 543 743 543 694 q 525 830 543 792 q 477 894 507 868 q 406 933 447 919 q 319 946 365 946 q 172 891 225 946 q 119 743 119 836 q 175 597 119 646 q 326 549 231 549 m 319 643 q 312 598 322 613 q 269 583 301 583 q 253 584 264 583 q 233 588 243 585 q 217 595 224 590 q 210 608 210 600 l 204 885 q 217 902 204 896 q 248 911 231 908 q 283 915 265 914 q 307 915 300 915 q 367 910 336 915 q 422 892 397 906 q 463 857 447 879 q 479 799 479 835 q 454 729 479 756 q 389 692 429 703 q 410 678 396 688 q 438 658 424 668 q 462 636 451 647 q 472 617 472 625 q 466 603 472 610 q 451 590 460 596 q 432 581 442 585 q 417 578 422 578 q 392 585 407 578 q 364 603 378 593 q 338 625 350 614 q 319 643 326 636 m 315 747 q 326 736 315 740 q 343 732 336 732 q 358 739 353 732 q 367 756 364 746 q 372 778 371 767 q 372 796 372 789 q 365 831 372 817 q 333 846 357 846 q 314 844 321 846 l 315 747 z "},"":{"ha":464,"x_min":50,"x_max":410,"o":"m 132 907 q 74 925 97 907 q 50 981 50 943 q 65 1015 50 1004 q 100 1032 79 1026 q 143 1038 121 1038 q 181 1038 165 1038 q 260 1037 221 1038 q 339 1036 299 1036 q 390 1019 371 1036 q 410 969 410 1003 q 389 922 410 939 q 339 906 368 906 l 132 907 z "},"":{"ha":531,"x_min":61,"x_max":474,"o":"m 61 756 q 77 835 61 800 q 122 894 93 869 q 188 931 150 918 q 267 944 225 944 q 346 931 308 944 q 412 894 383 918 q 457 835 440 869 q 474 756 474 800 q 457 676 474 711 q 413 615 440 640 q 347 577 385 590 q 267 564 308 564 q 186 577 224 564 q 121 615 149 590 q 77 676 93 640 q 61 756 61 711 m 271 697 q 311 715 297 697 q 325 757 325 733 q 310 797 325 781 q 271 814 294 814 q 233 797 247 814 q 218 757 218 781 q 232 715 218 733 q 271 697 246 697 z "},"":{"ha":625,"x_min":61,"x_max":560,"o":"m 206 475 q 161 472 186 474 q 114 475 136 471 q 76 493 92 479 q 61 536 61 507 q 76 603 61 582 q 140 624 90 624 l 210 624 q 214 681 213 658 q 224 719 215 704 q 254 740 233 733 q 317 746 275 746 q 353 744 335 746 q 385 737 371 743 q 409 718 400 731 q 418 683 418 706 q 417 653 418 668 q 414 624 417 639 q 457 624 432 624 q 505 619 482 625 q 544 601 528 614 q 560 563 560 589 q 535 489 560 506 q 457 472 511 472 q 431 473 444 472 q 404 474 418 474 q 401 424 403 447 q 392 384 400 401 q 366 357 383 367 q 315 347 349 347 q 262 349 283 347 q 228 360 240 351 q 210 389 215 369 q 204 442 204 408 q 204 458 204 450 q 206 475 204 467 m 560 282 q 535 208 560 225 q 457 192 510 192 l 150 192 q 89 203 117 192 q 61 256 61 215 q 76 322 61 301 q 140 343 90 343 l 454 343 q 488 342 469 343 q 523 334 507 340 q 549 315 539 328 q 560 282 560 303 z "},"":{"ha":499,"x_min":29,"x_max":467,"o":"m 229 554 q 296 557 263 554 q 363 561 329 560 q 378 604 367 586 q 419 622 389 622 q 451 615 435 622 q 467 589 467 607 q 458 542 467 565 q 446 496 449 519 q 438 458 443 474 q 403 443 432 443 l 89 440 q 51 453 65 440 q 36 490 36 465 l 36 507 q 54 541 36 521 q 99 585 72 561 q 157 638 125 610 q 215 695 189 665 q 260 756 242 725 q 278 815 278 786 q 259 859 278 846 q 213 872 240 872 q 165 864 188 872 q 131 832 143 856 q 132 794 131 814 q 129 758 133 775 q 113 731 125 742 q 72 721 100 721 q 42 728 56 721 q 29 754 29 735 q 30 788 29 771 q 32 821 31 804 q 50 895 33 865 q 94 943 67 925 q 158 969 122 961 q 233 978 194 978 q 310 970 272 978 q 377 944 347 963 q 425 895 407 925 q 443 819 443 865 q 422 735 443 774 q 369 665 401 697 q 300 605 338 632 q 229 554 263 578 z "},"":{"ha":554,"x_min":46,"x_max":511,"o":"m 122 582 q 163 573 153 582 q 181 553 174 564 q 203 534 189 543 q 257 525 218 525 q 311 538 293 525 q 329 590 329 550 q 319 628 329 615 q 292 645 308 640 q 257 651 275 650 q 222 654 239 651 q 195 665 206 657 q 185 692 185 672 q 205 735 185 722 q 251 747 225 747 q 306 771 282 747 q 329 825 329 794 q 309 861 329 851 q 267 871 289 871 q 158 826 207 871 q 159 792 160 808 q 151 764 158 776 q 131 744 144 751 q 94 738 118 738 q 60 744 75 738 q 46 774 46 751 q 47 799 46 786 q 49 824 47 811 q 69 907 50 874 q 119 960 88 940 q 190 989 150 981 q 274 997 231 997 q 351 990 311 997 q 424 964 390 982 q 478 916 457 946 q 499 842 499 886 q 469 754 499 788 q 392 703 440 721 q 476 658 442 693 q 511 569 511 622 q 485 491 511 522 q 422 441 460 460 q 339 415 383 422 q 257 408 294 408 q 201 414 236 408 q 131 432 165 419 q 72 464 97 444 q 47 511 47 483 q 70 561 47 540 q 122 582 93 582 z "},"":{"ha":363,"x_min":43,"x_max":311,"o":"m 133 876 q 106 878 121 876 q 76 886 90 881 q 53 902 63 892 q 43 928 43 913 q 53 955 43 938 q 78 991 64 972 q 106 1027 92 1010 q 128 1053 121 1044 q 159 1081 143 1072 q 199 1089 175 1089 q 231 1087 211 1089 q 267 1078 250 1085 q 298 1061 285 1072 q 311 1033 311 1050 q 297 1008 311 1026 q 263 969 282 990 q 224 930 243 949 q 199 904 206 911 q 169 884 185 892 q 133 876 153 876 z "},"":{"ha":939,"x_min":36,"x_max":910,"o":"m 271 332 q 90 402 144 332 q 36 592 36 472 q 69 725 36 672 q 157 809 103 778 q 278 853 211 840 q 411 871 344 867 q 578 878 494 876 q 746 879 663 879 q 783 878 765 879 q 821 876 801 876 q 885 865 861 876 q 910 806 910 853 q 890 758 910 775 q 842 743 871 742 l 821 743 l 821 74 q 886 62 863 74 q 910 3 910 50 q 890 -44 910 -28 q 842 -60 871 -60 l 688 -58 q 635 -40 660 -58 q 610 8 610 -22 l 604 654 l 596 654 l 601 11 q 576 -42 601 -24 q 519 -60 551 -60 l 313 -58 q 240 15 240 -58 q 254 49 240 38 q 288 67 268 61 q 331 75 308 74 q 368 76 353 76 l 368 332 l 271 332 z "},"":{"ha":424,"x_min":56,"x_max":360,"o":"m 208 308 q 151 317 179 308 q 102 342 124 325 q 68 383 81 358 q 56 440 56 408 q 69 497 56 472 q 103 537 82 521 q 151 561 124 553 q 208 569 179 569 q 265 561 238 569 q 313 536 292 553 q 347 496 333 519 q 360 440 360 472 q 347 383 360 408 q 314 342 335 358 q 265 317 293 325 q 208 308 238 308 z "},"":{"ha":389,"x_min":51,"x_max":322,"o":"m 322 -69 q 305 -128 322 -101 q 261 -174 288 -154 q 203 -204 235 -193 q 144 -215 172 -215 q 78 -190 106 -215 q 51 -125 51 -164 q 63 -106 51 -110 q 85 -103 74 -103 q 108 -103 97 -103 q 128 -101 119 -104 q 142 -90 138 -97 q 147 -65 147 -82 q 139 -39 147 -50 q 121 -18 131 -28 q 103 1 111 -8 q 94 19 94 10 q 103 52 94 35 q 124 85 111 69 q 153 110 138 100 q 185 121 169 121 q 203 119 192 121 q 228 112 215 117 q 249 101 240 107 q 258 86 258 94 q 253 74 258 81 q 242 62 249 68 q 231 49 236 56 q 226 36 226 43 q 242 19 226 26 q 274 1 257 11 q 307 -26 292 -10 q 322 -69 322 -42 z "},"":{"ha":454,"x_min":51,"x_max":408,"o":"m 164 843 q 140 838 157 839 q 115 838 124 838 q 51 897 51 838 q 58 922 51 908 q 75 940 64 936 q 119 950 93 947 q 174 955 146 953 q 230 957 203 957 q 278 957 257 957 q 310 949 293 957 q 326 924 326 942 l 326 553 q 353 551 339 551 q 379 547 367 550 q 400 536 392 544 q 408 510 408 528 q 398 456 408 478 q 351 433 388 433 l 115 435 q 76 449 92 435 q 60 486 60 463 q 81 535 60 525 q 135 546 101 546 l 163 544 l 164 843 z "},"":{"ha":489,"x_min":85,"x_max":415,"o":"m 214 860 q 224 833 214 846 q 250 821 235 821 q 275 833 265 821 q 285 860 285 846 q 274 886 285 874 q 250 899 264 899 q 224 887 235 899 q 214 860 214 875 m 90 861 q 104 919 90 894 q 140 962 118 944 q 191 988 163 979 q 250 996 219 996 q 309 988 281 996 q 360 962 338 979 q 396 919 382 944 q 410 861 410 894 q 397 803 410 828 q 361 760 383 778 q 310 735 339 743 q 250 726 281 726 q 190 735 219 726 q 139 760 161 743 q 103 803 117 778 q 90 861 90 828 m 85 660 q 106 704 85 689 q 154 719 126 719 l 347 719 q 394 703 374 719 q 415 660 415 688 q 394 615 415 632 q 347 599 374 599 l 154 599 q 106 614 126 599 q 85 660 85 629 z "},"":{"ha":696,"x_min":82,"x_max":661,"o":"m 499 414 q 470 433 490 422 q 429 455 450 443 q 392 480 408 467 q 376 506 376 493 q 385 535 376 521 q 406 560 393 549 q 435 579 419 572 q 464 586 450 586 q 494 582 479 586 q 519 567 508 578 l 635 472 q 653 451 646 464 q 661 424 661 439 q 656 388 661 404 q 635 360 651 372 l 490 250 q 438 233 468 233 q 410 238 425 233 q 382 251 394 243 q 360 272 369 260 q 351 297 351 283 q 371 327 351 311 q 415 360 390 343 q 465 390 440 376 q 499 414 489 404 m 229 407 q 201 426 221 415 q 160 448 181 436 q 123 472 139 460 q 107 497 107 485 q 115 527 107 513 q 137 553 124 542 q 165 571 150 564 q 194 578 181 578 q 224 574 210 578 q 250 560 239 571 l 365 465 q 384 444 376 457 q 392 417 392 432 q 387 381 392 397 q 365 353 382 365 l 221 243 q 167 226 199 226 q 140 231 154 226 q 113 244 125 236 q 91 265 100 253 q 82 290 82 276 q 101 320 82 304 q 146 353 121 336 q 195 383 171 369 q 229 407 219 397 z "},"":{"ha":1154,"x_min":79,"x_max":1090,"o":"m 192 774 q 172 769 183 769 q 150 768 160 768 q 99 780 118 768 q 79 828 79 792 q 85 852 79 839 q 103 871 92 865 q 146 881 119 878 q 202 886 172 885 q 260 888 232 888 q 306 888 288 888 q 338 880 321 888 q 354 854 354 872 l 354 483 q 381 482 367 482 q 407 478 394 482 q 428 467 419 475 q 436 440 436 458 q 426 386 436 408 q 379 364 415 364 l 143 365 q 104 379 121 365 q 88 417 88 393 q 108 465 88 454 q 163 476 129 476 l 190 475 l 192 774 m 906 815 q 892 778 906 796 q 783 602 839 689 q 672 428 728 515 q 564 252 617 340 q 463 72 511 164 q 454 58 458 65 q 446 42 450 50 l 442 35 q 394 -12 424 1 q 328 -26 364 -26 q 299 -21 314 -26 q 273 -6 285 -15 q 253 16 261 3 q 246 44 246 29 q 253 78 246 60 q 272 114 261 96 q 296 149 283 132 q 317 178 308 165 q 492 441 408 307 q 650 714 575 575 q 681 773 665 743 q 717 827 697 803 q 765 867 738 851 q 831 882 792 882 q 882 864 858 882 q 906 815 906 846 m 683 86 q 623 110 650 86 q 596 169 596 135 q 610 203 596 178 q 645 262 624 228 q 693 334 667 296 q 744 407 719 372 q 787 468 768 442 q 814 504 806 494 q 860 536 833 528 q 915 544 888 544 q 953 542 932 544 q 994 531 975 539 q 1025 508 1013 522 q 1038 472 1038 494 l 1042 224 q 1076 203 1061 219 q 1090 167 1090 188 q 1088 142 1090 156 q 1081 115 1086 128 q 1067 94 1076 103 q 1043 86 1058 86 q 1039 41 1043 58 q 1024 15 1035 24 q 995 2 1013 6 q 950 -1 978 -1 q 876 14 899 -1 q 853 85 853 29 l 683 86 m 858 213 l 858 328 l 799 211 l 858 213 z "},"":{"ha":1182,"x_min":79,"x_max":1119,"o":"m 192 774 q 172 769 183 769 q 150 768 160 768 q 99 780 118 768 q 79 828 79 792 q 85 852 79 839 q 103 871 92 865 q 146 881 119 878 q 202 886 172 885 q 260 888 232 888 q 306 888 288 888 q 338 880 321 888 q 354 854 354 872 l 354 483 q 381 482 367 482 q 407 478 394 482 q 428 467 419 475 q 436 440 436 458 q 426 386 436 408 q 379 364 415 364 l 143 365 q 104 379 121 365 q 88 417 88 393 q 108 465 88 454 q 163 476 129 476 l 190 475 l 192 774 m 906 815 q 892 778 906 796 q 783 602 839 689 q 672 428 728 515 q 564 252 617 340 q 463 72 511 164 q 454 58 458 65 q 446 42 450 50 l 442 35 q 394 -12 424 1 q 328 -26 364 -26 q 299 -21 314 -26 q 273 -6 285 -15 q 253 16 261 3 q 246 44 246 29 q 253 78 246 60 q 272 114 261 96 q 296 149 283 132 q 317 178 308 165 q 492 441 408 307 q 650 714 575 575 q 681 773 665 743 q 717 827 697 803 q 765 867 738 851 q 831 882 792 882 q 882 864 858 882 q 906 815 906 846 m 903 100 q 959 103 931 100 q 1017 107 988 106 q 1033 147 1021 131 q 1072 164 1044 164 q 1103 156 1088 164 q 1119 131 1119 149 q 1110 84 1119 107 q 1099 38 1101 61 q 1090 0 1096 15 q 1056 -15 1085 -15 l 742 -18 q 703 -6 718 -18 q 689 32 689 7 l 689 49 q 707 83 689 63 q 751 127 725 103 q 810 179 778 151 q 868 237 842 207 q 913 297 894 267 q 931 357 931 328 q 913 390 931 381 q 876 399 896 399 q 840 390 857 399 q 811 365 824 381 q 813 338 813 351 q 814 310 814 324 q 803 290 814 299 q 778 276 793 282 q 749 266 764 269 q 725 263 733 263 q 695 269 708 263 q 682 296 682 276 q 683 329 682 313 q 685 363 683 346 q 703 437 686 407 q 747 485 719 467 q 811 511 775 503 q 886 519 847 519 q 963 512 925 519 q 1030 485 1000 504 q 1078 437 1060 467 q 1096 361 1096 407 q 1078 279 1096 317 q 1032 210 1060 242 q 970 151 1004 178 q 903 100 936 124 z "},"":{"ha":1194,"x_min":47,"x_max":1146,"o":"m 122 485 q 163 476 153 485 q 181 456 174 467 q 203 437 189 446 q 257 428 218 428 q 311 440 293 428 q 329 493 329 453 q 319 531 329 518 q 292 548 308 543 q 257 553 275 553 q 222 557 239 554 q 195 567 206 560 q 185 594 185 575 q 205 638 185 625 q 251 650 225 650 q 306 674 282 650 q 329 728 329 697 q 309 764 329 754 q 267 774 289 774 q 205 760 232 774 q 159 729 178 746 q 128 699 140 713 q 107 685 115 685 q 68 694 88 685 q 49 728 49 704 q 68 809 49 776 q 119 862 88 842 q 192 891 151 882 q 274 900 232 900 q 351 892 311 900 q 424 867 390 885 q 478 819 457 849 q 499 744 499 789 q 469 657 499 690 q 392 606 440 624 q 476 560 442 596 q 511 472 511 525 q 485 394 511 425 q 422 344 460 363 q 339 318 383 325 q 257 311 294 311 q 201 317 236 311 q 131 335 165 322 q 72 367 97 347 q 47 414 47 386 q 70 464 47 443 q 122 485 93 485 m 961 815 q 947 778 961 796 q 839 602 894 689 q 728 428 783 515 q 619 252 672 340 q 518 72 567 164 q 510 58 514 65 q 501 42 506 50 l 497 35 q 449 -12 479 1 q 383 -26 419 -26 q 355 -21 369 -26 q 328 -6 340 -15 q 309 16 317 3 q 301 44 301 29 q 309 78 301 60 q 328 114 317 96 q 351 149 339 132 q 372 178 364 165 q 547 441 464 307 q 706 714 631 575 q 737 773 721 743 q 773 827 753 803 q 820 867 793 851 q 886 882 847 882 q 938 864 914 882 q 961 815 961 846 m 739 86 q 678 110 706 86 q 651 169 651 135 q 665 203 651 178 q 701 262 679 228 q 749 334 722 296 q 799 407 775 372 q 842 468 824 442 q 869 504 861 494 q 916 536 889 528 q 971 544 943 544 q 1009 542 988 544 q 1049 531 1031 539 q 1081 508 1068 522 q 1093 472 1093 494 l 1097 224 q 1131 203 1117 219 q 1146 167 1146 188 q 1144 142 1146 156 q 1137 115 1142 128 q 1123 94 1132 103 q 1099 86 1114 86 q 1094 41 1099 58 q 1079 15 1090 24 q 1051 2 1068 6 q 1006 -1 1033 -1 q 931 14 954 -1 q 908 85 908 29 l 739 86 m 914 213 l 914 328 l 854 211 l 914 213 z "},"":{"ha":706,"x_min":33,"x_max":665,"o":"m 390 732 q 429 727 410 732 q 464 712 449 722 q 489 685 479 701 q 499 647 499 669 q 488 610 499 626 q 463 584 478 594 q 428 569 447 574 q 390 564 408 564 q 352 569 372 564 q 317 584 332 574 q 291 610 301 594 q 281 647 281 626 q 290 685 281 669 q 316 712 300 701 q 351 727 332 722 q 390 732 371 732 m 33 51 q 57 135 33 100 q 115 200 81 171 q 186 256 149 229 q 251 313 224 282 q 279 363 274 338 q 288 419 285 388 q 293 465 290 444 q 306 501 296 486 q 333 525 315 517 q 379 533 350 533 q 412 531 394 533 q 444 522 429 529 q 470 503 460 515 q 481 472 481 492 l 481 393 q 450 283 481 331 q 383 201 419 236 q 317 138 347 165 q 286 89 286 111 q 302 41 286 60 q 350 22 318 22 q 403 34 383 22 q 436 65 424 46 q 458 104 449 83 q 477 144 467 125 q 503 174 488 163 q 544 186 518 186 q 594 183 572 186 q 631 169 615 179 q 654 140 646 158 q 663 90 663 121 q 663 -12 663 39 q 664 -115 664 -64 q 649 -169 665 -143 q 601 -196 633 -196 q 549 -172 568 -196 q 531 -117 531 -149 l 531 -81 q 439 -135 489 -114 q 335 -157 389 -157 q 228 -149 282 -157 q 131 -117 174 -140 q 60 -54 88 -94 q 33 51 33 -14 z "},"":{"ha":843,"x_min":24,"x_max":821,"o":"m 549 976 q 539 951 549 961 q 515 935 529 942 q 484 927 500 929 q 457 925 468 925 q 410 942 438 925 q 356 984 382 960 q 313 1035 331 1008 q 294 1082 294 1063 q 308 1111 294 1100 q 338 1128 321 1122 q 375 1135 356 1133 q 407 1138 394 1138 q 476 1101 451 1138 q 495 1076 483 1093 q 519 1039 507 1058 q 540 1002 531 1019 q 549 976 549 985 m 314 200 q 303 156 308 178 q 292 111 299 133 q 320 104 306 110 q 347 89 335 99 q 367 67 360 79 q 375 42 375 56 q 349 -6 375 10 q 296 -21 324 -22 l 89 -19 q 38 -1 53 -19 q 24 53 24 18 q 40 94 24 81 q 83 110 57 108 q 92 141 88 125 q 103 172 97 157 q 185 457 147 315 q 264 742 224 599 q 207 758 224 742 q 190 815 190 775 q 208 857 190 844 q 253 872 225 869 q 423 875 338 875 q 593 875 508 875 q 649 857 625 875 q 672 804 672 839 q 650 760 672 775 q 601 743 628 744 q 684 428 644 585 q 760 111 724 271 q 803 88 786 107 q 821 42 821 69 q 795 -6 821 10 q 742 -21 769 -21 q 638 -21 689 -21 q 535 -19 586 -21 q 483 -1 497 -19 q 469 53 469 18 q 510 107 469 96 l 485 199 l 314 200 m 456 343 l 404 599 l 356 346 l 456 343 z "},"":{"ha":843,"x_min":24,"x_max":821,"o":"m 376 925 q 350 927 365 925 q 321 935 335 929 q 297 951 307 940 q 288 976 288 961 q 298 1003 288 986 q 322 1040 308 1021 q 350 1076 336 1058 q 371 1101 364 1093 q 443 1138 399 1138 q 475 1135 456 1138 q 512 1127 494 1133 q 542 1110 529 1121 q 556 1082 556 1099 q 541 1057 556 1075 q 507 1018 526 1039 q 469 978 488 997 q 443 953 450 960 q 413 933 429 940 q 376 925 396 925 m 314 200 q 303 156 308 178 q 292 111 299 133 q 320 104 306 110 q 347 89 335 99 q 367 67 360 79 q 375 42 375 56 q 349 -6 375 10 q 296 -21 324 -22 l 89 -19 q 38 -1 53 -19 q 24 53 24 18 q 40 94 24 81 q 83 110 57 108 q 92 141 88 125 q 103 172 97 157 q 185 457 147 315 q 264 742 224 599 q 207 758 224 742 q 190 815 190 775 q 208 857 190 844 q 253 872 225 869 q 423 875 338 875 q 593 875 508 875 q 649 857 625 875 q 672 804 672 839 q 650 760 672 775 q 601 743 628 744 q 684 428 644 585 q 760 111 724 271 q 803 88 786 107 q 821 42 821 69 q 795 -6 821 10 q 742 -21 769 -21 q 638 -21 689 -21 q 535 -19 586 -21 q 483 -1 497 -19 q 469 53 469 18 q 510 107 469 96 l 485 199 l 314 200 m 456 343 l 404 599 l 356 346 l 456 343 z "},"":{"ha":843,"x_min":24,"x_max":821,"o":"m 422 1011 q 402 987 415 1001 q 372 958 389 972 q 339 935 356 944 q 310 926 322 926 q 286 930 300 926 q 261 941 272 933 q 242 958 250 949 q 233 981 233 968 q 256 1028 233 1003 q 309 1076 278 1054 q 373 1112 340 1097 q 426 1126 406 1126 q 472 1114 442 1126 q 533 1084 501 1101 q 587 1047 564 1067 q 610 1010 610 1026 q 601 985 610 997 q 579 963 592 972 q 552 947 567 953 q 525 942 538 942 q 499 949 513 942 q 470 968 485 957 q 443 991 456 979 q 422 1011 431 1003 m 314 200 q 303 156 308 178 q 292 111 299 133 q 320 104 306 110 q 347 89 335 99 q 367 67 360 79 q 375 42 375 56 q 349 -6 375 10 q 296 -21 324 -22 l 89 -19 q 38 -1 53 -19 q 24 53 24 18 q 40 94 24 81 q 83 110 57 108 q 92 141 88 125 q 103 172 97 157 q 185 457 147 315 q 264 742 224 599 q 207 758 224 742 q 190 815 190 775 q 208 857 190 844 q 253 872 225 869 q 423 875 338 875 q 593 875 508 875 q 649 857 625 875 q 672 804 672 839 q 650 760 672 775 q 601 743 628 744 q 684 428 644 585 q 760 111 724 271 q 803 88 786 107 q 821 42 821 69 q 795 -6 821 10 q 742 -21 769 -21 q 638 -21 689 -21 q 535 -19 586 -21 q 483 -1 497 -19 q 469 53 469 18 q 510 107 469 96 l 485 199 l 314 200 m 456 343 l 404 599 l 356 346 l 456 343 z "},"":{"ha":843,"x_min":24,"x_max":821,"o":"m 353 986 q 333 978 342 986 q 314 959 324 969 q 291 940 304 949 q 257 931 278 931 q 200 949 225 931 q 175 1003 175 967 q 192 1050 175 1028 q 235 1088 210 1072 q 290 1114 261 1104 q 340 1124 318 1124 q 395 1114 372 1124 q 436 1092 418 1104 q 469 1069 454 1079 q 497 1060 483 1060 q 515 1070 507 1060 q 534 1092 524 1081 q 559 1115 544 1104 q 599 1125 574 1125 q 647 1109 626 1125 q 668 1063 668 1093 q 652 1015 668 1039 q 613 971 636 990 q 562 939 589 951 q 513 926 535 926 q 458 935 482 926 q 416 956 435 944 q 382 977 397 968 q 353 986 367 986 m 314 200 q 303 156 308 178 q 292 111 299 133 q 320 104 306 110 q 347 89 335 99 q 367 67 360 79 q 375 42 375 56 q 349 -6 375 10 q 296 -21 324 -22 l 89 -19 q 38 -1 53 -19 q 24 53 24 18 q 40 94 24 81 q 83 110 57 108 q 92 141 88 125 q 103 172 97 157 q 185 457 147 315 q 264 742 224 599 q 207 758 224 742 q 190 815 190 775 q 208 857 190 844 q 253 872 225 869 q 423 875 338 875 q 593 875 508 875 q 649 857 625 875 q 672 804 672 839 q 650 760 672 775 q 601 743 628 744 q 684 428 644 585 q 760 111 724 271 q 803 88 786 107 q 821 42 821 69 q 795 -6 821 10 q 742 -21 769 -21 q 638 -21 689 -21 q 535 -19 586 -21 q 483 -1 497 -19 q 469 53 469 18 q 510 107 469 96 l 485 199 l 314 200 m 456 343 l 404 599 l 356 346 l 456 343 z "},"":{"ha":843,"x_min":24,"x_max":821,"o":"m 181 1038 q 191 1078 181 1061 q 218 1106 201 1094 q 255 1122 235 1117 q 296 1128 275 1128 q 337 1122 317 1128 q 374 1106 357 1117 q 401 1078 390 1094 q 411 1038 411 1061 q 401 998 411 1015 q 374 969 390 981 q 337 953 357 958 q 296 947 317 947 q 256 953 276 947 q 218 970 235 958 q 191 999 201 982 q 181 1038 181 1015 m 432 1038 q 442 1078 432 1061 q 469 1106 453 1094 q 506 1122 486 1117 q 547 1128 526 1128 q 588 1122 568 1128 q 625 1106 608 1117 q 652 1078 642 1094 q 663 1038 663 1061 q 652 998 663 1015 q 625 969 642 981 q 588 953 608 958 q 547 947 568 947 q 507 953 528 947 q 469 970 486 958 q 442 999 453 982 q 432 1038 432 1015 m 314 200 q 303 156 308 178 q 292 111 299 133 q 320 104 306 110 q 347 89 335 99 q 367 67 360 79 q 375 42 375 56 q 349 -6 375 10 q 296 -21 324 -22 l 89 -19 q 38 -1 53 -19 q 24 53 24 18 q 40 94 24 81 q 83 110 57 108 q 92 141 88 125 q 103 172 97 157 q 185 457 147 315 q 264 742 224 599 q 207 758 224 742 q 190 815 190 775 q 208 857 190 844 q 253 872 225 869 q 423 875 338 875 q 593 875 508 875 q 649 857 625 875 q 672 804 672 839 q 650 760 672 775 q 601 743 628 744 q 684 428 644 585 q 760 111 724 271 q 803 88 786 107 q 821 42 821 69 q 795 -6 821 10 q 742 -21 769 -21 q 638 -21 689 -21 q 535 -19 586 -21 q 483 -1 497 -19 q 469 53 469 18 q 510 107 469 96 l 485 199 l 314 200 m 456 343 l 404 599 l 356 346 l 456 343 z "},"":{"ha":843,"x_min":24,"x_max":821,"o":"m 238 1056 q 256 1116 238 1092 q 301 1156 274 1140 q 361 1178 328 1171 q 424 1185 394 1185 q 486 1178 454 1185 q 544 1156 518 1171 q 588 1116 571 1140 q 606 1056 606 1092 q 588 994 606 1019 q 544 954 571 969 q 486 932 518 939 q 424 925 454 925 q 361 932 394 925 q 301 954 328 939 q 256 994 274 969 q 238 1056 238 1019 m 426 1036 q 453 1041 435 1036 q 472 1058 472 1046 q 454 1074 472 1069 q 426 1079 436 1079 q 400 1074 418 1079 q 382 1057 382 1069 q 400 1041 382 1046 q 426 1036 418 1036 m 314 200 q 303 156 308 178 q 292 111 299 133 q 320 104 306 110 q 347 89 335 99 q 367 67 360 79 q 375 42 375 56 q 349 -6 375 10 q 296 -21 324 -22 l 89 -19 q 38 -1 53 -19 q 24 53 24 18 q 40 94 24 81 q 83 110 57 108 q 92 141 88 125 q 103 172 97 157 q 185 457 147 315 q 264 742 224 599 q 207 758 224 742 q 190 815 190 775 q 208 857 190 844 q 253 872 225 869 q 423 875 338 875 q 593 875 508 875 q 649 857 625 875 q 672 804 672 839 q 650 760 672 775 q 601 743 628 744 q 684 428 644 585 q 760 111 724 271 q 803 88 786 107 q 821 42 821 69 q 795 -6 821 10 q 742 -21 769 -21 q 638 -21 689 -21 q 535 -19 586 -21 q 483 -1 497 -19 q 469 53 469 18 q 510 107 469 96 l 485 199 l 314 200 m 456 343 l 404 599 l 356 346 l 456 343 z "},"":{"ha":1167,"x_min":24,"x_max":1138,"o":"m 779 383 q 779 341 779 374 q 778 272 779 308 q 777 206 778 236 q 774 169 776 176 q 858 172 817 171 q 933 175 894 174 q 999 176 971 176 q 1003 205 1001 192 q 1010 228 1004 218 q 1026 242 1015 238 q 1056 247 1036 247 q 1081 245 1068 247 q 1106 238 1094 243 q 1125 222 1118 232 q 1132 196 1132 211 q 1125 115 1132 157 q 1111 33 1118 72 q 1091 -3 1108 10 q 1051 -17 1074 -17 q 903 -18 976 -17 q 754 -21 829 -19 l 742 -21 l 706 -21 q 667 -22 686 -22 q 628 -22 647 -22 q 581 -22 604 -22 q 535 -19 558 -21 q 484 -1 499 -19 q 469 53 469 17 q 510 107 469 96 l 501 200 l 314 200 q 303 156 308 178 q 292 111 299 133 q 320 104 306 110 q 347 89 335 99 q 367 67 360 79 q 375 42 375 56 q 349 -6 375 10 q 296 -21 324 -22 l 89 -19 q 38 -1 53 -19 q 24 53 24 18 q 40 94 24 81 q 83 110 57 108 q 92 141 88 125 q 103 172 96 157 q 156 308 126 238 q 215 451 185 378 q 272 597 244 524 q 319 742 299 671 q 263 758 279 742 q 246 815 246 775 q 263 857 246 844 q 308 872 281 869 q 478 875 393 875 q 649 875 564 875 l 664 875 q 713 874 689 874 q 761 874 738 874 l 1039 876 q 1088 868 1063 876 q 1118 832 1113 860 q 1131 762 1125 800 q 1138 690 1138 724 q 1130 668 1138 676 q 1110 655 1122 660 q 1086 649 1099 650 q 1063 647 1074 647 q 1020 660 1029 647 q 1006 703 1011 674 l 779 697 l 776 551 q 856 556 817 554 q 933 560 894 558 q 956 602 933 592 q 1006 613 978 613 q 1064 564 1058 613 q 1068 479 1067 522 q 1069 394 1069 436 q 1049 347 1069 364 q 1000 331 1029 331 q 938 381 949 331 q 858 382 897 381 q 779 383 819 383 m 486 346 l 460 599 l 356 346 l 486 346 z "},"":{"ha":699,"x_min":31,"x_max":668,"o":"m 376 144 q 413 156 400 144 q 432 185 425 168 q 440 224 439 203 q 442 261 442 244 q 442 321 442 297 q 453 360 443 344 q 484 381 463 375 q 547 388 506 388 q 585 385 564 388 q 624 374 606 382 q 656 351 643 365 q 668 317 668 338 q 655 202 668 256 q 615 106 642 149 q 549 33 589 64 q 456 -11 508 3 q 476 -35 468 -21 q 485 -69 485 -49 q 467 -128 485 -101 q 424 -174 450 -154 q 366 -204 397 -193 q 307 -215 335 -215 q 241 -190 268 -215 q 214 -125 214 -164 q 225 -106 214 -110 q 247 -103 236 -103 q 271 -103 260 -103 q 290 -101 282 -104 q 304 -90 299 -97 q 310 -65 310 -82 q 300 -37 310 -49 q 279 -15 290 -25 q 156 42 204 0 q 80 142 108 83 q 41 274 51 201 q 31 421 31 346 q 45 590 31 506 q 97 740 60 674 q 200 849 135 807 q 367 890 265 890 q 453 871 411 890 q 528 819 496 851 q 543 884 528 856 q 600 913 558 913 q 647 887 632 913 q 663 833 663 861 q 661 730 661 781 q 661 626 661 679 q 647 590 661 606 q 615 565 633 575 q 574 551 596 556 q 535 546 551 546 l 511 546 q 469 574 482 546 q 444 638 456 603 q 417 701 433 672 q 365 729 401 729 q 328 709 343 729 q 303 657 313 689 q 288 587 293 625 q 281 512 283 549 q 278 445 278 475 q 278 400 278 415 q 278 331 278 374 q 288 246 279 288 q 317 174 297 204 q 376 144 338 144 z "},"":{"ha":699,"x_min":1,"x_max":669,"o":"m 476 976 q 467 951 476 961 q 442 935 457 942 q 412 927 428 929 q 385 925 396 925 q 338 942 365 925 q 284 984 310 960 q 240 1035 258 1008 q 222 1082 222 1063 q 235 1111 222 1100 q 266 1128 249 1122 q 303 1135 283 1133 q 335 1138 322 1138 q 404 1101 379 1138 q 423 1076 411 1093 q 447 1039 435 1058 q 467 1002 458 1019 q 476 976 476 985 m 311 383 q 311 341 311 374 q 310 272 311 308 q 309 206 310 236 q 306 169 308 176 q 390 172 349 171 q 465 175 426 174 q 531 176 503 176 q 535 205 533 192 q 542 228 536 218 q 558 242 547 238 q 588 247 568 247 q 613 245 600 247 q 638 238 626 243 q 657 222 650 232 q 664 196 664 211 q 657 115 664 157 q 643 33 650 72 q 623 -3 640 10 q 583 -17 606 -17 q 372 -19 476 -17 q 160 -22 267 -21 q 113 -22 136 -22 q 67 -19 90 -21 q 16 -1 31 -19 q 1 53 1 18 q 19 96 1 83 q 65 110 38 108 l 64 743 q 15 764 28 744 q 1 817 1 783 q 19 858 1 844 q 63 872 36 871 q 178 874 121 875 q 293 874 235 874 l 571 876 q 619 868 594 876 q 650 832 644 860 q 663 762 657 800 q 669 690 669 724 q 662 668 669 676 q 642 655 654 660 q 618 649 631 650 q 594 647 606 647 q 552 660 561 647 q 538 703 543 674 l 311 697 l 308 551 q 388 556 349 554 q 465 560 426 558 q 488 602 465 592 q 538 613 510 613 q 596 564 590 613 q 600 479 599 522 q 601 394 601 436 q 581 347 601 364 q 532 331 561 331 q 469 381 481 331 q 390 382 429 381 q 311 383 351 383 z "},"":{"ha":699,"x_min":1,"x_max":669,"o":"m 304 925 q 278 927 293 925 q 249 935 263 929 q 225 951 235 940 q 215 976 215 961 q 226 1003 215 986 q 250 1040 236 1021 q 278 1076 264 1058 q 299 1101 292 1093 q 371 1138 326 1138 q 403 1135 383 1138 q 440 1127 422 1133 q 470 1110 457 1121 q 483 1082 483 1099 q 469 1057 483 1075 q 435 1018 454 1039 q 397 978 415 997 q 371 953 378 960 q 340 933 357 940 q 304 925 324 925 m 311 383 q 311 341 311 374 q 310 272 311 308 q 309 206 310 236 q 306 169 308 176 q 390 172 349 171 q 465 175 426 174 q 531 176 503 176 q 535 205 533 192 q 542 228 536 218 q 558 242 547 238 q 588 247 568 247 q 613 245 600 247 q 638 238 626 243 q 657 222 650 232 q 664 196 664 211 q 657 115 664 157 q 643 33 650 72 q 623 -3 640 10 q 583 -17 606 -17 q 372 -19 476 -17 q 160 -22 267 -21 q 113 -22 136 -22 q 67 -19 90 -21 q 16 -1 31 -19 q 1 53 1 18 q 19 96 1 83 q 65 110 38 108 l 64 743 q 15 764 28 744 q 1 817 1 783 q 19 858 1 844 q 63 872 36 871 q 178 874 121 875 q 293 874 235 874 l 571 876 q 619 868 594 876 q 650 832 644 860 q 663 762 657 800 q 669 690 669 724 q 662 668 669 676 q 642 655 654 660 q 618 649 631 650 q 594 647 606 647 q 552 660 561 647 q 538 703 543 674 l 311 697 l 308 551 q 388 556 349 554 q 465 560 426 558 q 488 602 465 592 q 538 613 510 613 q 596 564 590 613 q 600 479 599 522 q 601 394 601 436 q 581 347 601 364 q 532 331 561 331 q 469 381 481 331 q 390 382 429 381 q 311 383 351 383 z "},"":{"ha":699,"x_min":1,"x_max":669,"o":"m 350 1011 q 330 987 343 1001 q 300 958 317 972 q 267 935 283 944 q 238 926 250 926 q 214 930 228 926 q 189 941 200 933 q 169 958 178 949 q 161 981 161 968 q 183 1028 161 1003 q 237 1076 206 1054 q 301 1112 268 1097 q 354 1126 333 1126 q 399 1114 369 1126 q 460 1084 429 1101 q 515 1047 492 1067 q 538 1010 538 1026 q 528 985 538 997 q 507 963 519 972 q 480 947 494 953 q 453 942 465 942 q 426 949 440 942 q 398 968 413 957 q 371 991 383 979 q 350 1011 358 1003 m 311 383 q 311 341 311 374 q 310 272 311 308 q 309 206 310 236 q 306 169 308 176 q 390 172 349 171 q 465 175 426 174 q 531 176 503 176 q 535 205 533 192 q 542 228 536 218 q 558 242 547 238 q 588 247 568 247 q 613 245 600 247 q 638 238 626 243 q 657 222 650 232 q 664 196 664 211 q 657 115 664 157 q 643 33 650 72 q 623 -3 640 10 q 583 -17 606 -17 q 372 -19 476 -17 q 160 -22 267 -21 q 113 -22 136 -22 q 67 -19 90 -21 q 16 -1 31 -19 q 1 53 1 18 q 19 96 1 83 q 65 110 38 108 l 64 743 q 15 764 28 744 q 1 817 1 783 q 19 858 1 844 q 63 872 36 871 q 178 874 121 875 q 293 874 235 874 l 571 876 q 619 868 594 876 q 650 832 644 860 q 663 762 657 800 q 669 690 669 724 q 662 668 669 676 q 642 655 654 660 q 618 649 631 650 q 594 647 606 647 q 552 660 561 647 q 538 703 543 674 l 311 697 l 308 551 q 388 556 349 554 q 465 560 426 558 q 488 602 465 592 q 538 613 510 613 q 596 564 590 613 q 600 479 599 522 q 601 394 601 436 q 581 347 601 364 q 532 331 561 331 q 469 381 481 331 q 390 382 429 381 q 311 383 351 383 z "},"":{"ha":699,"x_min":1,"x_max":669,"o":"m 108 1038 q 119 1078 108 1061 q 146 1106 129 1094 q 183 1122 163 1117 q 224 1128 203 1128 q 265 1122 244 1128 q 301 1106 285 1117 q 328 1078 318 1094 q 339 1038 339 1061 q 328 998 339 1015 q 301 969 318 981 q 265 953 285 958 q 224 947 244 947 q 183 953 204 947 q 146 970 163 958 q 119 999 129 982 q 108 1038 108 1015 m 360 1038 q 370 1078 360 1061 q 397 1106 381 1094 q 434 1122 414 1117 q 475 1128 454 1128 q 516 1122 496 1128 q 553 1106 536 1117 q 580 1078 569 1094 q 590 1038 590 1061 q 580 998 590 1015 q 553 969 569 981 q 516 953 536 958 q 475 947 496 947 q 435 953 456 947 q 397 970 414 958 q 370 999 381 982 q 360 1038 360 1015 m 311 383 q 311 341 311 374 q 310 272 311 308 q 309 206 310 236 q 306 169 308 176 q 390 172 349 171 q 465 175 426 174 q 531 176 503 176 q 535 205 533 192 q 542 228 536 218 q 558 242 547 238 q 588 247 568 247 q 613 245 600 247 q 638 238 626 243 q 657 222 650 232 q 664 196 664 211 q 657 115 664 157 q 643 33 650 72 q 623 -3 640 10 q 583 -17 606 -17 q 372 -19 476 -17 q 160 -22 267 -21 q 113 -22 136 -22 q 67 -19 90 -21 q 16 -1 31 -19 q 1 53 1 18 q 19 96 1 83 q 65 110 38 108 l 64 743 q 15 764 28 744 q 1 817 1 783 q 19 858 1 844 q 63 872 36 871 q 178 874 121 875 q 293 874 235 874 l 571 876 q 619 868 594 876 q 650 832 644 860 q 663 762 657 800 q 669 690 669 724 q 662 668 669 676 q 642 655 654 660 q 618 649 631 650 q 594 647 606 647 q 552 660 561 647 q 538 703 543 674 l 311 697 l 308 551 q 388 556 349 554 q 465 560 426 558 q 488 602 465 592 q 538 613 510 613 q 596 564 590 613 q 600 479 599 522 q 601 394 601 436 q 581 347 601 364 q 532 331 561 331 q 469 381 481 331 q 390 382 429 381 q 311 383 351 383 z "},"":{"ha":549,"x_min":19,"x_max":531,"o":"m 401 976 q 392 951 401 961 q 367 935 382 942 q 337 927 353 929 q 310 925 321 925 q 263 942 290 925 q 209 984 235 960 q 165 1035 183 1008 q 147 1082 147 1063 q 160 1111 147 1100 q 191 1128 174 1122 q 228 1135 208 1133 q 260 1138 247 1138 q 329 1101 304 1138 q 348 1076 336 1093 q 372 1039 360 1058 q 392 1002 383 1019 q 401 976 401 985 m 158 718 q 119 719 142 718 q 78 725 97 719 q 44 743 58 731 q 31 779 31 756 q 49 844 31 825 q 113 863 67 863 l 447 864 q 511 844 492 864 q 531 781 531 825 q 516 747 531 758 q 481 728 501 735 q 438 721 460 722 q 400 718 415 719 l 393 129 q 435 126 411 129 q 479 116 458 124 q 514 94 500 108 q 528 54 528 79 q 510 -6 528 8 q 449 -19 493 -19 l 103 -19 q 40 -5 60 -19 q 19 54 19 10 q 32 92 19 78 q 63 113 44 106 q 104 123 82 121 q 144 125 126 125 l 151 124 l 158 718 z "},"":{"ha":549,"x_min":19,"x_max":531,"o":"m 229 925 q 203 927 218 925 q 174 935 188 929 q 150 951 160 940 q 140 976 140 961 q 151 1003 140 986 q 175 1040 161 1021 q 203 1076 189 1058 q 224 1101 217 1093 q 296 1138 251 1138 q 328 1135 308 1138 q 365 1127 347 1133 q 395 1110 382 1121 q 408 1082 408 1099 q 394 1057 408 1075 q 360 1018 379 1039 q 322 978 340 997 q 296 953 303 960 q 265 933 282 940 q 229 925 249 925 m 158 718 q 119 719 142 718 q 78 725 97 719 q 44 743 58 731 q 31 779 31 756 q 49 844 31 825 q 113 863 67 863 l 447 864 q 511 844 492 864 q 531 781 531 825 q 516 747 531 758 q 481 728 501 735 q 438 721 460 722 q 400 718 415 719 l 393 129 q 435 126 411 129 q 479 116 458 124 q 514 94 500 108 q 528 54 528 79 q 510 -6 528 8 q 449 -19 493 -19 l 103 -19 q 40 -5 60 -19 q 19 54 19 10 q 32 92 19 78 q 63 113 44 106 q 104 123 82 121 q 144 125 126 125 l 151 124 l 158 718 z "},"":{"ha":549,"x_min":19,"x_max":531,"o":"m 275 1011 q 255 987 268 1001 q 225 958 242 972 q 192 935 208 944 q 163 926 175 926 q 139 930 153 926 q 114 941 125 933 q 94 958 103 949 q 86 981 86 968 q 108 1028 86 1003 q 162 1076 131 1054 q 226 1112 193 1097 q 279 1126 258 1126 q 324 1114 294 1126 q 385 1084 354 1101 q 440 1047 417 1067 q 463 1010 463 1026 q 453 985 463 997 q 432 963 444 972 q 405 947 419 953 q 378 942 390 942 q 351 949 365 942 q 323 968 338 957 q 296 991 308 979 q 275 1011 283 1003 m 158 718 q 119 719 142 718 q 78 725 97 719 q 44 743 58 731 q 31 779 31 756 q 49 844 31 825 q 113 863 67 863 l 447 864 q 511 844 492 864 q 531 781 531 825 q 516 747 531 758 q 481 728 501 735 q 438 721 460 722 q 400 718 415 719 l 393 129 q 435 126 411 129 q 479 116 458 124 q 514 94 500 108 q 528 54 528 79 q 510 -6 528 8 q 449 -19 493 -19 l 103 -19 q 40 -5 60 -19 q 19 54 19 10 q 32 92 19 78 q 63 113 44 106 q 104 123 82 121 q 144 125 126 125 l 151 124 l 158 718 z "},"":{"ha":549,"x_min":19,"x_max":531,"o":"m 33 1038 q 44 1078 33 1061 q 71 1106 54 1094 q 108 1122 88 1117 q 149 1128 128 1128 q 190 1122 169 1128 q 226 1106 210 1117 q 253 1078 243 1094 q 264 1038 264 1061 q 253 998 264 1015 q 226 969 243 981 q 190 953 210 958 q 149 947 169 947 q 108 953 129 947 q 71 970 88 958 q 44 999 54 982 q 33 1038 33 1015 m 285 1038 q 295 1078 285 1061 q 322 1106 306 1094 q 359 1122 339 1117 q 400 1128 379 1128 q 441 1122 421 1128 q 478 1106 461 1117 q 505 1078 494 1094 q 515 1038 515 1061 q 505 998 515 1015 q 478 969 494 981 q 441 953 461 958 q 400 947 421 947 q 360 953 381 947 q 322 970 339 958 q 295 999 306 982 q 285 1038 285 1015 m 158 718 q 119 719 142 718 q 78 725 97 719 q 44 743 58 731 q 31 779 31 756 q 49 844 31 825 q 113 863 67 863 l 447 864 q 511 844 492 864 q 531 781 531 825 q 516 747 531 758 q 481 728 501 735 q 438 721 460 722 q 400 718 415 719 l 393 129 q 435 126 411 129 q 479 116 458 124 q 514 94 500 108 q 528 54 528 79 q 510 -6 528 8 q 449 -19 493 -19 l 103 -19 q 40 -5 60 -19 q 19 54 19 10 q 32 92 19 78 q 63 113 44 106 q 104 123 82 121 q 144 125 126 125 l 151 124 l 158 718 z "},"":{"ha":775,"x_min":-56,"x_max":736,"o":"m 286 -21 q 182 -21 233 -21 q 79 -19 131 -21 q 28 0 43 -19 q 14 53 14 19 q 33 97 14 83 q 79 110 51 110 q 77 269 78 190 q 75 429 76 349 l 47 429 q 15 431 33 429 q -18 440 -3 433 q -44 459 -33 447 q -56 489 -56 471 l -56 514 q -46 549 -56 536 q -21 570 -36 563 q 13 581 -6 578 q 49 583 31 583 q 61 583 56 583 q 74 582 67 583 l 74 743 q 26 765 39 744 q 14 817 14 785 q 31 858 14 844 q 75 872 49 871 q 176 877 125 875 q 276 879 226 879 l 357 879 q 522 856 451 879 q 641 782 593 833 q 713 647 689 731 q 736 442 736 564 q 713 260 736 344 q 637 113 690 175 q 497 15 583 50 q 286 -21 411 -21 m 322 576 q 370 560 349 574 q 392 518 392 547 l 392 496 q 370 448 392 464 q 321 429 349 432 l 318 142 q 331 140 325 140 q 344 140 338 140 q 432 173 401 140 q 476 253 463 206 q 491 353 489 300 q 493 449 493 407 q 490 528 493 483 q 473 613 486 574 q 434 680 460 653 q 363 707 408 707 l 324 707 l 322 576 z "},"":{"ha":800,"x_min":8,"x_max":792,"o":"m 332 986 q 312 978 321 986 q 293 959 303 969 q 270 940 283 949 q 236 931 257 931 q 179 949 204 931 q 154 1003 154 967 q 172 1050 154 1028 q 215 1088 189 1072 q 269 1114 240 1104 q 319 1124 297 1124 q 374 1114 351 1124 q 415 1092 397 1104 q 448 1069 433 1079 q 476 1060 463 1060 q 494 1070 486 1060 q 512 1092 501 1081 q 537 1115 522 1104 q 576 1125 551 1125 q 626 1109 606 1125 q 647 1063 647 1093 q 631 1015 647 1039 q 591 971 615 990 q 540 939 567 951 q 490 926 513 926 q 436 935 460 926 q 394 956 413 944 q 361 977 376 968 q 332 986 346 986 m 297 110 q 343 88 326 104 q 360 42 360 72 q 334 -6 360 10 q 281 -21 308 -22 l 74 -19 q 23 0 38 -19 q 8 53 8 19 q 26 92 8 81 q 68 110 44 104 l 74 743 q 23 763 38 743 q 8 817 8 782 q 23 854 8 842 q 59 872 38 867 q 104 876 81 876 q 146 876 128 876 q 194 876 168 876 q 244 870 219 875 q 291 853 269 865 q 325 818 313 842 l 507 489 l 503 746 q 458 761 475 747 q 440 803 440 775 q 455 856 440 838 q 506 876 469 875 l 713 878 q 766 863 740 878 q 792 815 792 847 q 775 769 792 788 q 732 746 758 751 l 724 114 q 771 95 750 111 q 792 51 792 79 q 777 6 792 21 q 741 -15 763 -8 q 694 -21 719 -21 q 649 -21 669 -21 q 624 -20 636 -21 q 599 -19 611 -19 q 552 6 564 -17 q 528 51 540 28 l 294 465 l 297 110 z "},"":{"ha":836,"x_min":36,"x_max":801,"o":"m 546 976 q 535 951 546 961 q 510 935 525 942 q 481 927 496 929 q 454 925 465 925 q 407 942 435 925 q 353 984 379 960 q 308 1035 326 1008 q 290 1082 290 1063 q 303 1111 290 1100 q 335 1128 317 1122 q 372 1135 353 1133 q 404 1138 392 1138 q 474 1101 449 1138 q 492 1076 481 1093 q 516 1039 504 1058 q 537 1002 528 1019 q 546 976 546 985 m 406 -22 q 215 13 288 -22 q 102 112 142 49 q 49 262 63 175 q 36 451 36 349 q 52 633 36 553 q 110 770 68 714 q 224 856 151 826 q 407 886 296 886 q 595 855 519 886 q 717 765 671 824 q 782 624 763 707 q 801 436 801 540 q 785 238 801 324 q 726 95 769 153 q 605 8 682 38 q 406 -22 528 -22 m 419 719 q 344 689 371 719 q 306 615 318 658 q 291 525 293 572 q 289 443 289 478 q 291 354 289 406 q 307 255 293 303 q 349 174 321 207 q 431 140 378 140 q 503 177 478 140 q 541 265 529 214 q 555 368 553 315 q 557 454 557 421 q 554 536 557 490 q 538 623 551 582 q 497 692 525 664 q 419 719 469 719 z "},"":{"ha":836,"x_min":36,"x_max":801,"o":"m 374 925 q 347 927 363 925 q 317 935 331 929 q 293 951 303 940 q 283 976 283 961 q 294 1003 283 986 q 318 1040 304 1021 q 347 1076 332 1058 q 368 1101 361 1093 q 399 1129 383 1121 q 439 1138 415 1138 q 471 1135 451 1138 q 508 1127 490 1133 q 540 1110 526 1121 q 553 1082 553 1099 q 538 1057 553 1075 q 503 1018 522 1039 q 465 978 483 997 q 440 953 447 960 q 409 933 425 940 q 374 925 393 925 m 406 -22 q 215 13 288 -22 q 102 112 142 49 q 49 262 63 175 q 36 451 36 349 q 52 633 36 553 q 110 770 68 714 q 224 856 151 826 q 407 886 296 886 q 595 855 519 886 q 717 765 671 824 q 782 624 763 707 q 801 436 801 540 q 785 238 801 324 q 726 95 769 153 q 605 8 682 38 q 406 -22 528 -22 m 419 719 q 344 689 371 719 q 306 615 318 658 q 291 525 293 572 q 289 443 289 478 q 291 354 289 406 q 307 255 293 303 q 349 174 321 207 q 431 140 378 140 q 503 177 478 140 q 541 265 529 214 q 555 368 553 315 q 557 454 557 421 q 554 536 557 490 q 538 623 551 582 q 497 692 525 664 q 419 719 469 719 z "},"":{"ha":836,"x_min":36,"x_max":801,"o":"m 419 1011 q 399 987 413 1001 q 369 958 385 972 q 336 935 353 944 q 307 926 319 926 q 283 930 296 926 q 258 941 269 933 q 238 958 246 949 q 231 981 231 968 q 253 1028 231 1003 q 306 1076 275 1054 q 369 1112 338 1097 q 422 1126 401 1126 q 467 1114 438 1126 q 528 1084 497 1101 q 583 1047 560 1067 q 606 1010 606 1026 q 597 985 606 997 q 575 963 588 972 q 548 947 563 953 q 522 942 533 942 q 496 949 510 942 q 467 968 482 957 q 440 991 453 979 q 419 1011 428 1003 m 406 -22 q 215 13 288 -22 q 102 112 142 49 q 49 262 63 175 q 36 451 36 349 q 52 633 36 553 q 110 770 68 714 q 224 856 151 826 q 407 886 296 886 q 595 855 519 886 q 717 765 671 824 q 782 624 763 707 q 801 436 801 540 q 785 238 801 324 q 726 95 769 153 q 605 8 682 38 q 406 -22 528 -22 m 419 719 q 344 689 371 719 q 306 615 318 658 q 291 525 293 572 q 289 443 289 478 q 291 354 289 406 q 307 255 293 303 q 349 174 321 207 q 431 140 378 140 q 503 177 478 140 q 541 265 529 214 q 555 368 553 315 q 557 454 557 421 q 554 536 557 490 q 538 623 551 582 q 497 692 525 664 q 419 719 469 719 z "},"":{"ha":836,"x_min":36,"x_max":801,"o":"m 350 986 q 330 978 339 986 q 311 959 321 969 q 288 940 301 949 q 254 931 275 931 q 197 949 222 931 q 172 1003 172 967 q 190 1050 172 1028 q 233 1088 207 1072 q 287 1114 258 1104 q 338 1124 315 1124 q 392 1114 369 1124 q 433 1092 415 1104 q 466 1069 451 1079 q 494 1060 481 1060 q 512 1070 504 1060 q 530 1092 519 1081 q 555 1115 540 1104 q 594 1125 569 1125 q 644 1109 624 1125 q 665 1063 665 1093 q 649 1015 665 1039 q 609 971 633 990 q 558 939 585 951 q 508 926 531 926 q 454 935 478 926 q 413 956 431 944 q 379 977 394 968 q 350 986 364 986 m 406 -22 q 215 13 288 -22 q 102 112 142 49 q 49 262 63 175 q 36 451 36 349 q 52 633 36 553 q 110 770 68 714 q 224 856 151 826 q 407 886 296 886 q 595 855 519 886 q 717 765 671 824 q 782 624 763 707 q 801 436 801 540 q 785 238 801 324 q 726 95 769 153 q 605 8 682 38 q 406 -22 528 -22 m 419 719 q 344 689 371 719 q 306 615 318 658 q 291 525 293 572 q 289 443 289 478 q 291 354 289 406 q 307 255 293 303 q 349 174 321 207 q 431 140 378 140 q 503 177 478 140 q 541 265 529 214 q 555 368 553 315 q 557 454 557 421 q 554 536 557 490 q 538 623 551 582 q 497 692 525 664 q 419 719 469 719 z "},"":{"ha":836,"x_min":36,"x_max":801,"o":"m 176 1038 q 187 1078 176 1061 q 214 1106 197 1094 q 251 1122 231 1117 q 292 1128 272 1128 q 333 1122 313 1128 q 371 1106 354 1117 q 398 1078 388 1094 q 408 1038 408 1061 q 398 998 408 1015 q 371 969 388 981 q 333 953 354 958 q 292 947 313 947 q 252 953 272 947 q 215 970 232 958 q 188 999 199 982 q 176 1038 176 1015 m 429 1038 q 440 1078 429 1061 q 467 1106 450 1094 q 503 1122 483 1117 q 544 1128 524 1128 q 585 1122 564 1128 q 622 1106 606 1117 q 649 1078 639 1094 q 660 1038 660 1061 q 649 998 660 1015 q 622 969 639 981 q 585 953 606 958 q 544 947 564 947 q 504 953 525 947 q 467 970 483 958 q 440 999 450 982 q 429 1038 429 1015 m 406 -22 q 215 13 288 -22 q 102 112 142 49 q 49 262 63 175 q 36 451 36 349 q 52 633 36 553 q 110 770 68 714 q 224 856 151 826 q 407 886 296 886 q 595 855 519 886 q 717 765 671 824 q 782 624 763 707 q 801 436 801 540 q 785 238 801 324 q 726 95 769 153 q 605 8 682 38 q 406 -22 528 -22 m 419 719 q 344 689 371 719 q 306 615 318 658 q 291 525 293 572 q 289 443 289 478 q 291 354 289 406 q 307 255 293 303 q 349 174 321 207 q 431 140 378 140 q 503 177 478 140 q 541 265 529 214 q 555 368 553 315 q 557 454 557 421 q 554 536 557 490 q 538 623 551 582 q 497 692 525 664 q 419 719 469 719 z "},"":{"ha":583,"x_min":71,"x_max":529,"o":"m 186 449 q 157 468 176 456 q 118 495 138 481 q 85 525 99 510 q 71 553 71 540 q 83 583 71 568 q 111 609 94 597 q 146 628 128 621 q 176 636 164 636 q 210 626 193 636 q 241 601 226 615 q 269 570 256 586 q 293 543 282 554 q 319 574 306 556 q 347 607 332 592 q 378 633 361 622 q 415 644 396 644 q 449 637 429 644 q 486 617 468 629 q 517 589 504 604 q 529 558 529 574 q 515 528 529 544 q 480 498 500 513 q 440 470 460 483 q 410 449 421 457 q 438 431 419 442 q 475 408 457 421 q 507 383 493 396 q 521 356 521 369 q 509 326 521 340 q 481 301 497 313 q 446 283 464 290 q 415 276 428 276 q 383 285 397 276 q 355 308 368 294 q 330 335 342 321 q 307 361 318 350 q 285 335 297 350 q 260 306 274 319 q 233 282 247 292 q 200 272 218 272 q 167 278 186 272 q 132 297 149 285 q 104 323 115 308 q 93 354 93 338 q 104 381 93 368 q 130 407 115 394 q 160 430 144 419 q 186 449 176 440 z "},"":{"ha":836,"x_min":36,"x_max":801,"o":"m 406 -22 l 383 -22 q 379 -32 379 -31 q 358 -58 367 -49 q 341 -73 350 -68 q 321 -78 332 -78 q 290 -79 310 -79 q 254 -78 275 -79 q 214 -71 233 -76 q 180 -53 194 -65 q 164 -22 165 -42 l 164 -18 q 167 -3 164 -15 q 178 33 171 10 q 107 105 135 63 q 63 201 79 147 q 42 317 47 254 q 36 451 36 381 q 52 633 36 553 q 110 770 68 714 q 224 856 151 826 q 407 886 296 886 q 432 886 419 886 q 457 885 444 886 q 467 910 465 908 q 485 932 478 924 q 501 945 493 940 q 522 951 510 950 q 551 953 533 953 q 585 949 565 953 q 625 938 606 946 q 658 917 644 929 q 672 886 672 904 q 656 822 672 876 q 769 667 736 765 q 801 436 801 569 q 785 238 801 324 q 726 95 769 153 q 605 8 682 38 q 406 -22 528 -22 m 289 383 q 347 558 318 471 q 400 718 375 644 q 336 679 358 711 q 303 606 314 647 q 291 519 293 564 q 289 443 289 475 l 289 383 m 439 140 q 507 182 483 144 q 542 269 531 219 q 555 371 553 319 q 557 454 557 422 l 557 501 q 496 311 526 406 q 439 140 465 217 z "},"":{"ha":821,"x_min":7,"x_max":807,"o":"m 538 976 q 528 951 538 961 q 503 935 518 942 q 473 927 489 929 q 446 925 457 925 q 399 942 426 925 q 345 984 371 960 q 301 1035 319 1008 q 283 1082 283 1063 q 297 1111 283 1100 q 327 1128 310 1122 q 364 1135 344 1133 q 396 1138 383 1138 q 465 1101 440 1138 q 484 1076 472 1093 q 508 1039 496 1058 q 528 1002 519 1019 q 538 976 538 985 m 658 -14 q 599 7 629 -14 q 560 58 568 28 q 559 75 558 67 q 558 92 560 83 q 554 88 556 92 q 551 83 553 85 q 474 8 521 31 q 364 -15 426 -15 q 135 69 217 -15 q 53 300 53 153 q 56 522 53 411 q 60 744 58 632 q 17 768 28 747 q 7 817 7 789 q 24 858 7 846 q 68 872 42 871 q 174 876 121 876 q 279 875 226 875 q 335 856 311 875 q 358 804 358 838 q 348 771 358 785 q 321 750 338 757 q 316 537 319 643 q 313 324 313 431 q 316 281 313 306 q 328 233 319 256 q 353 193 338 210 q 393 176 369 176 q 435 190 414 176 q 474 225 457 204 q 501 270 490 246 q 513 314 513 294 l 522 744 q 471 763 486 744 q 456 817 456 782 q 473 858 456 846 q 517 874 490 871 q 622 876 569 876 q 728 876 675 876 q 783 858 760 876 q 807 806 807 839 q 797 772 807 786 q 769 751 786 758 l 768 93 q 658 -14 768 -14 z "},"":{"ha":821,"x_min":7,"x_max":807,"o":"m 365 925 q 339 927 354 925 q 310 935 324 929 q 286 951 296 940 q 276 976 276 961 q 287 1003 276 986 q 311 1040 297 1021 q 339 1076 325 1058 q 360 1101 353 1093 q 432 1138 388 1138 q 464 1135 444 1138 q 501 1127 483 1133 q 531 1110 518 1121 q 544 1082 544 1099 q 530 1057 544 1075 q 496 1018 515 1039 q 458 978 476 997 q 432 953 439 960 q 401 933 418 940 q 365 925 385 925 m 658 -14 q 599 7 629 -14 q 560 58 568 28 q 559 75 558 67 q 558 92 560 83 q 554 88 556 92 q 551 83 553 85 q 474 8 521 31 q 364 -15 426 -15 q 135 69 217 -15 q 53 300 53 153 q 56 522 53 411 q 60 744 58 632 q 17 768 28 747 q 7 817 7 789 q 24 858 7 846 q 68 872 42 871 q 174 876 121 876 q 279 875 226 875 q 335 856 311 875 q 358 804 358 838 q 348 771 358 785 q 321 750 338 757 q 316 537 319 643 q 313 324 313 431 q 316 281 313 306 q 328 233 319 256 q 353 193 338 210 q 393 176 369 176 q 435 190 414 176 q 474 225 457 204 q 501 270 490 246 q 513 314 513 294 l 522 744 q 471 763 486 744 q 456 817 456 782 q 473 858 456 846 q 517 874 490 871 q 622 876 569 876 q 728 876 675 876 q 783 858 760 876 q 807 806 807 839 q 797 772 807 786 q 769 751 786 758 l 768 93 q 658 -14 768 -14 z "},"":{"ha":821,"x_min":7,"x_max":807,"o":"m 411 1011 q 391 987 404 1001 q 361 958 378 972 q 328 935 344 944 q 299 926 311 926 q 275 930 289 926 q 250 941 261 933 q 231 958 239 949 q 222 981 222 968 q 244 1028 222 1003 q 298 1076 267 1054 q 362 1112 329 1097 q 415 1126 394 1126 q 460 1114 431 1126 q 522 1084 490 1101 q 576 1047 553 1067 q 599 1010 599 1026 q 590 985 599 997 q 568 963 581 972 q 541 947 556 953 q 514 942 526 942 q 488 949 501 942 q 459 968 474 957 q 432 991 444 979 q 411 1011 419 1003 m 658 -14 q 599 7 629 -14 q 560 58 568 28 q 559 75 558 67 q 558 92 560 83 q 554 88 556 92 q 551 83 553 85 q 474 8 521 31 q 364 -15 426 -15 q 135 69 217 -15 q 53 300 53 153 q 56 522 53 411 q 60 744 58 632 q 17 768 28 747 q 7 817 7 789 q 24 858 7 846 q 68 872 42 871 q 174 876 121 876 q 279 875 226 875 q 335 856 311 875 q 358 804 358 838 q 348 771 358 785 q 321 750 338 757 q 316 537 319 643 q 313 324 313 431 q 316 281 313 306 q 328 233 319 256 q 353 193 338 210 q 393 176 369 176 q 435 190 414 176 q 474 225 457 204 q 501 270 490 246 q 513 314 513 294 l 522 744 q 471 763 486 744 q 456 817 456 782 q 473 858 456 846 q 517 874 490 871 q 622 876 569 876 q 728 876 675 876 q 783 858 760 876 q 807 806 807 839 q 797 772 807 786 q 769 751 786 758 l 768 93 q 658 -14 768 -14 z "},"":{"ha":821,"x_min":7,"x_max":807,"o":"m 169 1038 q 180 1078 169 1061 q 207 1106 190 1094 q 244 1122 224 1117 q 285 1128 264 1128 q 326 1122 306 1128 q 363 1106 346 1117 q 390 1078 379 1094 q 400 1038 400 1061 q 390 998 400 1015 q 363 969 379 981 q 326 953 346 958 q 285 947 306 947 q 244 953 265 947 q 207 970 224 958 q 180 999 190 982 q 169 1038 169 1015 m 421 1038 q 431 1078 421 1061 q 458 1106 442 1094 q 495 1122 475 1117 q 536 1128 515 1128 q 577 1122 557 1128 q 614 1106 597 1117 q 641 1078 631 1094 q 651 1038 651 1061 q 641 998 651 1015 q 614 969 631 981 q 577 953 597 958 q 536 947 557 947 q 496 953 517 947 q 458 970 475 958 q 431 999 442 982 q 421 1038 421 1015 m 658 -14 q 599 7 629 -14 q 560 58 568 28 q 559 75 558 67 q 558 92 560 83 q 554 88 556 92 q 551 83 553 85 q 474 8 521 31 q 364 -15 426 -15 q 135 69 217 -15 q 53 300 53 153 q 56 522 53 411 q 60 744 58 632 q 17 768 28 747 q 7 817 7 789 q 24 858 7 846 q 68 872 42 871 q 174 876 121 876 q 279 875 226 875 q 335 856 311 875 q 358 804 358 838 q 348 771 358 785 q 321 750 338 757 q 316 537 319 643 q 313 324 313 431 q 316 281 313 306 q 328 233 319 256 q 353 193 338 210 q 393 176 369 176 q 435 190 414 176 q 474 225 457 204 q 501 270 490 246 q 513 314 513 294 l 522 744 q 471 763 486 744 q 456 817 456 782 q 473 858 456 846 q 517 874 490 871 q 622 876 569 876 q 728 876 675 876 q 783 858 760 876 q 807 806 807 839 q 797 772 807 786 q 769 751 786 758 l 768 93 q 658 -14 768 -14 z "},"":{"ha":792,"x_min":-6,"x_max":790,"o":"m 351 925 q 324 927 340 925 q 294 935 308 929 q 271 951 281 940 q 261 976 261 961 q 272 1003 261 986 q 296 1040 282 1021 q 324 1076 310 1058 q 346 1101 339 1093 q 377 1129 361 1121 q 417 1138 393 1138 q 449 1135 429 1138 q 486 1127 468 1133 q 517 1110 504 1121 q 531 1082 531 1099 q 515 1057 531 1075 q 481 1018 500 1039 q 443 978 461 997 q 418 953 425 960 q 387 933 403 940 q 351 925 371 925 m 308 -19 q 236 53 236 -19 q 250 88 236 75 q 283 106 264 100 q 281 217 279 161 q 281 328 283 272 q 169 533 224 431 q 68 743 115 636 q 11 760 28 743 q -6 817 -6 778 q 9 851 -6 839 q 44 869 24 864 q 88 876 65 875 q 126 878 111 878 q 165 877 146 878 q 203 876 183 876 q 251 877 224 876 q 301 872 278 878 q 341 851 325 865 q 357 804 357 836 q 344 769 357 783 q 314 749 332 756 l 422 519 l 501 753 q 481 781 486 764 q 475 817 475 799 q 488 851 475 839 q 521 870 501 864 q 562 878 540 876 q 599 879 583 879 q 635 878 618 879 q 672 876 653 876 q 717 876 696 876 q 754 870 738 876 q 781 849 771 864 q 790 803 790 833 q 770 757 790 772 q 722 743 750 742 q 624 542 671 643 q 529 342 578 442 l 529 111 q 576 90 558 106 q 594 42 594 74 q 569 -6 594 10 q 515 -21 543 -22 l 308 -19 z "},"":{"ha":760,"x_min":13,"x_max":728,"o":"m 303 743 q 378 751 340 751 q 513 730 449 751 q 624 667 576 708 q 700 567 672 626 q 728 433 728 508 q 713 315 728 375 q 667 204 699 254 q 588 122 636 154 q 472 90 539 90 q 388 101 429 90 q 307 126 347 113 l 308 82 q 354 60 338 76 q 371 14 371 44 q 345 -34 371 -18 q 292 -49 319 -50 l 85 -47 q 13 25 13 -47 q 31 64 13 51 q 71 81 49 76 l 60 775 q 24 801 35 782 q 13 844 13 819 q 27 879 13 867 q 62 897 42 892 q 104 904 82 903 q 142 906 126 906 q 179 905 161 906 q 217 904 197 904 q 265 905 238 904 q 315 900 292 906 q 355 879 339 894 q 371 832 371 864 q 349 788 371 804 q 303 769 328 772 l 303 743 m 306 304 q 328 283 314 292 q 358 269 342 275 q 390 262 374 264 q 421 260 407 260 q 458 275 444 260 q 477 312 471 290 q 485 357 483 333 q 486 397 486 381 q 485 459 486 426 q 476 520 485 492 q 446 567 467 549 q 385 586 425 586 q 304 574 344 586 l 306 304 z "},"":{"ha":726,"x_min":17,"x_max":681,"o":"m 76 -19 q 31 2 44 -19 q 17 53 17 24 q 31 91 17 78 q 69 110 46 104 q 65 267 65 189 q 68 425 65 346 q 28 449 39 426 q 17 497 17 472 q 35 540 17 526 q 81 557 54 554 q 115 689 92 628 q 176 795 138 750 q 271 865 214 840 q 407 890 328 890 q 504 867 456 890 q 592 807 553 844 q 655 722 631 769 q 679 625 679 675 q 661 564 679 592 q 622 512 643 536 q 583 467 601 488 q 565 431 565 447 q 583 390 565 407 q 623 351 601 372 q 663 302 644 331 q 681 228 681 274 q 652 143 681 182 q 582 76 624 104 q 492 32 540 47 q 403 17 443 17 q 350 40 371 17 q 329 96 329 64 q 349 149 329 136 q 392 169 368 163 q 436 185 417 175 q 456 229 456 196 q 440 282 456 258 q 408 328 425 306 q 375 377 390 351 q 360 438 360 403 q 377 488 360 467 q 415 528 394 508 q 453 567 436 547 q 471 615 471 588 q 451 678 471 650 q 394 707 432 707 q 350 682 368 707 q 320 619 332 657 q 301 533 308 581 q 292 441 294 486 q 288 358 289 396 q 288 303 288 321 q 293 199 288 250 q 299 94 299 147 q 301 76 299 85 q 303 58 303 68 q 299 33 303 47 q 288 7 296 19 q 270 -13 281 -6 q 246 -21 260 -21 l 76 -19 z "},"":{"ha":688,"x_min":19,"x_max":688,"o":"m 471 928 q 461 903 471 913 q 437 887 451 893 q 406 878 422 881 q 379 876 390 876 q 332 894 360 876 q 278 935 304 911 q 235 987 253 960 q 217 1033 217 1014 q 230 1063 217 1051 q 260 1079 243 1074 q 297 1087 278 1085 q 329 1089 317 1089 q 399 1053 374 1089 q 417 1027 406 1044 q 441 990 429 1010 q 462 953 453 971 q 471 928 471 936 m 611 -21 q 556 -21 583 -21 q 501 -19 529 -21 q 451 -1 465 -19 q 436 53 436 18 l 438 64 q 360 3 401 29 q 267 -22 318 -22 q 88 39 156 -22 q 19 214 19 100 q 57 349 19 296 q 153 433 94 401 q 281 480 211 465 q 417 501 351 494 q 417 515 417 508 q 418 528 418 521 q 414 579 418 553 q 399 627 410 606 q 369 663 389 649 q 318 676 350 676 q 256 660 286 676 q 200 625 225 644 q 200 579 201 603 q 190 538 199 556 q 165 508 182 519 q 117 496 147 496 q 70 508 89 496 q 51 551 51 519 q 51 589 51 568 q 51 632 50 610 q 56 674 53 654 q 68 707 60 693 q 118 766 89 742 q 182 806 147 790 q 255 829 217 822 q 332 836 293 836 q 441 821 389 836 q 533 774 493 806 q 599 697 574 743 q 625 589 624 650 l 638 110 q 674 84 661 103 q 688 40 688 65 q 663 -6 688 8 q 611 -21 639 -21 m 425 394 q 395 386 411 388 q 364 382 379 385 q 233 217 233 350 q 235 184 233 201 q 244 153 238 167 q 264 130 251 139 q 296 121 276 121 q 333 129 311 121 q 376 151 356 138 q 410 181 396 164 q 425 217 425 199 l 425 394 z "},"":{"ha":688,"x_min":19,"x_max":688,"o":"m 299 876 q 272 878 288 876 q 243 886 257 881 q 219 902 229 892 q 210 928 210 913 q 220 955 210 938 q 244 991 231 972 q 272 1027 258 1010 q 293 1053 286 1044 q 365 1089 321 1089 q 397 1087 378 1089 q 434 1078 417 1085 q 465 1061 451 1072 q 478 1033 478 1050 q 463 1008 478 1026 q 429 969 449 990 q 391 930 410 949 q 365 904 372 911 q 335 884 351 892 q 299 876 318 876 m 611 -21 q 556 -21 583 -21 q 501 -19 529 -21 q 451 -1 465 -19 q 436 53 436 18 l 438 64 q 360 3 401 29 q 267 -22 318 -22 q 88 39 156 -22 q 19 214 19 100 q 57 349 19 296 q 153 433 94 401 q 281 480 211 465 q 417 501 351 494 q 417 515 417 508 q 418 528 418 521 q 414 579 418 553 q 399 627 410 606 q 369 663 389 649 q 318 676 350 676 q 256 660 286 676 q 200 625 225 644 q 200 579 201 603 q 190 538 199 556 q 165 508 182 519 q 117 496 147 496 q 70 508 89 496 q 51 551 51 519 q 51 589 51 568 q 51 632 50 610 q 56 674 53 654 q 68 707 60 693 q 118 766 89 742 q 182 806 147 790 q 255 829 217 822 q 332 836 293 836 q 441 821 389 836 q 533 774 493 806 q 599 697 574 743 q 625 589 624 650 l 638 110 q 674 84 661 103 q 688 40 688 65 q 663 -6 688 8 q 611 -21 639 -21 m 425 394 q 395 386 411 388 q 364 382 379 385 q 233 217 233 350 q 235 184 233 201 q 244 153 238 167 q 264 130 251 139 q 296 121 276 121 q 333 129 311 121 q 376 151 356 138 q 410 181 396 164 q 425 217 425 199 l 425 394 z "},"":{"ha":688,"x_min":19,"x_max":688,"o":"m 344 963 q 324 938 338 953 q 294 910 311 924 q 261 887 278 896 q 232 878 244 878 q 208 881 222 878 q 183 892 194 885 q 164 910 172 900 q 156 932 156 919 q 178 980 156 954 q 231 1027 200 1006 q 295 1063 263 1049 q 349 1078 328 1078 q 394 1065 364 1078 q 455 1035 424 1053 q 509 998 486 1018 q 532 961 532 978 q 523 936 532 949 q 501 914 514 924 q 474 899 489 904 q 447 893 460 893 q 421 901 435 893 q 392 919 407 908 q 365 942 378 931 q 344 963 353 954 m 611 -21 q 556 -21 583 -21 q 501 -19 529 -21 q 451 -1 465 -19 q 436 53 436 18 l 438 64 q 360 3 401 29 q 267 -22 318 -22 q 88 39 156 -22 q 19 214 19 100 q 57 349 19 296 q 153 433 94 401 q 281 480 211 465 q 417 501 351 494 q 417 515 417 508 q 418 528 418 521 q 414 579 418 553 q 399 627 410 606 q 369 663 389 649 q 318 676 350 676 q 256 660 286 676 q 200 625 225 644 q 200 579 201 603 q 190 538 199 556 q 165 508 182 519 q 117 496 147 496 q 70 508 89 496 q 51 551 51 519 q 51 589 51 568 q 51 632 50 610 q 56 674 53 654 q 68 707 60 693 q 118 766 89 742 q 182 806 147 790 q 255 829 217 822 q 332 836 293 836 q 441 821 389 836 q 533 774 493 806 q 599 697 574 743 q 625 589 624 650 l 638 110 q 674 84 661 103 q 688 40 688 65 q 663 -6 688 8 q 611 -21 639 -21 m 425 394 q 395 386 411 388 q 364 382 379 385 q 233 217 233 350 q 235 184 233 201 q 244 153 238 167 q 264 130 251 139 q 296 121 276 121 q 333 129 311 121 q 376 151 356 138 q 410 181 396 164 q 425 217 425 199 l 425 394 z "},"":{"ha":688,"x_min":19,"x_max":688,"o":"m 275 938 q 255 929 264 938 q 236 910 246 921 q 213 891 226 900 q 179 882 200 882 q 122 900 147 882 q 97 954 97 918 q 115 1001 97 979 q 158 1040 132 1024 q 212 1065 183 1056 q 263 1075 240 1075 q 317 1065 294 1075 q 358 1043 340 1056 q 391 1021 376 1031 q 419 1011 406 1011 q 438 1022 429 1011 q 456 1044 446 1032 q 481 1066 467 1056 q 521 1076 496 1076 q 569 1060 549 1076 q 590 1014 590 1044 q 574 966 590 990 q 535 922 558 942 q 484 890 511 903 q 435 878 457 878 q 381 887 404 878 q 338 908 357 896 q 304 928 319 919 q 275 938 289 938 m 611 -21 q 556 -21 583 -21 q 501 -19 529 -21 q 451 -1 465 -19 q 436 53 436 18 l 438 64 q 360 3 401 29 q 267 -22 318 -22 q 88 39 156 -22 q 19 214 19 100 q 57 349 19 296 q 153 433 94 401 q 281 480 211 465 q 417 501 351 494 q 417 515 417 508 q 418 528 418 521 q 414 579 418 553 q 399 627 410 606 q 369 663 389 649 q 318 676 350 676 q 256 660 286 676 q 200 625 225 644 q 200 579 201 603 q 190 538 199 556 q 165 508 182 519 q 117 496 147 496 q 70 508 89 496 q 51 551 51 519 q 51 589 51 568 q 51 632 50 610 q 56 674 53 654 q 68 707 60 693 q 118 766 89 742 q 182 806 147 790 q 255 829 217 822 q 332 836 293 836 q 441 821 389 836 q 533 774 493 806 q 599 697 574 743 q 625 589 624 650 l 638 110 q 674 84 661 103 q 688 40 688 65 q 663 -6 688 8 q 611 -21 639 -21 m 425 394 q 395 386 411 388 q 364 382 379 385 q 233 217 233 350 q 235 184 233 201 q 244 153 238 167 q 264 130 251 139 q 296 121 276 121 q 333 129 311 121 q 376 151 356 138 q 410 181 396 164 q 425 217 425 199 l 425 394 z "},"":{"ha":688,"x_min":19,"x_max":688,"o":"m 103 989 q 113 1029 103 1013 q 140 1057 124 1046 q 177 1074 157 1068 q 218 1079 197 1079 q 259 1074 239 1079 q 296 1057 279 1068 q 323 1029 313 1046 q 333 989 333 1013 q 323 949 333 967 q 296 921 313 932 q 259 904 279 910 q 218 899 239 899 q 178 904 199 899 q 140 922 157 910 q 113 950 124 933 q 103 989 103 967 m 354 989 q 365 1029 354 1013 q 392 1057 375 1046 q 428 1074 408 1068 q 469 1079 449 1079 q 510 1074 490 1079 q 547 1057 531 1068 q 574 1029 564 1046 q 585 989 585 1013 q 574 949 585 967 q 547 921 564 932 q 510 904 531 910 q 469 899 490 899 q 429 904 450 899 q 392 922 408 910 q 365 950 375 933 q 354 989 354 967 m 611 -21 q 556 -21 583 -21 q 501 -19 529 -21 q 451 -1 465 -19 q 436 53 436 18 l 438 64 q 360 3 401 29 q 267 -22 318 -22 q 88 39 156 -22 q 19 214 19 100 q 57 349 19 296 q 153 433 94 401 q 281 480 211 465 q 417 501 351 494 q 417 515 417 508 q 418 528 418 521 q 414 579 418 553 q 399 627 410 606 q 369 663 389 649 q 318 676 350 676 q 256 660 286 676 q 200 625 225 644 q 200 579 201 603 q 190 538 199 556 q 165 508 182 519 q 117 496 147 496 q 70 508 89 496 q 51 551 51 519 q 51 589 51 568 q 51 632 50 610 q 56 674 53 654 q 68 707 60 693 q 118 766 89 742 q 182 806 147 790 q 255 829 217 822 q 332 836 293 836 q 441 821 389 836 q 533 774 493 806 q 599 697 574 743 q 625 589 624 650 l 638 110 q 674 84 661 103 q 688 40 688 65 q 663 -6 688 8 q 611 -21 639 -21 m 425 394 q 395 386 411 388 q 364 382 379 385 q 233 217 233 350 q 235 184 233 201 q 244 153 238 167 q 264 130 251 139 q 296 121 276 121 q 333 129 311 121 q 376 151 356 138 q 410 181 396 164 q 425 217 425 199 l 425 394 z "},"":{"ha":688,"x_min":19,"x_max":688,"o":"m 160 1007 q 178 1067 160 1043 q 223 1107 196 1092 q 283 1129 250 1122 q 346 1136 317 1136 q 408 1129 376 1136 q 467 1107 440 1122 q 510 1067 493 1092 q 528 1007 528 1043 q 510 946 528 971 q 467 906 493 921 q 408 883 440 890 q 346 876 376 876 q 283 883 317 876 q 223 906 250 890 q 178 946 196 921 q 160 1007 160 971 m 349 988 q 376 992 357 988 q 394 1010 394 997 q 376 1026 394 1021 q 349 1031 358 1031 q 322 1026 340 1031 q 304 1008 304 1021 q 322 992 304 997 q 349 988 340 988 m 611 -21 q 556 -21 583 -21 q 501 -19 529 -21 q 451 -1 465 -19 q 436 53 436 18 l 438 64 q 360 3 401 29 q 267 -22 318 -22 q 88 39 156 -22 q 19 214 19 100 q 57 349 19 296 q 153 433 94 401 q 281 480 211 465 q 417 501 351 494 q 417 515 417 508 q 418 528 418 521 q 414 579 418 553 q 399 627 410 606 q 369 663 389 649 q 318 676 350 676 q 256 660 286 676 q 200 625 225 644 q 200 579 201 603 q 190 538 199 556 q 165 508 182 519 q 117 496 147 496 q 70 508 89 496 q 51 551 51 519 q 51 589 51 568 q 51 632 50 610 q 56 674 53 654 q 68 707 60 693 q 118 766 89 742 q 182 806 147 790 q 255 829 217 822 q 332 836 293 836 q 441 821 389 836 q 533 774 493 806 q 599 697 574 743 q 625 589 624 650 l 638 110 q 674 84 661 103 q 688 40 688 65 q 663 -6 688 8 q 611 -21 639 -21 m 425 394 q 395 386 411 388 q 364 382 379 385 q 233 217 233 350 q 235 184 233 201 q 244 153 238 167 q 264 130 251 139 q 296 121 276 121 q 333 129 311 121 q 376 151 356 138 q 410 181 396 164 q 425 217 425 199 l 425 394 z "},"":{"ha":1046,"x_min":19,"x_max":1024,"o":"m 611 -21 q 556 -21 583 -21 q 501 -19 529 -21 q 451 -1 465 -19 q 436 53 436 18 l 438 64 q 360 3 401 29 q 267 -22 318 -22 q 88 39 156 -22 q 19 214 19 100 q 57 349 19 296 q 153 433 94 401 q 281 480 211 465 q 417 501 351 494 q 417 515 417 508 q 418 528 418 521 q 414 579 418 553 q 399 627 410 606 q 369 663 389 649 q 318 676 350 676 q 256 660 286 676 q 200 625 225 644 q 200 579 201 603 q 190 538 199 556 q 165 508 182 519 q 117 496 147 496 q 70 508 89 496 q 51 551 51 519 q 51 589 51 568 q 51 632 50 610 q 56 674 53 654 q 68 707 60 693 q 118 766 89 742 q 182 806 147 790 q 255 829 217 822 q 332 836 293 836 q 440 821 389 836 q 532 775 492 806 q 615 824 567 807 q 731 842 664 842 q 832 822 782 842 q 921 769 882 803 q 984 690 960 736 q 1008 589 1008 643 q 979 485 1008 526 q 905 419 950 444 q 805 384 860 394 q 699 374 750 374 q 664 375 681 374 q 631 379 647 376 l 633 293 q 649 238 639 267 q 672 185 658 210 q 705 146 686 161 q 747 131 724 131 q 783 139 765 131 q 815 160 801 147 q 838 192 829 174 q 847 228 847 210 q 850 269 847 249 q 861 306 853 289 q 885 332 869 322 q 926 342 901 342 q 997 323 969 342 q 1024 256 1024 304 q 1001 140 1024 192 q 940 51 979 88 q 846 -4 900 15 q 729 -24 792 -24 q 647 -15 685 -24 q 611 -21 632 -21 m 626 510 q 656 501 642 503 q 686 499 671 499 q 729 504 707 499 q 769 521 751 510 q 798 549 786 532 q 810 590 810 567 q 792 645 810 619 q 743 671 775 671 q 697 660 717 671 q 662 631 676 649 q 639 590 647 613 q 626 543 631 567 l 626 510 m 425 394 q 395 386 411 388 q 364 382 379 385 q 233 217 233 350 q 235 184 233 201 q 244 153 238 167 q 264 130 251 139 q 296 121 276 121 q 333 129 311 121 q 376 151 356 138 q 410 181 396 164 q 425 217 425 199 l 425 394 z "},"":{"ha":621,"x_min":31,"x_max":601,"o":"m 351 131 q 384 148 371 131 q 406 190 397 165 q 419 238 415 214 q 424 276 424 263 q 449 335 424 313 q 511 358 475 358 q 575 347 549 358 q 601 290 601 335 q 590 192 601 240 q 555 104 578 144 q 497 34 532 64 q 417 -11 463 4 q 438 -36 429 -22 q 446 -69 446 -50 q 428 -128 446 -101 q 385 -174 411 -154 q 327 -204 358 -193 q 268 -215 296 -215 q 202 -190 229 -215 q 175 -125 175 -164 q 186 -106 175 -110 q 208 -103 197 -103 q 232 -103 221 -103 q 251 -101 243 -104 q 265 -90 260 -97 q 271 -65 271 -82 q 259 -33 271 -46 q 236 -10 247 -21 q 136 51 176 10 q 73 147 96 92 q 40 265 50 201 q 31 393 31 329 q 44 546 31 467 q 92 690 58 625 q 185 799 126 756 q 335 842 244 842 q 426 826 381 842 q 508 781 471 810 q 569 712 544 751 q 597 625 593 672 q 601 563 600 593 q 601 500 601 532 q 583 456 601 468 q 536 443 564 443 q 504 449 521 443 q 474 465 488 454 q 451 490 460 475 q 442 521 442 504 l 442 564 q 442 588 442 576 q 443 613 443 600 q 411 653 429 636 q 364 671 393 671 q 305 643 326 671 q 272 576 283 615 q 256 495 260 536 q 253 426 253 454 q 253 383 253 411 q 258 322 254 354 q 267 255 261 289 q 285 193 274 221 q 313 148 296 165 q 351 131 329 131 z "},"":{"ha":650,"x_min":31,"x_max":628,"o":"m 453 928 q 442 903 453 913 q 417 887 432 893 q 388 878 403 881 q 361 876 372 876 q 314 894 342 876 q 260 935 286 911 q 215 987 233 960 q 197 1033 197 1014 q 210 1063 197 1051 q 242 1079 224 1074 q 279 1087 260 1085 q 311 1089 299 1089 q 381 1053 356 1089 q 399 1027 388 1044 q 423 990 411 1010 q 444 953 435 971 q 453 928 453 936 m 235 379 q 231 365 232 372 q 231 351 231 358 q 238 290 231 328 q 260 217 246 253 q 298 156 275 182 q 351 131 321 131 q 388 139 369 131 q 419 160 406 147 q 442 192 433 174 q 451 228 451 210 q 454 269 451 249 q 465 306 457 289 q 490 332 474 322 q 531 342 506 342 q 601 323 574 342 q 628 256 628 304 q 606 140 628 192 q 544 51 583 88 q 450 -4 504 15 q 333 -24 396 -24 q 178 17 238 -24 q 86 124 119 58 q 42 269 53 189 q 31 425 31 349 q 42 579 31 504 q 88 713 54 654 q 181 806 121 771 q 335 842 240 842 q 436 822 386 842 q 525 769 486 803 q 588 690 564 736 q 613 589 613 643 q 583 485 613 526 q 509 419 554 444 q 409 384 464 394 q 303 374 354 374 q 268 375 285 374 q 235 379 251 376 m 228 513 q 290 499 256 499 q 333 504 311 499 q 373 521 356 510 q 402 549 390 532 q 414 590 414 567 q 397 645 414 619 q 347 671 379 671 q 294 656 317 671 q 258 617 272 640 q 235 567 243 594 q 228 513 228 539 z "},"":{"ha":650,"x_min":31,"x_max":628,"o":"m 281 876 q 253 878 269 876 q 224 886 238 881 q 200 902 210 892 q 190 928 190 913 q 201 955 190 938 q 225 991 211 972 q 253 1027 239 1010 q 275 1053 268 1044 q 306 1081 290 1072 q 346 1089 322 1089 q 378 1087 358 1089 q 415 1078 397 1085 q 447 1061 433 1072 q 460 1033 460 1050 q 444 1008 460 1026 q 410 969 429 990 q 372 930 390 949 q 347 904 354 911 q 316 884 332 892 q 281 876 300 876 m 235 379 q 231 365 232 372 q 231 351 231 358 q 238 290 231 328 q 260 217 246 253 q 298 156 275 182 q 351 131 321 131 q 388 139 369 131 q 419 160 406 147 q 442 192 433 174 q 451 228 451 210 q 454 269 451 249 q 465 306 457 289 q 490 332 474 322 q 531 342 506 342 q 601 323 574 342 q 628 256 628 304 q 606 140 628 192 q 544 51 583 88 q 450 -4 504 15 q 333 -24 396 -24 q 178 17 238 -24 q 86 124 119 58 q 42 269 53 189 q 31 425 31 349 q 42 579 31 504 q 88 713 54 654 q 181 806 121 771 q 335 842 240 842 q 436 822 386 842 q 525 769 486 803 q 588 690 564 736 q 613 589 613 643 q 583 485 613 526 q 509 419 554 444 q 409 384 464 394 q 303 374 354 374 q 268 375 285 374 q 235 379 251 376 m 228 513 q 290 499 256 499 q 333 504 311 499 q 373 521 356 510 q 402 549 390 532 q 414 590 414 567 q 397 645 414 619 q 347 671 379 671 q 294 656 317 671 q 258 617 272 640 q 235 567 243 594 q 228 513 228 539 z "},"":{"ha":650,"x_min":31,"x_max":628,"o":"m 326 963 q 306 938 319 953 q 276 910 292 924 q 243 887 260 896 q 214 878 226 878 q 190 881 203 878 q 165 892 176 885 q 145 910 153 900 q 138 932 138 919 q 160 980 138 954 q 213 1027 182 1006 q 276 1063 244 1049 q 329 1078 308 1078 q 374 1065 344 1078 q 435 1035 404 1053 q 490 998 467 1018 q 513 961 513 978 q 503 936 513 949 q 482 914 494 924 q 455 899 469 904 q 429 893 440 893 q 403 901 417 893 q 374 919 389 908 q 347 942 360 931 q 326 963 335 954 m 235 379 q 231 365 232 372 q 231 351 231 358 q 238 290 231 328 q 260 217 246 253 q 298 156 275 182 q 351 131 321 131 q 388 139 369 131 q 419 160 406 147 q 442 192 433 174 q 451 228 451 210 q 454 269 451 249 q 465 306 457 289 q 490 332 474 322 q 531 342 506 342 q 601 323 574 342 q 628 256 628 304 q 606 140 628 192 q 544 51 583 88 q 450 -4 504 15 q 333 -24 396 -24 q 178 17 238 -24 q 86 124 119 58 q 42 269 53 189 q 31 425 31 349 q 42 579 31 504 q 88 713 54 654 q 181 806 121 771 q 335 842 240 842 q 436 822 386 842 q 525 769 486 803 q 588 690 564 736 q 613 589 613 643 q 583 485 613 526 q 509 419 554 444 q 409 384 464 394 q 303 374 354 374 q 268 375 285 374 q 235 379 251 376 m 228 513 q 290 499 256 499 q 333 504 311 499 q 373 521 356 510 q 402 549 390 532 q 414 590 414 567 q 397 645 414 619 q 347 671 379 671 q 294 656 317 671 q 258 617 272 640 q 235 567 243 594 q 228 513 228 539 z "},"":{"ha":650,"x_min":31,"x_max":628,"o":"m 83 989 q 94 1029 83 1013 q 121 1057 104 1046 q 158 1074 138 1068 q 199 1079 179 1079 q 240 1074 219 1079 q 278 1057 261 1068 q 305 1029 294 1046 q 315 989 315 1013 q 305 949 315 967 q 278 921 294 932 q 240 904 261 910 q 199 899 219 899 q 159 904 179 899 q 122 922 139 910 q 94 950 106 933 q 83 989 83 967 m 336 989 q 347 1029 336 1013 q 374 1057 357 1046 q 410 1074 390 1068 q 451 1079 431 1079 q 492 1074 471 1079 q 529 1057 513 1068 q 556 1029 546 1046 q 567 989 567 1013 q 556 949 567 967 q 529 921 546 932 q 492 904 513 910 q 451 899 471 899 q 411 904 432 899 q 374 922 390 910 q 347 950 357 933 q 336 989 336 967 m 235 379 q 231 365 232 372 q 231 351 231 358 q 238 290 231 328 q 260 217 246 253 q 298 156 275 182 q 351 131 321 131 q 388 139 369 131 q 419 160 406 147 q 442 192 433 174 q 451 228 451 210 q 454 269 451 249 q 465 306 457 289 q 490 332 474 322 q 531 342 506 342 q 601 323 574 342 q 628 256 628 304 q 606 140 628 192 q 544 51 583 88 q 450 -4 504 15 q 333 -24 396 -24 q 178 17 238 -24 q 86 124 119 58 q 42 269 53 189 q 31 425 31 349 q 42 579 31 504 q 88 713 54 654 q 181 806 121 771 q 335 842 240 842 q 436 822 386 842 q 525 769 486 803 q 588 690 564 736 q 613 589 613 643 q 583 485 613 526 q 509 419 554 444 q 409 384 464 394 q 303 374 354 374 q 268 375 285 374 q 235 379 251 376 m 228 513 q 290 499 256 499 q 333 504 311 499 q 373 521 356 510 q 402 549 390 532 q 414 590 414 567 q 397 645 414 619 q 347 671 379 671 q 294 656 317 671 q 258 617 272 640 q 235 567 243 594 q 228 513 228 539 z "},"":{"ha":342,"x_min":14,"x_max":326,"o":"m 299 928 q 288 903 299 913 q 263 887 278 893 q 233 878 249 881 q 207 876 218 876 q 160 894 188 876 q 106 935 132 911 q 61 987 79 960 q 43 1033 43 1014 q 56 1063 43 1051 q 88 1079 69 1074 q 125 1087 106 1085 q 157 1089 144 1089 q 226 1053 201 1089 q 245 1027 233 1044 q 269 990 257 1010 q 290 953 281 971 q 299 928 299 936 m 161 -21 q 112 -23 138 -21 q 64 -21 86 -25 q 28 -3 42 -17 q 14 44 14 11 q 28 86 14 71 q 67 108 43 101 l 74 668 q 35 693 44 674 q 25 739 25 713 q 38 773 25 761 q 67 791 50 785 q 105 799 85 797 q 140 800 125 800 q 190 799 163 800 q 240 792 217 799 q 278 769 263 785 q 293 721 293 753 l 285 110 q 317 85 308 103 q 326 44 326 68 q 315 -2 326 17 q 271 -21 303 -21 l 161 -21 z "},"":{"ha":342,"x_min":14,"x_max":326,"o":"m 126 876 q 99 878 115 876 q 69 886 83 881 q 46 902 56 892 q 36 928 36 913 q 47 955 36 938 q 71 991 57 972 q 99 1027 85 1010 q 121 1053 114 1044 q 152 1081 136 1072 q 192 1089 168 1089 q 224 1087 204 1089 q 261 1078 243 1085 q 292 1061 279 1072 q 306 1033 306 1050 q 290 1008 306 1026 q 256 969 275 990 q 218 930 236 949 q 193 904 200 911 q 162 884 178 892 q 126 876 146 876 m 161 -21 q 112 -23 138 -21 q 64 -21 86 -25 q 28 -3 42 -17 q 14 44 14 11 q 28 86 14 71 q 67 108 43 101 l 74 668 q 35 693 44 674 q 25 739 25 713 q 38 773 25 761 q 67 791 50 785 q 105 799 85 797 q 140 800 125 800 q 190 799 163 800 q 240 792 217 799 q 278 769 263 785 q 293 721 293 753 l 285 110 q 317 85 308 103 q 326 44 326 68 q 315 -2 326 17 q 271 -21 303 -21 l 161 -21 z "},"":{"ha":342,"x_min":-17,"x_max":358,"o":"m 172 963 q 151 938 165 953 q 122 910 138 924 q 89 887 106 896 q 60 878 72 878 q 35 881 49 878 q 10 892 22 885 q -9 910 -1 900 q -17 932 -17 919 q 6 980 -17 954 q 59 1027 28 1006 q 122 1063 90 1049 q 175 1078 154 1078 q 220 1065 190 1078 q 281 1035 250 1053 q 335 998 313 1018 q 358 961 358 978 q 349 936 358 949 q 328 914 340 924 q 301 899 315 904 q 275 893 286 893 q 249 901 263 893 q 220 919 235 908 q 193 942 206 931 q 172 963 181 954 m 161 -21 q 112 -23 138 -21 q 64 -21 86 -25 q 28 -3 42 -17 q 14 44 14 11 q 28 86 14 71 q 67 108 43 101 l 74 668 q 35 693 44 674 q 25 739 25 713 q 38 773 25 761 q 67 791 50 785 q 105 799 85 797 q 140 800 125 800 q 190 799 163 800 q 240 792 217 799 q 278 769 263 785 q 293 721 293 753 l 285 110 q 317 85 308 103 q 326 44 326 68 q 315 -2 326 17 q 271 -21 303 -21 l 161 -21 z "},"":{"ha":342,"x_min":-71,"x_max":413,"o":"m -71 989 q -60 1029 -71 1013 q -33 1057 -50 1046 q 4 1074 -17 1068 q 44 1079 25 1079 q 86 1074 65 1079 q 124 1057 107 1068 q 151 1029 140 1046 q 161 989 161 1013 q 151 949 161 967 q 124 921 140 932 q 86 904 107 910 q 44 899 65 899 q 5 904 25 899 q -32 922 -15 910 q -60 950 -49 933 q -71 989 -71 967 m 182 989 q 192 1029 182 1013 q 219 1057 203 1046 q 256 1074 236 1068 q 297 1079 276 1079 q 338 1074 317 1079 q 375 1057 358 1068 q 402 1029 392 1046 q 413 989 413 1013 q 402 949 413 967 q 375 921 392 932 q 338 904 358 910 q 297 899 317 899 q 257 904 278 899 q 219 922 236 910 q 192 950 203 933 q 182 989 182 967 m 161 -21 q 112 -23 138 -21 q 64 -21 86 -25 q 28 -3 42 -17 q 14 44 14 11 q 28 86 14 71 q 67 108 43 101 l 74 668 q 35 693 44 674 q 25 739 25 713 q 38 773 25 761 q 67 791 50 785 q 105 799 85 797 q 140 800 125 800 q 190 799 163 800 q 240 792 217 799 q 278 769 263 785 q 293 721 293 753 l 285 110 q 317 85 308 103 q 326 44 326 68 q 314 -3 326 17 q 271 -21 301 -22 l 161 -21 z "},"":{"ha":800,"x_min":36,"x_max":753,"o":"m 529 361 q 536 392 535 376 q 538 422 538 407 q 535 465 538 442 q 528 514 533 489 q 516 562 524 539 q 499 601 508 585 q 477 578 489 592 q 452 554 465 565 q 424 535 439 543 q 394 528 410 528 q 364 535 382 528 q 330 554 346 543 q 303 580 314 565 q 292 608 292 594 q 301 629 292 615 q 322 657 310 643 q 347 683 335 671 q 364 701 358 696 q 311 687 331 699 q 279 660 292 675 q 258 629 267 646 q 239 598 250 613 q 211 574 228 583 q 167 565 194 565 q 133 571 151 565 q 100 586 115 576 q 74 610 85 596 q 64 642 64 625 q 69 673 64 654 q 79 703 75 692 q 133 778 99 747 q 211 827 168 808 q 302 853 254 846 q 394 861 350 861 q 511 839 451 861 q 540 865 526 853 q 576 878 554 878 q 606 870 589 878 q 638 851 622 863 q 663 824 653 839 q 674 796 674 810 q 665 768 674 782 q 646 746 656 754 q 691 681 671 717 q 725 604 711 644 q 746 522 739 564 q 753 442 753 481 q 733 260 753 344 q 669 115 714 176 q 551 19 625 54 q 369 -17 478 -17 q 246 1 306 -17 q 140 53 186 18 q 65 142 93 89 q 36 264 36 194 q 62 366 36 319 q 128 446 88 413 q 220 497 168 479 q 324 515 272 515 q 386 502 353 515 q 449 467 419 489 q 499 417 478 444 q 529 361 521 390 m 361 156 q 399 160 378 156 q 438 174 419 164 q 468 198 456 183 q 481 233 481 213 q 469 278 481 257 q 441 317 458 300 q 401 344 424 333 q 357 354 379 354 q 281 327 311 354 q 251 253 251 300 q 284 180 251 204 q 361 156 317 156 z "},"":{"ha":707,"x_min":17,"x_max":706,"o":"m 285 938 q 265 929 274 938 q 246 910 256 921 q 223 891 236 900 q 189 882 210 882 q 132 900 157 882 q 107 954 107 918 q 124 1001 107 979 q 167 1040 142 1024 q 222 1065 193 1056 q 272 1075 250 1075 q 327 1065 304 1075 q 368 1043 350 1056 q 401 1021 386 1031 q 429 1011 415 1011 q 447 1022 439 1011 q 466 1044 456 1032 q 491 1066 476 1056 q 531 1076 506 1076 q 579 1060 558 1076 q 600 1014 600 1044 q 584 966 600 990 q 544 922 568 942 q 494 890 521 903 q 444 878 467 878 q 390 887 414 878 q 348 908 367 896 q 314 928 329 919 q 285 938 299 938 m 365 682 q 338 673 353 682 q 313 651 324 664 q 294 624 301 639 q 286 596 286 608 l 283 111 q 324 86 310 106 q 338 42 338 67 q 316 -5 338 13 q 267 -21 294 -22 l 83 -19 q 37 1 49 -19 q 25 53 25 22 q 35 88 25 74 q 64 107 44 103 l 64 701 q 26 726 36 707 q 17 774 17 746 q 36 814 17 801 q 83 831 56 826 q 141 833 111 835 q 192 832 171 832 q 220 826 206 832 q 247 810 235 819 q 268 787 260 800 q 278 760 276 774 q 339 815 297 797 q 421 833 381 833 q 549 798 503 833 q 617 707 594 763 q 646 585 640 651 q 651 457 651 519 l 651 111 q 691 85 676 104 q 706 42 706 67 q 684 -5 706 13 q 635 -21 663 -22 l 450 -19 q 403 1 415 -19 q 392 53 392 22 q 403 91 392 76 q 438 108 414 106 l 438 428 q 437 488 438 446 q 429 574 436 531 q 408 649 422 617 q 365 682 393 682 z "},"":{"ha":776,"x_min":32,"x_max":744,"o":"m 515 928 q 506 903 515 913 q 481 887 496 893 q 451 878 467 881 q 424 876 435 876 q 376 894 404 876 q 323 935 349 911 q 279 987 297 960 q 261 1033 261 1014 q 274 1063 261 1051 q 305 1079 288 1074 q 342 1087 322 1085 q 374 1089 361 1089 q 443 1053 418 1089 q 462 1027 450 1044 q 485 990 474 1010 q 506 953 497 971 q 515 928 515 936 m 375 -11 q 199 27 267 -11 q 94 128 132 65 q 44 269 57 190 q 32 431 32 349 q 49 589 32 514 q 105 719 65 664 q 213 808 144 775 q 382 840 281 840 q 562 808 492 840 q 673 718 632 775 q 729 583 714 661 q 744 415 744 506 q 729 244 744 322 q 674 108 714 165 q 561 20 633 51 q 375 -11 489 -11 m 254 415 q 258 331 254 378 q 276 242 261 283 q 319 173 290 201 q 400 144 349 144 q 476 178 450 144 q 515 260 503 213 q 528 360 526 308 q 531 446 531 411 q 527 523 531 482 q 510 599 524 564 q 470 658 497 635 q 394 681 443 681 q 316 653 344 681 q 274 585 288 625 q 258 498 261 544 q 254 415 254 451 z "},"":{"ha":776,"x_min":32,"x_max":744,"o":"m 343 876 q 317 878 332 876 q 288 886 301 881 q 264 902 274 892 q 254 928 254 913 q 265 955 254 938 q 289 991 275 972 q 317 1027 303 1010 q 338 1053 331 1044 q 410 1089 365 1089 q 442 1087 422 1089 q 478 1078 461 1085 q 509 1061 496 1072 q 522 1033 522 1050 q 508 1008 522 1026 q 474 969 493 990 q 435 930 454 949 q 410 904 417 911 q 379 884 396 892 q 343 876 363 876 m 375 -11 q 199 27 267 -11 q 94 128 132 65 q 44 269 57 190 q 32 431 32 349 q 49 589 32 514 q 105 719 65 664 q 213 808 144 775 q 382 840 281 840 q 562 808 492 840 q 673 718 632 775 q 729 583 714 661 q 744 415 744 506 q 729 244 744 322 q 674 108 714 165 q 561 20 633 51 q 375 -11 489 -11 m 254 415 q 258 331 254 378 q 276 242 261 283 q 319 173 290 201 q 400 144 349 144 q 476 178 450 144 q 515 260 503 213 q 528 360 526 308 q 531 446 531 411 q 527 523 531 482 q 510 599 524 564 q 470 658 497 635 q 394 681 443 681 q 316 653 344 681 q 274 585 288 625 q 258 498 261 544 q 254 415 254 451 z "},"":{"ha":776,"x_min":32,"x_max":744,"o":"m 389 963 q 369 938 382 953 q 339 910 356 924 q 306 887 322 896 q 276 878 289 878 q 253 881 267 878 q 228 892 239 885 q 208 910 217 900 q 200 932 200 919 q 222 980 200 954 q 276 1027 244 1006 q 340 1063 307 1049 q 393 1078 372 1078 q 438 1065 408 1078 q 499 1035 468 1053 q 553 998 531 1018 q 576 961 576 978 q 567 936 576 949 q 546 914 558 924 q 519 899 533 904 q 492 893 504 893 q 465 901 479 893 q 437 919 451 908 q 410 942 422 931 q 389 963 397 954 m 375 -11 q 199 27 267 -11 q 94 128 132 65 q 44 269 57 190 q 32 431 32 349 q 49 589 32 514 q 105 719 65 664 q 213 808 144 775 q 382 840 281 840 q 562 808 492 840 q 673 718 632 775 q 729 583 714 661 q 744 415 744 506 q 729 244 744 322 q 674 108 714 165 q 561 20 633 51 q 375 -11 489 -11 m 254 415 q 258 331 254 378 q 276 242 261 283 q 319 173 290 201 q 400 144 349 144 q 476 178 450 144 q 515 260 503 213 q 528 360 526 308 q 531 446 531 411 q 527 523 531 482 q 510 599 524 564 q 470 658 497 635 q 394 681 443 681 q 316 653 344 681 q 274 585 288 625 q 258 498 261 544 q 254 415 254 451 z "},"":{"ha":776,"x_min":32,"x_max":744,"o":"m 319 938 q 299 929 308 938 q 281 910 290 921 q 258 891 271 900 q 224 882 244 882 q 167 900 192 882 q 142 954 142 918 q 159 1001 142 979 q 202 1040 176 1024 q 256 1065 228 1056 q 307 1075 285 1075 q 362 1065 339 1075 q 403 1043 385 1056 q 435 1021 421 1031 q 464 1011 450 1011 q 482 1022 474 1011 q 501 1044 490 1032 q 526 1066 511 1056 q 565 1076 540 1076 q 614 1060 593 1076 q 635 1014 635 1044 q 619 966 635 990 q 579 922 603 942 q 528 890 556 903 q 479 878 501 878 q 425 887 449 878 q 383 908 401 896 q 349 928 364 919 q 319 938 333 938 m 375 -11 q 199 27 267 -11 q 94 128 132 65 q 44 269 57 190 q 32 431 32 349 q 49 589 32 514 q 105 719 65 664 q 213 808 144 775 q 382 840 281 840 q 562 808 492 840 q 673 718 632 775 q 729 583 714 661 q 744 415 744 506 q 729 244 744 322 q 674 108 714 165 q 561 20 633 51 q 375 -11 489 -11 m 254 415 q 258 331 254 378 q 276 242 261 283 q 319 173 290 201 q 400 144 349 144 q 476 178 450 144 q 515 260 503 213 q 528 360 526 308 q 531 446 531 411 q 527 523 531 482 q 510 599 524 564 q 470 658 497 635 q 394 681 443 681 q 316 653 344 681 q 274 585 288 625 q 258 498 261 544 q 254 415 254 451 z "},"":{"ha":776,"x_min":32,"x_max":744,"o":"m 147 989 q 158 1029 147 1013 q 185 1057 168 1046 q 222 1074 201 1068 q 263 1079 242 1079 q 303 1074 283 1079 q 340 1057 324 1068 q 367 1029 357 1046 q 378 989 378 1013 q 367 949 378 967 q 340 921 357 932 q 303 904 324 910 q 263 899 283 899 q 222 904 243 899 q 185 922 201 910 q 158 950 168 933 q 147 989 147 967 m 399 989 q 409 1029 399 1013 q 436 1057 419 1046 q 473 1074 453 1068 q 514 1079 493 1079 q 555 1074 535 1079 q 592 1057 575 1068 q 619 1029 608 1046 q 629 989 629 1013 q 619 949 629 967 q 592 921 608 932 q 555 904 575 910 q 514 899 535 899 q 474 904 494 899 q 436 922 453 910 q 409 950 419 933 q 399 989 399 967 m 375 -11 q 199 27 267 -11 q 94 128 132 65 q 44 269 57 190 q 32 431 32 349 q 49 589 32 514 q 105 719 65 664 q 213 808 144 775 q 382 840 281 840 q 562 808 492 840 q 673 718 632 775 q 729 583 714 661 q 744 415 744 506 q 729 244 744 322 q 674 108 714 165 q 561 20 633 51 q 375 -11 489 -11 m 254 415 q 258 331 254 378 q 276 242 261 283 q 319 173 290 201 q 400 144 349 144 q 476 178 450 144 q 515 260 503 213 q 528 360 526 308 q 531 446 531 411 q 527 523 531 482 q 510 599 524 564 q 470 658 497 635 q 394 681 443 681 q 316 653 344 681 q 274 585 288 625 q 258 498 261 544 q 254 415 254 451 z "},"":{"ha":661,"x_min":61,"x_max":596,"o":"m 329 553 q 265 571 296 553 q 233 629 233 589 q 265 686 233 668 q 329 704 296 704 q 395 686 364 704 q 426 629 426 668 q 396 571 426 589 q 329 553 365 553 m 61 465 q 88 513 61 497 q 144 529 115 529 l 518 529 q 570 515 544 529 q 596 469 596 500 l 596 446 q 570 397 596 414 q 515 381 544 379 l 158 382 q 116 386 139 382 q 77 403 93 390 q 61 440 61 415 l 61 465 m 329 203 q 262 223 293 203 q 231 283 231 243 q 263 342 231 324 q 329 361 294 361 q 365 356 347 361 q 397 342 382 351 q 420 319 411 333 q 429 283 429 304 q 397 222 429 242 q 329 203 365 203 z "},"":{"ha":776,"x_min":32,"x_max":744,"o":"m 357 -11 q 349 -32 351 -31 q 329 -58 338 -49 q 312 -73 321 -68 q 291 -78 303 -78 q 260 -79 279 -79 q 224 -78 244 -79 q 183 -71 203 -76 q 149 -53 164 -65 q 133 -22 135 -42 l 133 -18 q 139 4 133 -15 q 154 56 144 24 q 93 129 117 88 q 56 219 69 171 q 38 322 43 268 q 32 431 32 376 q 49 589 32 514 q 105 719 65 664 q 213 808 144 775 q 382 840 281 840 l 411 840 q 438 910 433 906 q 456 932 449 924 q 471 945 463 940 q 491 951 479 950 q 521 953 503 953 q 556 949 535 953 q 596 938 576 946 q 629 917 615 929 q 643 886 643 904 q 635 853 643 882 q 613 779 628 824 q 676 713 651 751 q 717 628 701 675 q 738 528 732 582 q 744 415 744 474 q 726 229 744 310 q 664 96 708 149 q 545 16 619 43 q 357 -11 471 -11 m 254 415 q 254 393 254 404 q 256 369 254 382 q 306 527 281 449 q 356 675 332 606 q 299 634 319 664 q 269 567 279 604 q 256 489 258 529 q 254 415 254 449 m 529 508 q 468 317 499 413 q 411 144 438 222 q 481 184 457 149 q 517 267 506 219 q 529 363 528 314 q 531 446 531 413 q 531 476 531 461 q 529 508 531 492 z "},"":{"ha":740,"x_min":8,"x_max":729,"o":"m 497 928 q 488 903 497 913 q 463 887 478 893 q 433 878 449 881 q 406 876 417 876 q 358 894 386 876 q 305 935 331 911 q 261 987 279 960 q 243 1033 243 1014 q 256 1063 243 1051 q 287 1079 269 1074 q 324 1087 304 1085 q 356 1089 343 1089 q 425 1053 400 1089 q 444 1027 432 1044 q 467 990 456 1010 q 488 953 479 971 q 497 928 497 936 m 494 85 q 424 14 468 42 q 326 -14 379 -14 q 203 8 257 -14 q 112 69 149 29 q 56 164 75 108 q 38 288 38 219 q 40 493 38 392 q 44 699 43 594 q 17 724 25 706 q 8 761 8 742 q 19 796 8 782 q 45 817 29 810 q 81 828 61 825 q 117 831 100 831 q 154 830 136 831 q 192 829 172 829 q 237 830 214 829 q 278 826 260 831 q 309 806 297 821 q 321 760 321 792 q 311 717 321 736 q 274 694 301 697 q 270 503 272 599 q 268 311 268 407 q 272 267 268 292 q 286 220 276 242 q 313 184 296 199 q 354 169 329 169 q 394 183 375 169 q 429 216 414 196 q 453 259 444 236 q 463 301 463 282 l 471 696 q 424 713 439 694 q 410 761 410 732 q 420 796 410 782 q 447 817 431 810 q 483 828 464 825 q 519 831 503 831 q 557 830 539 831 q 594 829 575 829 q 640 830 617 829 q 681 826 663 831 q 712 806 700 821 q 724 760 724 792 q 716 722 724 740 q 688 697 708 704 l 686 113 q 729 63 728 101 l 729 58 q 703 -5 729 8 q 642 -18 678 -18 q 611 -17 626 -18 q 581 -17 596 -17 q 517 15 538 -17 q 494 85 497 47 z "},"":{"ha":740,"x_min":8,"x_max":729,"o":"m 325 876 q 299 878 314 876 q 269 886 283 881 q 246 902 256 892 q 236 928 236 913 q 247 955 236 938 q 271 991 257 972 q 299 1027 285 1010 q 319 1053 313 1044 q 392 1089 347 1089 q 424 1087 404 1089 q 460 1078 443 1085 q 491 1061 478 1072 q 504 1033 504 1050 q 490 1008 504 1026 q 456 969 475 990 q 417 930 436 949 q 392 904 399 911 q 361 884 378 892 q 325 876 344 876 m 494 85 q 424 14 468 42 q 326 -14 379 -14 q 203 8 257 -14 q 112 69 149 29 q 56 164 75 108 q 38 288 38 219 q 40 493 38 392 q 44 699 43 594 q 17 724 25 706 q 8 761 8 742 q 19 796 8 782 q 45 817 29 810 q 81 828 61 825 q 117 831 100 831 q 154 830 136 831 q 192 829 172 829 q 237 830 214 829 q 278 826 260 831 q 309 806 297 821 q 321 760 321 792 q 311 717 321 736 q 274 694 301 697 q 270 503 272 599 q 268 311 268 407 q 272 267 268 292 q 286 220 276 242 q 313 184 296 199 q 354 169 329 169 q 394 183 375 169 q 429 216 414 196 q 453 259 444 236 q 463 301 463 282 l 471 696 q 424 713 439 694 q 410 761 410 732 q 420 796 410 782 q 447 817 431 810 q 483 828 464 825 q 519 831 503 831 q 557 830 539 831 q 594 829 575 829 q 640 830 617 829 q 681 826 663 831 q 712 806 700 821 q 724 760 724 792 q 716 722 724 740 q 688 697 708 704 l 686 113 q 729 63 728 101 l 729 58 q 703 -5 729 8 q 642 -18 678 -18 q 611 -17 626 -18 q 581 -17 596 -17 q 517 15 538 -17 q 494 85 497 47 z "},"":{"ha":740,"x_min":8,"x_max":729,"o":"m 371 963 q 351 938 364 953 q 321 910 338 924 q 288 887 304 896 q 258 878 271 878 q 235 881 249 878 q 210 892 221 885 q 190 910 199 900 q 182 932 182 919 q 204 980 182 954 q 258 1027 226 1006 q 322 1063 289 1049 q 375 1078 354 1078 q 420 1065 390 1078 q 481 1035 450 1053 q 535 998 513 1018 q 558 961 558 978 q 549 936 558 949 q 528 914 540 924 q 501 899 515 904 q 474 893 486 893 q 447 901 461 893 q 419 919 433 908 q 392 942 404 931 q 371 963 379 954 m 494 85 q 424 14 468 42 q 326 -14 379 -14 q 203 8 257 -14 q 112 69 149 29 q 56 164 75 108 q 38 288 38 219 q 40 493 38 392 q 44 699 43 594 q 17 724 25 706 q 8 761 8 742 q 19 796 8 782 q 45 817 29 810 q 81 828 61 825 q 117 831 100 831 q 154 830 136 831 q 192 829 172 829 q 237 830 214 829 q 278 826 260 831 q 309 806 297 821 q 321 760 321 792 q 311 717 321 736 q 274 694 301 697 q 270 503 272 599 q 268 311 268 407 q 272 267 268 292 q 286 220 276 242 q 313 184 296 199 q 354 169 329 169 q 394 183 375 169 q 429 216 414 196 q 453 259 444 236 q 463 301 463 282 l 471 696 q 424 713 439 694 q 410 761 410 732 q 420 796 410 782 q 447 817 431 810 q 483 828 464 825 q 519 831 503 831 q 557 830 539 831 q 594 829 575 829 q 640 830 617 829 q 681 826 663 831 q 712 806 700 821 q 724 760 724 792 q 716 722 724 740 q 688 697 708 704 l 686 113 q 729 63 728 101 l 729 58 q 703 -5 729 8 q 642 -18 678 -18 q 611 -17 626 -18 q 581 -17 596 -17 q 517 15 538 -17 q 494 85 497 47 z "},"":{"ha":740,"x_min":8,"x_max":729,"o":"m 129 989 q 140 1029 129 1013 q 167 1057 150 1046 q 203 1074 183 1068 q 244 1079 224 1079 q 285 1074 265 1079 q 322 1057 306 1068 q 349 1029 339 1046 q 360 989 360 1013 q 349 949 360 967 q 322 921 339 932 q 285 904 306 910 q 244 899 265 899 q 204 904 225 899 q 167 922 183 910 q 140 950 150 933 q 129 989 129 967 m 381 989 q 391 1029 381 1013 q 418 1057 401 1046 q 455 1074 435 1068 q 496 1079 475 1079 q 537 1074 517 1079 q 574 1057 557 1068 q 601 1029 590 1046 q 611 989 611 1013 q 601 949 611 967 q 574 921 590 932 q 537 904 557 910 q 496 899 517 899 q 456 904 476 899 q 418 922 435 910 q 391 950 401 933 q 381 989 381 967 m 494 85 q 424 14 468 42 q 326 -14 379 -14 q 203 8 257 -14 q 112 69 149 29 q 56 164 75 108 q 38 288 38 219 q 40 493 38 392 q 44 699 43 594 q 17 724 25 706 q 8 761 8 742 q 19 796 8 782 q 45 817 29 810 q 81 828 61 825 q 117 831 100 831 q 154 830 136 831 q 192 829 172 829 q 237 830 214 829 q 278 826 260 831 q 309 806 297 821 q 321 760 321 792 q 311 717 321 736 q 274 694 301 697 q 270 503 272 599 q 268 311 268 407 q 272 267 268 292 q 286 220 276 242 q 313 184 296 199 q 354 169 329 169 q 394 183 375 169 q 429 216 414 196 q 453 259 444 236 q 463 301 463 282 l 471 696 q 424 713 439 694 q 410 761 410 732 q 420 796 410 782 q 447 817 431 810 q 483 828 464 825 q 519 831 503 831 q 557 830 539 831 q 594 829 575 829 q 640 830 617 829 q 681 826 663 831 q 712 806 700 821 q 724 760 724 792 q 716 722 724 740 q 688 697 708 704 l 686 113 q 729 63 728 101 l 729 58 q 703 -5 729 8 q 642 -18 678 -18 q 611 -17 626 -18 q 581 -17 596 -17 q 517 15 538 -17 q 494 85 497 47 z "},"":{"ha":690,"x_min":13,"x_max":686,"o":"m 300 876 q 274 878 289 876 q 244 886 258 881 q 221 902 231 892 q 211 928 211 913 q 222 955 211 938 q 246 991 232 972 q 274 1027 260 1010 q 294 1053 288 1044 q 367 1089 322 1089 q 399 1087 379 1089 q 435 1078 418 1085 q 466 1061 453 1072 q 479 1033 479 1050 q 465 1008 479 1026 q 431 969 450 990 q 392 930 411 949 q 367 904 374 911 q 336 884 353 892 q 300 876 319 876 m 333 193 q 364 201 347 193 q 396 223 381 210 q 422 252 411 236 q 432 282 432 268 l 440 696 q 372 761 372 693 q 383 796 372 782 q 410 817 393 810 q 446 828 426 825 q 482 831 465 831 q 519 830 501 831 q 557 829 538 829 q 602 830 579 829 q 644 826 625 831 q 674 806 663 821 q 686 760 686 792 q 680 724 686 742 q 656 699 674 707 q 650 407 654 551 q 642 115 646 263 l 638 3 q 610 -105 636 -58 q 542 -182 583 -151 q 447 -228 500 -212 q 339 -243 394 -243 q 263 -235 303 -243 q 188 -208 224 -226 q 124 -165 153 -190 q 82 -103 96 -139 q 77 -87 79 -96 q 75 -71 75 -78 q 106 -12 75 -31 q 171 7 136 7 q 212 -7 194 7 q 247 -38 229 -21 q 285 -69 264 -56 q 336 -83 306 -83 q 389 -67 369 -83 q 419 -24 408 -50 q 433 31 429 1 q 436 85 436 60 q 435 99 436 92 q 436 113 435 106 q 370 61 408 81 q 289 42 332 42 q 169 78 215 42 q 95 171 122 115 q 58 292 68 226 q 49 417 49 358 q 49 558 49 488 q 50 699 49 628 q 21 723 29 704 q 13 761 13 742 q 40 811 13 796 q 103 831 67 826 q 178 834 140 836 q 238 832 217 832 q 301 819 276 832 q 325 760 325 806 q 312 713 325 732 q 268 694 299 694 q 265 598 267 646 q 263 501 263 550 q 263 461 263 489 q 265 399 263 433 q 271 328 267 364 q 283 262 275 292 q 303 213 292 232 q 333 193 315 193 z "},"":{"ha":715,"x_min":0,"x_max":671,"o":"m 263 39 q 265 -3 264 18 q 267 -44 267 -24 q 331 -63 303 -49 q 358 -119 358 -78 q 332 -167 358 -151 q 278 -182 306 -182 l 72 -181 q 18 -161 36 -181 q 0 -107 0 -142 q 13 -75 0 -87 q 43 -56 25 -62 l 43 771 q 8 798 17 775 q 0 843 0 821 q 8 875 0 863 q 29 894 17 888 q 58 903 42 901 q 89 906 74 906 q 147 907 118 906 q 198 901 175 908 q 235 876 221 894 q 249 818 249 858 q 248 791 249 804 q 246 764 247 778 q 304 817 269 797 q 379 838 339 838 q 522 800 465 838 q 611 703 578 763 q 658 571 644 644 q 671 426 671 497 q 658 285 671 360 q 613 148 644 211 q 526 44 581 85 q 389 3 471 3 q 322 10 358 3 q 263 39 286 18 m 258 621 q 260 444 258 532 q 263 268 263 357 l 263 176 q 294 160 278 167 q 328 153 310 153 q 392 190 368 153 q 431 276 417 226 q 451 376 446 325 q 456 456 456 426 q 450 513 456 475 q 433 588 444 550 q 403 653 422 625 q 360 682 385 682 q 331 678 349 682 q 298 665 314 674 q 270 646 282 657 q 258 621 258 635 z "},"":{"ha":690,"x_min":13,"x_max":686,"o":"m 104 989 q 115 1029 104 1013 q 142 1057 125 1046 q 178 1074 158 1068 q 219 1079 199 1079 q 260 1074 240 1079 q 297 1057 281 1068 q 324 1029 314 1046 q 335 989 335 1013 q 324 949 335 967 q 297 921 314 932 q 260 904 281 910 q 219 899 240 899 q 179 904 200 899 q 142 922 158 910 q 115 950 125 933 q 104 989 104 967 m 356 989 q 366 1029 356 1013 q 393 1057 376 1046 q 430 1074 410 1068 q 471 1079 450 1079 q 512 1074 492 1079 q 549 1057 532 1068 q 576 1029 565 1046 q 586 989 586 1013 q 576 949 586 967 q 549 921 565 932 q 512 904 532 910 q 471 899 492 899 q 431 904 451 899 q 393 922 410 910 q 366 950 376 933 q 356 989 356 967 m 333 193 q 364 201 347 193 q 396 223 381 210 q 422 252 411 236 q 432 282 432 268 l 440 696 q 372 761 372 693 q 383 796 372 782 q 410 817 393 810 q 446 828 426 825 q 482 831 465 831 q 519 830 501 831 q 557 829 538 829 q 602 830 579 829 q 644 826 625 831 q 674 806 663 821 q 686 760 686 792 q 680 724 686 742 q 656 699 674 707 q 650 407 654 551 q 642 115 646 263 l 638 3 q 610 -105 636 -58 q 542 -182 583 -151 q 447 -228 500 -212 q 339 -243 394 -243 q 263 -235 303 -243 q 188 -208 224 -226 q 124 -165 153 -190 q 82 -103 96 -139 q 77 -87 79 -96 q 75 -71 75 -78 q 106 -12 75 -31 q 171 7 136 7 q 212 -7 194 7 q 247 -38 229 -21 q 285 -69 264 -56 q 336 -83 306 -83 q 389 -67 369 -83 q 419 -24 408 -50 q 433 31 429 1 q 436 85 436 60 q 435 99 436 92 q 436 113 435 106 q 370 61 408 81 q 289 42 332 42 q 169 78 215 42 q 95 171 122 115 q 58 292 68 226 q 49 417 49 358 q 49 558 49 488 q 50 699 49 628 q 21 723 29 704 q 13 761 13 742 q 40 811 13 796 q 103 831 67 826 q 178 834 140 836 q 238 832 217 832 q 301 819 276 832 q 325 760 325 806 q 312 713 325 732 q 268 694 299 694 q 265 598 267 646 q 263 501 263 550 q 263 461 263 489 q 265 399 263 433 q 271 328 267 364 q 283 262 275 292 q 303 213 292 232 q 333 193 315 193 z "},"":{"ha":775,"x_min":-56,"x_max":736,"o":"m 286 -21 q 182 -21 233 -21 q 79 -19 131 -21 q 28 0 43 -19 q 14 53 14 19 q 33 97 14 83 q 79 110 51 110 q 77 269 78 190 q 75 429 76 349 l 47 429 q 15 431 33 429 q -18 440 -3 433 q -44 459 -33 447 q -56 489 -56 471 l -56 514 q -46 549 -56 536 q -21 570 -36 563 q 13 581 -6 578 q 49 583 31 583 q 61 583 56 583 q 74 582 67 583 l 74 743 q 26 765 39 744 q 14 817 14 785 q 31 858 14 844 q 75 872 49 871 q 176 877 125 875 q 276 879 226 879 l 357 879 q 522 856 451 879 q 641 782 593 833 q 713 647 689 731 q 736 442 736 564 q 713 260 736 344 q 637 113 690 175 q 497 15 583 50 q 286 -21 411 -21 m 322 576 q 370 560 349 574 q 392 518 392 547 l 392 496 q 370 448 392 464 q 321 429 349 432 l 318 142 q 331 140 325 140 q 344 140 338 140 q 432 173 401 140 q 476 253 463 206 q 491 353 489 300 q 493 449 493 407 q 490 528 493 483 q 473 613 486 574 q 434 680 460 653 q 363 707 408 707 l 324 707 l 322 576 z "},"":{"ha":697,"x_min":22,"x_max":714,"o":"m 617 -21 q 562 -21 589 -21 q 507 -19 535 -21 q 470 -12 483 -19 q 451 6 457 -6 q 444 34 444 18 q 443 68 443 50 q 387 19 419 38 q 314 0 354 0 q 172 38 228 0 q 82 134 115 75 q 35 266 49 193 q 22 410 22 339 q 37 558 22 482 q 86 694 51 633 q 178 795 121 756 q 322 835 236 835 q 376 830 350 835 q 431 825 403 825 l 431 835 q 377 849 399 838 q 356 886 356 861 q 378 915 356 907 q 428 925 400 922 l 428 978 q 438 997 428 988 q 465 1013 449 1006 q 502 1025 482 1021 q 543 1029 522 1029 q 616 1006 582 1029 q 650 939 650 982 l 650 925 q 697 913 679 924 q 714 879 714 901 q 696 847 714 858 q 650 835 678 836 l 650 107 q 697 42 697 89 q 671 -6 697 10 q 617 -21 644 -21 m 435 217 q 433 415 435 317 q 431 611 431 513 l 431 678 q 403 681 417 679 q 376 683 390 683 q 306 648 333 683 q 264 564 279 613 q 243 465 249 515 q 238 382 238 414 q 243 325 238 363 q 260 250 249 288 q 290 184 271 213 q 333 156 308 156 q 362 160 344 156 q 395 172 379 164 q 423 192 411 181 q 435 217 435 203 z "},"":{"ha":342,"x_min":14,"x_max":326,"o":"m 161 -21 q 112 -23 138 -21 q 64 -21 86 -25 q 28 -3 42 -17 q 14 44 14 11 q 28 86 14 71 q 67 108 43 101 l 74 668 q 35 693 44 674 q 25 739 25 713 q 38 773 25 761 q 67 791 50 785 q 105 799 85 797 q 140 800 125 800 q 190 799 163 800 q 240 792 217 799 q 278 769 263 785 q 293 721 293 753 l 285 110 q 317 85 308 103 q 326 44 326 68 q 315 -2 326 17 q 271 -21 303 -21 l 161 -21 z "},"":{"ha":593,"x_min":-37,"x_max":581,"o":"m 443 179 q 448 211 446 196 q 456 238 450 226 q 472 256 461 249 q 504 263 483 263 q 556 252 531 263 q 581 210 581 242 q 574 128 581 169 q 560 49 567 88 q 538 11 556 24 q 496 -1 519 -1 q 313 -3 404 -1 q 129 -7 221 -6 q 76 8 101 -8 q 50 56 50 25 l 50 292 q 11 296 32 288 q -19 332 -10 304 l -26 354 q -27 409 -37 388 q 6 438 -17 431 l 49 451 l 49 746 q 15 773 24 753 q 7 817 7 793 q 24 858 7 846 q 68 872 42 869 q 135 876 101 875 q 203 876 169 876 q 251 877 224 876 q 302 872 278 878 q 342 851 326 867 q 358 804 358 836 q 342 765 358 779 q 301 744 325 750 l 303 524 q 329 512 317 521 q 349 482 342 503 l 356 461 q 355 408 367 431 q 324 379 343 386 l 304 374 l 306 182 l 443 179 z "},"":{"ha":378,"x_min":-67,"x_max":375,"o":"m 51 900 q 19 926 26 907 q 11 969 11 946 q 27 1008 11 996 q 66 1026 43 1021 q 114 1030 89 1031 q 157 1029 139 1029 q 192 1027 172 1029 q 231 1018 213 1025 q 260 999 249 1011 q 272 965 272 986 q 273 746 272 856 q 274 526 274 636 q 286 531 281 529 q 299 532 292 532 q 327 524 314 532 q 350 500 340 517 l 360 479 q 365 426 375 451 q 335 390 356 401 l 275 360 q 276 278 275 319 q 276 196 276 236 q 290 141 276 153 q 320 125 304 129 q 350 112 336 121 q 364 64 364 103 q 342 -21 364 6 q 258 -47 319 -47 q 148 -33 189 -47 q 86 13 107 -18 q 59 89 65 43 q 53 197 53 135 l 53 246 l 46 242 q 14 235 29 235 q -15 242 -1 235 q -39 265 -29 249 l -50 286 q -58 342 -67 318 q -25 378 -49 367 l 53 417 l 51 900 z "},"":{"ha":1200,"x_min":36,"x_max":1171,"o":"m 406 -22 q 215 13 288 -22 q 102 112 142 49 q 49 262 63 175 q 36 451 36 349 q 52 633 36 553 q 110 770 68 714 q 224 856 151 826 q 407 886 296 886 q 481 882 447 886 q 547 871 515 878 q 564 872 553 872 q 679 874 622 875 q 794 874 736 874 l 1072 876 q 1121 868 1096 876 q 1151 832 1146 860 q 1165 762 1158 800 q 1171 690 1171 724 q 1163 668 1171 676 q 1144 655 1156 660 q 1119 649 1132 650 q 1096 647 1107 647 q 1053 660 1063 647 q 1039 703 1044 674 l 813 697 l 810 551 q 889 556 850 554 q 967 560 928 558 q 989 602 967 592 q 1039 613 1011 613 q 1097 564 1092 613 q 1101 479 1100 522 q 1103 394 1103 436 q 1083 347 1103 364 q 1033 331 1063 331 q 971 381 982 331 q 892 382 931 381 q 813 383 853 383 q 813 341 813 374 q 812 272 813 308 q 810 206 811 236 q 807 169 810 176 q 892 172 850 171 q 966 175 928 174 q 1032 176 1004 176 q 1036 205 1035 192 q 1043 228 1038 218 q 1059 242 1049 238 q 1089 247 1069 247 q 1115 245 1101 247 q 1140 238 1128 243 q 1158 222 1151 232 q 1165 196 1165 211 q 1158 115 1165 157 q 1144 33 1151 72 q 1124 -3 1142 10 q 1085 -17 1107 -17 q 873 -19 978 -17 q 661 -22 768 -21 q 615 -22 638 -22 q 568 -19 592 -21 q 532 -12 549 -19 q 406 -22 479 -22 m 419 719 q 344 689 371 719 q 306 615 318 658 q 291 525 293 572 q 289 443 289 478 q 291 354 289 406 q 307 255 293 303 q 349 174 321 207 q 431 140 378 140 q 503 177 478 140 q 541 265 529 214 q 555 368 553 315 q 557 454 557 421 q 554 536 557 490 q 538 623 551 582 q 497 692 525 664 q 419 719 469 719 z "},"":{"ha":1163,"x_min":32,"x_max":1140,"o":"m 375 -11 q 199 27 267 -11 q 94 128 132 65 q 44 269 57 190 q 32 431 32 349 q 49 589 32 514 q 105 719 65 664 q 213 808 144 775 q 382 840 281 840 q 531 819 469 840 q 635 761 593 799 q 722 820 671 799 q 847 842 772 842 q 949 822 899 842 q 1038 769 999 803 q 1101 690 1076 736 q 1125 589 1125 643 q 1096 485 1125 526 q 1022 419 1067 444 q 922 384 976 394 q 815 374 867 374 q 781 375 797 374 q 747 379 764 376 q 744 373 744 376 q 743 367 744 369 q 749 301 743 342 q 770 224 756 261 q 808 158 785 186 q 864 131 831 131 q 900 139 882 131 q 932 160 918 147 q 955 192 946 174 q 964 228 964 210 q 967 269 964 249 q 978 306 969 289 q 1002 332 986 322 q 1043 342 1018 342 q 1113 323 1086 342 q 1140 256 1140 304 q 1118 140 1140 192 q 1056 51 1096 88 q 963 -4 1017 15 q 846 -24 908 -24 q 721 1 772 -24 q 636 67 669 25 q 530 9 593 29 q 375 -11 467 -11 m 254 415 q 258 331 254 378 q 276 242 261 283 q 319 173 290 201 q 400 144 349 144 q 476 178 450 144 q 515 260 503 213 q 528 360 526 308 q 531 446 531 411 q 527 523 531 482 q 510 599 524 564 q 470 658 497 635 q 394 681 443 681 q 316 653 344 681 q 274 585 288 625 q 258 498 261 544 q 254 415 254 451 m 740 513 q 803 499 768 499 q 846 504 824 499 q 885 521 868 510 q 915 549 903 532 q 926 590 926 567 q 909 645 926 619 q 860 671 892 671 q 807 656 829 671 q 770 617 785 640 q 748 567 756 594 q 740 513 740 539 z "},"":{"ha":740,"x_min":25,"x_max":719,"o":"m 369 1042 q 390 1067 376 1053 q 419 1095 403 1082 q 453 1117 436 1108 q 482 1126 469 1126 q 506 1123 493 1126 q 531 1113 519 1119 q 550 1096 542 1106 q 558 1074 558 1086 q 536 1026 558 1051 q 483 978 514 1000 q 419 941 451 956 q 365 926 386 926 q 321 939 351 926 q 260 969 290 951 q 206 1008 229 988 q 182 1043 182 1028 q 191 1068 182 1056 q 213 1090 200 1081 q 240 1106 225 1100 q 267 1113 254 1113 q 293 1105 279 1113 q 322 1085 307 1097 q 349 1062 336 1074 q 369 1042 361 1050 m 375 -12 q 253 7 315 -12 q 141 63 192 26 q 58 153 90 100 q 25 272 25 206 q 56 340 25 315 q 128 364 88 364 q 197 349 172 364 q 235 313 221 335 q 257 267 249 292 q 278 220 265 242 q 313 184 290 199 q 378 169 336 169 q 414 173 394 169 q 449 185 433 176 q 476 207 465 193 q 488 242 488 221 q 454 285 488 265 q 372 327 421 306 q 265 375 322 349 q 158 438 207 401 q 75 522 108 474 q 42 635 42 569 q 72 747 42 700 q 151 822 103 793 q 259 865 200 851 q 374 879 318 879 q 476 858 425 879 q 569 807 528 838 q 572 845 569 826 q 581 878 574 864 q 603 903 589 893 q 642 913 617 913 q 690 887 674 913 q 704 833 706 861 q 699 721 701 776 q 692 608 696 665 q 681 573 690 588 q 656 549 671 558 q 622 536 640 540 q 585 532 604 532 q 526 546 546 532 q 497 580 507 560 q 481 624 486 600 q 467 667 476 647 q 440 701 458 688 q 385 715 422 715 q 315 693 343 715 q 286 626 286 671 q 318 578 286 600 q 399 536 350 557 q 503 490 447 515 q 607 432 558 465 q 688 353 656 399 q 719 244 719 307 q 687 129 719 178 q 604 49 654 81 q 493 3 554 18 q 375 -12 432 -12 z "},"":{"ha":686,"x_min":31,"x_max":664,"o":"m 342 993 q 363 1019 349 1004 q 392 1047 376 1033 q 425 1069 408 1060 q 454 1078 442 1078 q 478 1074 465 1078 q 503 1064 492 1071 q 523 1047 515 1057 q 531 1025 531 1038 q 508 977 531 1003 q 455 929 486 951 q 392 892 424 907 q 339 878 360 878 q 294 890 325 878 q 233 921 264 903 q 178 959 201 939 q 156 994 156 979 q 165 1019 156 1007 q 186 1042 174 1032 q 213 1058 199 1051 q 239 1064 228 1064 q 266 1056 251 1064 q 294 1037 281 1049 q 321 1013 308 1025 q 342 993 333 1001 m 349 -7 q 230 13 288 -7 q 128 71 172 33 q 57 161 83 108 q 31 278 31 214 q 31 318 31 299 q 36 352 31 338 q 56 376 42 367 q 97 385 69 385 q 172 352 153 385 q 190 269 192 319 l 190 258 q 259 190 221 214 q 353 165 297 165 q 386 168 368 165 q 419 178 404 171 q 445 199 435 186 q 456 232 456 213 q 425 260 456 246 q 349 295 394 275 q 250 342 303 315 q 151 405 197 368 q 75 490 106 442 q 44 603 44 539 q 72 706 44 664 q 142 776 99 749 q 240 815 186 803 q 347 828 293 828 q 466 815 411 828 q 562 774 521 803 q 626 697 603 744 q 649 578 649 649 q 649 536 649 556 q 644 502 649 517 q 625 479 639 488 q 582 471 611 471 q 506 504 525 471 q 488 586 488 538 q 476 617 488 603 q 447 640 465 631 q 406 653 429 649 q 360 658 383 658 q 326 653 343 658 q 294 641 308 649 q 272 624 281 633 q 263 603 263 614 q 292 565 263 583 q 367 526 322 547 q 463 480 411 506 q 560 420 515 454 q 634 341 604 386 q 664 235 664 296 q 635 126 664 172 q 561 51 607 81 q 459 8 515 22 q 349 -7 403 -7 z "},"":{"ha":792,"x_min":-6,"x_max":790,"o":"m 154 1038 q 165 1078 154 1061 q 192 1106 175 1094 q 229 1122 208 1117 q 269 1128 250 1128 q 311 1122 290 1128 q 349 1106 332 1117 q 376 1078 365 1094 q 386 1038 386 1061 q 376 998 386 1015 q 349 969 365 981 q 311 953 332 958 q 269 947 290 947 q 230 953 250 947 q 193 970 210 958 q 165 999 176 982 q 154 1038 154 1015 m 407 1038 q 417 1078 407 1061 q 444 1106 428 1094 q 481 1122 461 1117 q 522 1128 501 1128 q 563 1122 542 1128 q 600 1106 583 1117 q 627 1078 617 1094 q 638 1038 638 1061 q 627 998 638 1015 q 600 969 617 981 q 563 953 583 958 q 522 947 542 947 q 482 953 503 947 q 444 970 461 958 q 417 999 428 982 q 407 1038 407 1015 m 308 -19 q 236 53 236 -19 q 250 88 236 75 q 283 106 264 100 q 281 217 279 161 q 281 328 283 272 q 169 533 224 431 q 68 743 115 636 q 11 760 28 743 q -6 817 -6 778 q 9 851 -6 839 q 44 869 24 864 q 88 876 65 875 q 126 878 111 878 q 165 877 146 878 q 203 876 183 876 q 251 877 224 876 q 301 872 278 878 q 341 851 325 865 q 357 804 357 836 q 344 769 357 783 q 314 749 332 756 l 422 519 l 501 753 q 481 781 486 764 q 475 817 475 799 q 488 851 475 839 q 521 870 501 864 q 562 878 540 876 q 599 879 583 879 q 635 878 618 879 q 672 876 653 876 q 717 876 696 876 q 754 870 738 876 q 781 849 771 864 q 790 803 790 833 q 770 757 790 772 q 722 743 750 742 q 624 542 671 643 q 529 342 578 442 l 529 111 q 576 90 558 106 q 594 42 594 74 q 569 -6 594 10 q 515 -21 543 -22 l 308 -19 z "},"":{"ha":726,"x_min":31,"x_max":704,"o":"m 363 1042 q 383 1067 369 1053 q 413 1095 396 1082 q 446 1117 429 1108 q 475 1126 463 1126 q 499 1123 486 1126 q 524 1113 513 1119 q 543 1096 535 1106 q 551 1074 551 1086 q 529 1026 551 1051 q 476 978 507 1000 q 412 941 444 956 q 358 926 379 926 q 314 939 344 926 q 253 969 283 951 q 199 1008 222 988 q 175 1043 175 1028 q 184 1068 175 1056 q 206 1090 193 1081 q 233 1106 218 1100 q 260 1113 247 1113 q 286 1105 272 1113 q 315 1085 300 1097 q 342 1062 329 1074 q 363 1042 354 1050 m 567 175 q 585 222 572 207 q 635 238 599 238 q 681 225 658 238 q 704 185 704 213 q 697 133 704 161 q 685 79 689 104 q 665 13 679 38 q 600 -11 650 -11 q 415 -9 507 -11 q 231 -7 324 -7 q 172 -8 207 -7 q 106 -1 138 -8 q 53 24 75 6 q 31 79 31 42 q 40 141 31 111 q 67 197 50 171 l 385 689 q 280 690 332 690 q 175 692 228 689 q 170 662 172 675 q 163 640 168 649 q 147 627 157 632 q 117 622 136 622 q 93 624 107 622 q 68 630 79 625 q 49 643 57 635 q 40 665 40 651 q 47 736 40 697 q 60 807 53 775 q 92 847 67 835 q 143 861 118 860 l 582 868 q 635 854 610 869 q 661 807 661 839 l 661 718 q 640 670 661 710 q 585 576 618 631 q 513 458 553 521 q 437 337 474 394 q 372 235 400 279 q 332 175 343 192 l 567 175 z "},"":{"ha":626,"x_min":11,"x_max":615,"o":"m 313 993 q 333 1019 319 1004 q 363 1047 346 1033 q 396 1069 379 1060 q 425 1078 413 1078 q 449 1074 436 1078 q 474 1064 463 1071 q 493 1047 485 1057 q 501 1025 501 1038 q 479 977 501 1003 q 426 929 457 951 q 362 892 394 907 q 308 878 329 878 q 264 890 294 878 q 203 921 233 903 q 149 959 172 939 q 125 994 125 979 q 134 1019 125 1007 q 156 1042 143 1032 q 183 1058 168 1051 q 210 1064 197 1064 q 236 1056 222 1064 q 265 1037 250 1049 q 292 1013 279 1025 q 313 993 304 1001 m 271 149 q 322 153 300 151 q 364 155 343 154 q 406 157 385 156 q 456 158 428 158 q 479 228 463 199 q 543 257 496 257 q 592 243 568 257 q 615 201 615 229 q 604 132 615 172 q 586 61 593 92 q 568 9 579 28 q 517 -11 557 -10 l 247 -11 q 186 -12 224 -11 q 113 -8 149 -14 q 51 14 76 -3 q 25 67 25 31 q 38 130 25 100 q 68 188 50 160 l 364 660 l 322 660 q 279 659 297 660 q 244 658 261 658 q 210 658 228 658 q 167 657 192 657 q 139 605 160 625 q 83 585 118 585 q 35 599 60 585 q 11 640 11 613 q 21 697 11 667 q 38 754 31 728 q 63 806 47 789 q 118 822 78 822 l 496 825 q 523 820 508 825 q 550 806 538 815 q 570 784 563 796 q 578 757 578 772 q 574 709 578 733 q 557 663 569 685 l 271 149 z "},"":{"ha":579,"x_min":-72,"x_max":583,"o":"m -72 -72 q -49 -22 -72 -40 q 6 -4 -26 -4 q 38 -12 25 -4 q 62 -28 51 -19 q 81 -45 72 -37 q 99 -53 89 -53 q 130 -33 119 -53 q 146 15 140 -12 q 152 69 151 42 q 153 110 153 96 q 147 308 153 210 q 135 506 142 406 q 90 509 106 506 q 65 522 74 513 q 55 549 57 532 q 53 593 53 567 q 63 628 53 615 q 87 649 72 642 q 119 658 101 656 q 154 660 138 660 q 88 728 115 686 q 61 818 61 771 q 86 914 61 875 q 151 978 111 953 q 239 1014 190 1003 q 336 1025 288 1025 q 424 1010 383 1025 q 496 969 465 996 q 547 903 526 942 q 572 817 567 864 q 579 776 575 797 q 583 736 583 756 q 559 696 583 704 q 507 688 535 688 q 474 693 485 688 q 460 708 464 699 q 454 730 456 717 q 449 758 453 743 q 436 785 446 771 q 413 814 426 800 q 385 837 400 828 q 357 846 369 846 q 331 840 344 846 q 304 824 317 833 q 283 801 292 814 q 275 776 275 789 q 290 742 275 761 q 325 706 304 722 q 368 677 346 689 q 404 665 390 665 q 438 664 421 665 q 470 656 456 663 q 494 638 485 650 q 504 604 504 625 q 474 526 504 544 q 390 508 443 508 q 368 509 379 508 q 346 510 357 510 q 360 339 357 424 q 363 168 363 254 q 356 48 363 114 q 329 -77 350 -18 q 267 -177 308 -136 q 157 -221 226 -218 l 150 -221 q 74 -215 114 -221 q 2 -193 35 -210 q -51 -147 -31 -176 q -72 -72 -72 -118 z "},"":{"ha":489,"x_min":67,"x_max":442,"o":"m 256 963 q 235 938 249 953 q 205 910 221 924 q 172 887 189 896 q 143 878 156 878 q 119 881 132 878 q 94 892 106 885 q 74 910 82 900 q 67 932 67 919 q 89 980 67 954 q 142 1027 111 1006 q 206 1063 174 1049 q 258 1078 238 1078 q 303 1065 274 1078 q 365 1035 333 1053 q 419 998 396 1018 q 442 961 442 978 q 433 936 442 949 q 411 914 424 924 q 384 899 399 904 q 358 893 369 893 q 332 901 346 893 q 303 919 318 908 q 276 942 289 931 q 256 963 264 954 z "},"":{"ha":521,"x_min":67,"x_max":442,"o":"m 253 993 q 274 1019 260 1004 q 303 1047 288 1033 q 336 1069 319 1060 q 365 1078 353 1078 q 390 1074 376 1078 q 415 1064 403 1071 q 434 1047 426 1057 q 442 1025 442 1038 q 419 977 442 1003 q 366 929 397 951 q 303 892 335 907 q 250 878 271 878 q 206 890 236 878 q 144 921 175 903 q 90 959 113 939 q 67 994 67 979 q 76 1019 67 1007 q 97 1042 85 1032 q 124 1058 110 1051 q 151 1064 139 1064 q 177 1056 163 1064 q 206 1037 192 1049 q 232 1013 219 1025 q 253 993 244 1001 z "},"":{"ha":475,"x_min":46,"x_max":433,"o":"m 136 1071 q 167 1064 156 1071 q 190 1048 179 1057 q 213 1032 201 1039 q 243 1025 225 1025 q 272 1034 263 1025 q 292 1053 282 1043 q 315 1072 301 1064 q 356 1081 329 1081 q 408 1069 383 1081 q 433 1022 433 1057 q 415 965 433 990 q 369 920 397 939 q 309 891 342 901 q 249 881 276 881 q 190 887 225 881 q 124 908 156 893 q 69 944 92 922 q 46 997 46 967 q 74 1053 46 1036 q 136 1071 103 1071 z "},"":{"ha":436,"x_min":97,"x_max":328,"o":"m 97 989 q 108 1029 97 1013 q 135 1057 118 1046 q 172 1074 151 1068 q 213 1079 192 1079 q 253 1074 232 1079 q 290 1057 274 1068 q 317 1029 307 1046 q 328 989 328 1013 q 317 949 328 967 q 290 921 307 932 q 253 904 274 910 q 213 899 232 899 q 172 904 193 899 q 135 922 151 910 q 108 950 118 933 q 97 989 97 967 z "},"":{"ha":550,"x_min":90,"x_max":457,"o":"m 90 1007 q 108 1067 90 1043 q 153 1107 126 1092 q 214 1129 181 1122 q 276 1136 247 1136 q 338 1129 306 1136 q 396 1107 369 1122 q 440 1067 422 1092 q 457 1007 457 1043 q 440 946 457 971 q 396 906 422 921 q 338 883 369 890 q 275 876 306 876 q 213 883 246 876 q 153 906 181 890 q 108 946 126 921 q 90 1007 90 971 m 278 988 q 305 992 286 988 q 324 1010 324 997 q 306 1026 324 1021 q 279 1031 288 1031 q 251 1026 269 1031 q 233 1008 233 1021 q 251 992 233 997 q 278 988 269 988 z "},"":{"ha":369,"x_min":57,"x_max":329,"o":"m 236 -215 q 178 -211 210 -215 q 119 -194 146 -207 q 75 -160 93 -182 q 57 -104 57 -139 q 69 -56 57 -79 q 101 -12 82 -33 q 141 28 119 10 q 179 63 163 47 q 196 72 186 69 q 217 74 206 74 q 234 72 224 74 q 253 67 244 71 q 269 56 263 63 q 275 39 275 49 q 267 11 275 25 q 251 -17 260 -3 q 234 -47 242 -32 q 226 -75 226 -61 q 242 -90 226 -87 q 278 -95 258 -93 q 313 -102 297 -97 q 329 -125 329 -107 q 301 -189 329 -162 q 236 -215 274 -215 z "},"":{"ha":603,"x_min":56,"x_max":549,"o":"m 233 938 q 213 929 222 938 q 194 910 204 921 q 172 891 185 900 q 138 882 158 882 q 81 900 106 882 q 56 954 56 918 q 73 1001 56 979 q 116 1040 90 1024 q 170 1065 142 1056 q 221 1075 199 1075 q 276 1065 253 1075 q 317 1043 299 1056 q 349 1021 335 1031 q 378 1011 364 1011 q 396 1022 388 1011 q 415 1044 404 1032 q 440 1066 425 1056 q 479 1076 454 1076 q 528 1060 507 1076 q 549 1014 549 1044 q 533 966 549 990 q 493 922 517 942 q 442 890 469 903 q 393 878 415 878 q 339 887 363 878 q 297 908 315 896 q 263 928 278 919 q 233 938 247 938 z "}}}
